<?xml version="1.0" encoding="utf-8"?>
<!-- Generator: Adobe Illustrator 16.0.0, SVG Export Plug-In . SVG Version: 6.00 Build 0)  -->
<!DOCTYPE svg PUBLIC "-//W3C//DTD SVG 1.1//EN" "http://www.w3.org/Graphics/SVG/1.1/DTD/svg11.dtd">
<svg version="1.1" id="Layer_1" xmlns="http://www.w3.org/2000/svg" xmlns:xlink="http://www.w3.org/1999/xlink" x="0px" y="0px"
	 width="160px" height="160px" viewBox="0 0 160 160" enable-background="new 0 0 160 160" xml:space="preserve">
<g>
	<g>
		<path fill="#FFCC00" d="M146.896,95.875c-0.215-0.543-0.832-0.949-1.43-0.949c-0.367,0-0.705,0.109-1.169,0.352l-2.31,1.227
			l-2.951,1.568l-3.098,1.637l-5.051,2.666l-6.949,3.674l-6.764,3.574l-1.272,0.678l-8.517,4.499l-2.033,1.072
			c-0.775,0.407-1.242,1.118-1.266,1.894c-0.008,0.783,0.433,1.491,1.206,1.928l0.422,0.24l2.654,1.523l4.003,2.311l3.053,1.756
			c0.398,0.232,0.68,0.632,0.738,1.102c0.023,0.172-0.02,0.338-0.056,0.5c-0.058,0.275-0.173,0.539-0.372,0.736l-10.027,10.037
			l-2.164,2.159l-2.133,2.134l-1.244,1.246c-0.711,0.701-0.914,1.38-0.636,2.057c0.226,0.54,0.841,0.952,1.441,0.952
			c0.354,0,0.702-0.105,1.163-0.343l0.143-0.079l2.172-1.149l0.29-0.158l2.669-1.41l3.09-1.628l30.591-16.187
			c0.772-0.412,1.234-1.101,1.251-1.9c0.02-0.762-0.418-1.48-1.182-1.922l-10.127-5.857c-0.392-0.232-0.666-0.635-0.728-1.101
			c-0.056-0.442,0.101-0.905,0.415-1.238l10.009-9.996l2.156-2.153l2.145-2.144l1.234-1.239
			C146.977,97.225,147.186,96.548,146.896,95.875z"/>
		<path fill="#33CCCC" d="M147.831,102.51l-1.88,1.887l-2.157,2.145l-0.302,0.301c2.699,3.947,4.301,8.712,4.301,13.84
			c0,13.545-11.03,24.58-24.578,24.58c-4.662,0-8.999-1.329-12.714-3.584l-3.091,1.628l-2.668,1.409l-0.289,0.159
			c5.187,4.032,11.691,6.461,18.762,6.461c16.898,0,30.655-13.742,30.655-30.653C153.869,113.871,151.602,107.604,147.831,102.51z"
			/>
		<path fill="#33CCCC" d="M137.004,94.244l0.834-0.441c-1.334-0.725-2.725-1.371-4.165-1.896c-2.95-1.081-6.102-1.711-9.388-1.827
			c-0.016,0-0.023,0-0.037,0c-0.348-0.004-0.681-0.045-1.033-0.045c-2.27,0-4.48,0.262-6.607,0.738
			c-2.701,0.6-5.263,1.562-7.646,2.824c-0.4,0.213-0.811,0.428-1.205,0.659c-3.655,2.147-6.811,5.024-9.301,8.425
			c-2.378,3.264-4.115,7-5.066,11.045c-0.52,2.242-0.826,4.557-0.826,6.955c0,3.977,0.783,7.773,2.162,11.254
			c0.053,0.115,0.085,0.238,0.129,0.352c0.039,0.1,0.091,0.187,0.129,0.278c1.005,2.373,2.3,4.579,3.84,6.606
			c0.316,0.418,0.631,0.842,0.968,1.246c0.522,0.614,1.052,1.205,1.622,1.771l2.133-2.133l2.164-2.159
			c-0.261-0.272-0.514-0.554-0.764-0.833c-0.426-0.479-0.828-0.977-1.217-1.49c-1.551-2.027-2.802-4.295-3.664-6.75
			c-0.027-0.063-0.044-0.138-0.065-0.203c-0.86-2.496-1.354-5.154-1.354-7.939c0-0.025,0-0.047,0-0.081
			c0.024-5.628,1.958-10.802,5.174-14.94c1.442-1.862,3.147-3.508,5.062-4.894c2.303-1.662,4.906-2.933,7.711-3.726
			c2.01-0.563,4.109-0.883,6.287-0.917c0.12,0,0.221-0.013,0.338-0.013c0.342,0,0.686,0.013,1.027,0.026
			c2.335,0.098,4.558,0.606,6.682,1.317l2.99-1.576L137.004,94.244z"/>
	</g>
	<path fill="#539E43" d="M106.238,91.669c-2.152,1.265-4.135,2.755-5.942,4.444c0.723-1.115,1.082-2.454,1.082-4.051
		c0-3.409-1.31-5.897-18.476-7.6c-14.277-1.441-23.188-4.587-23.188-15.985c0-10.611,8.91-16.9,23.845-16.9
		c16.772,0,25.025,5.765,26.073,18.343c0,0.393-0.129,0.786-0.395,1.178c-0.26,0.262-0.653,0.525-1.046,0.525h-6.814
		c-0.652,0-1.31-0.525-1.442-1.182c-1.568-7.203-5.631-9.563-16.375-9.563c-12.054,0-13.493,4.194-13.493,7.339
		c0,3.794,1.702,4.976,17.947,7.07c14.825,1.931,22.41,4.672,23.533,13.868c-1.36,0.509-2.695,1.104-3.991,1.79l-0.141,0.075
		C107.022,91.23,106.624,91.442,106.238,91.669z M123.949,87.063c0.11,0.007,0.22,0.016,0.336,0.017c0.035,0,0.07,0.001,0.106,0.002
		c2.836,0.1,5.616,0.567,8.299,1.359V49.873c0-3.934-2.092-7.603-5.502-9.566L74.914,10.041c-3.276-1.834-7.73-1.834-11.008,0
		L11.631,40.307C8.222,42.27,6.13,45.94,6.13,49.874v60.4c0,3.929,2.092,7.599,5.501,9.566l13.756,7.859
		c6.682,3.274,9.042,3.274,12.055,3.274c9.827-0.002,15.463-6.027,15.463-16.38V54.981c0-0.918-0.789-1.57-1.576-1.57h-6.684
		c-0.913,0-1.57,0.785-1.57,1.57v59.613c0,4.587-4.848,9.174-12.576,5.245l-14.281-8.257c-0.524-0.261-0.789-0.918-0.789-1.442
		V49.741c0-0.525,0.264-1.179,0.789-1.442l52.276-30.133c0.392-0.261,1.046-0.261,1.573,0l52.276,30.133
		c0.524,0.264,0.784,0.786,0.784,1.442v37.297c0.029-0.001,0.059-0.003,0.088-0.003C123.465,87.035,123.707,87.049,123.949,87.063z
		 M98.444,97.979c-2.5,1.695-6.668,2.468-12.785,2.468c-13.891,0-16.902-3.405-17.956-10.352c0-0.785-0.652-1.306-1.436-1.306H59.45
		c-0.918,0-1.571,0.78-1.571,1.568c0,8.908,4.719,19.391,27.646,19.391c2.137,0,4.135-0.127,6.023-0.345
		c1.079-3.025,2.575-5.872,4.487-8.495C96.788,99.881,97.595,98.906,98.444,97.979z M92.235,133.772
		c-0.062-0.125-0.121-0.254-0.179-0.4c-0.031-0.08-0.061-0.162-0.099-0.276c-0.008-0.019-0.015-0.037-0.022-0.056
		c-0.421-1.062-0.781-2.137-1.091-3.223l-20.779,12.031c-0.396,0.26-1.05,0.26-1.573,0l-13.365-7.992
		c-0.393-0.264-0.917-0.393-1.31-0.129c-3.67,2.091-4.326,2.355-7.86,3.534c-0.789,0.264-2.095,0.789,0.521,2.228l17.427,10.351
		c1.705,0.919,3.54,1.441,5.504,1.441c1.835,0,3.798-0.392,5.504-1.178l19.877-11.507c-0.99-1.562-1.862-3.188-2.579-4.882
		C92.223,133.741,92.233,133.768,92.235,133.772z"/>
</g>
</svg>
