<?xml version="1.0" encoding="utf-8"?>
<!-- Generator: Adobe Illustrator 16.0.0, SVG Export Plug-In . SVG Version: 6.00 Build 0)  -->
<!DOCTYPE svg PUBLIC "-//W3C//DTD SVG 1.1//EN" "http://www.w3.org/Graphics/SVG/1.1/DTD/svg11.dtd">
<svg version="1.1" id="Layer_1" xmlns="http://www.w3.org/2000/svg" xmlns:xlink="http://www.w3.org/1999/xlink" x="0px" y="0px"
	 width="160px" height="160px" viewBox="0 0 160 160" enable-background="new 0 0 160 160" xml:space="preserve">
<g>
	<g>
		<g>
			<g>
				<path fill="#FFFFFF" d="M61.409,17.862c0.149,0.284,0.323,0.551,0.555,0.776l24.861,24.862
					c-2.262-0.428-4.553-0.646-6.832-0.646c-9.914,0-19.219,3.828-26.228,10.791L13.621,93.762c-0.097,0.102-0.185,0.215-0.265,0.32
					l-9.577-9.56c-2.483-2.495-2.483-6.541,0-9.029L61.409,17.862 M61.409,16.112c-0.46,0-0.907,0.182-1.237,0.513L2.542,74.256
					c-3.162,3.168-3.163,8.327-0.003,11.501l9.581,9.563c0.329,0.329,0.774,0.512,1.236,0.512c0.04,0,0.08-0.001,0.12-0.004
					c0.504-0.035,0.969-0.285,1.274-0.688c0.043-0.057,0.087-0.118,0.139-0.172l40.114-40.085
					c6.671-6.627,15.547-10.279,24.991-10.279c2.156,0,4.345,0.207,6.506,0.616c0.108,0.021,0.218,0.03,0.326,0.03
					c0.639,0,1.239-0.352,1.546-0.932c0.359-0.679,0.233-1.512-0.31-2.055L63.201,17.401c-0.084-0.083-0.159-0.193-0.243-0.354
					c-0.259-0.492-0.736-0.832-1.286-0.916C61.583,16.119,61.496,16.112,61.409,16.112L61.409,16.112z"/>
			</g>
			<path fill="#FFFFFF" d="M79.997,1.916c1.701,0,3.308,0.668,4.517,1.871l57.645,57.647c-0.141,0.089-0.27,0.188-0.393,0.308
				L116.549,86.97c2.205-11.952-1.588-24.442-10.16-33.092l-3.201-3.206l5.689-7.219c0.018-0.018,0.033-0.041,0.043-0.059
				c2.371-3.09,1.65-5.813,1.008-7.153c-0.012-0.038-0.033-0.079-0.053-0.12c-1.068-2.1-3.295-3.455-5.662-3.455
				c-1.578,0-3.039,0.54-4.469,1.671l-7.291,5.596L66.571,14.045c-0.227-0.234-0.501-0.407-0.797-0.542l9.711-9.716
				C76.691,2.584,78.297,1.916,79.997,1.916 M79.997,0.166c-2.167,0-4.208,0.846-5.748,2.382l-9.713,9.717
				c-0.405,0.406-0.586,0.985-0.484,1.549c0.103,0.564,0.475,1.043,0.997,1.281c0.154,0.07,0.229,0.128,0.264,0.166L91.216,41.17
				c0.339,0.339,0.787,0.513,1.237,0.513c0.374,0,0.749-0.119,1.065-0.362l7.291-5.596c1.136-0.898,2.211-1.309,3.403-1.309
				c1.71,0,3.312,0.969,4.089,2.473c0.015,0.037,0.031,0.073,0.048,0.109c0.574,1.197,0.898,3.094-0.818,5.331
				c-0.014,0.019-0.028,0.038-0.042,0.058l-5.676,7.202c-0.549,0.696-0.49,1.693,0.136,2.32l3.201,3.206
				c8.179,8.252,11.798,20.044,9.678,31.538c-0.14,0.754,0.229,1.51,0.906,1.866c0.258,0.136,0.537,0.201,0.813,0.201
				c0.454,0,0.902-0.176,1.238-0.513l25.217-25.228c0.013-0.012,0.047-0.038,0.09-0.065c0.45-0.284,0.746-0.757,0.805-1.286
				c0.059-0.529-0.126-1.055-0.502-1.431L85.751,2.55C84.205,1.011,82.163,0.166,79.997,0.166L79.997,0.166z"/>
			<path fill="#FFFFFF" d="M43.347,73.251c-2.251,11.9,1.362,24.014,9.899,32.798l3.431,3.432l-5.568,7.064
				c-1.806,2.335-2.163,4.912-1.025,7.277c0.016,0.048,0.05,0.105,0.067,0.154c0.99,1.903,3.041,3.229,5.232,3.355
				c0.104,0.021,0.212,0.021,0.319,0.021c0.002,0,0.011,0,0.016,0s0.011,0,0.016,0c2.024,0,3.445-0.883,4.46-1.641l7.187-5.523
				l25.768,25.785c0.279,0.279,0.605,0.492,0.953,0.652l-9.588,9.591c-1.209,1.21-2.816,1.866-4.517,1.866
				c-1.699,0-3.306-0.656-4.512-1.866L17.897,98.629c0.111-0.079,0.23-0.161,0.33-0.268L43.347,73.251 M43.348,71.501
				c-0.454,0-0.901,0.176-1.238,0.512L16.99,97.124c-0.003,0.003-0.006,0.006-0.009,0.009c-0.024,0.02-0.05,0.036-0.074,0.054
				c-0.42,0.298-0.699,0.773-0.742,1.287s0.131,1.028,0.496,1.393l57.588,57.589c1.528,1.533,3.571,2.379,5.749,2.379
				s4.222-0.845,5.755-2.379l9.587-9.591c0.405-0.405,0.586-0.981,0.485-1.545s-0.471-1.042-0.99-1.282
				c-0.182-0.083-0.332-0.185-0.448-0.3l-25.768-25.785c-0.339-0.34-0.788-0.513-1.238-0.513c-0.374,0-0.75,0.119-1.066,0.362
				l-7.187,5.523c-0.88,0.657-1.916,1.278-3.394,1.278h-0.08c-0.057-0.009-0.113-0.016-0.17-0.019
				c-1.536-0.088-3.036-1.035-3.753-2.363c-0.008-0.019-0.016-0.036-0.024-0.054c-0.014-0.035-0.03-0.07-0.046-0.104
				c-1.072-2.228-0.139-4.192,0.833-5.448l5.559-7.052c0.549-0.696,0.49-1.693-0.137-2.32l-3.431-3.432
				c-8.147-8.383-11.585-19.773-9.417-31.235c0.143-0.754-0.223-1.514-0.902-1.873C43.907,71.567,43.626,71.501,43.348,71.501
				L43.348,71.501z"/>
			<path fill="#FFFFFF" d="M146.691,65.964l9.529,9.529c2.484,2.488,2.484,6.534,0,9.029l-57.813,57.802
				c-0.162-0.35-0.375-0.681-0.652-0.954l-24.672-24.661c2.274,0.421,4.562,0.646,6.837,0.646c9.917,0,19.23-3.846,26.24-10.808
				l40.219-40.205C146.49,66.23,146.594,66.096,146.691,65.964 M146.691,64.214c-0.043,0-0.086,0.001-0.129,0.005
				c-0.508,0.038-0.975,0.294-1.277,0.704c-0.093,0.125-0.132,0.171-0.149,0.188l-40.213,40.2
				c-6.684,6.638-15.563,10.295-25.002,10.295c-2.112,0-4.305-0.208-6.519-0.617c-0.106-0.02-0.213-0.029-0.319-0.029
				c-0.641,0-1.242,0.354-1.548,0.936c-0.357,0.679-0.23,1.51,0.312,2.052l24.672,24.661c0.115,0.114,0.214,0.264,0.302,0.453
				c0.241,0.519,0.72,0.887,1.282,0.986c0.102,0.019,0.204,0.027,0.306,0.027c0.46,0,0.906-0.182,1.237-0.513l57.813-57.802
				c3.164-3.177,3.163-8.336,0.001-11.503l-9.53-9.53C147.6,64.397,147.153,64.214,146.691,64.214L146.691,64.214z"/>
		</g>
		<path fill="#FFFFFF" d="M104.213,37.864c0.426,0,0.832,0.259,1.016,0.615c0.248,0.533,0.123,1.009-0.441,1.75L81.182,70.182
			l0.898,1.227c1.23,1.681,5.086,7.243,12.506,18.063c0.441,0.646,0.59,2.816-0.639,3.746l-36.889,28.328
			c-0.581,0.435-0.919,0.588-1.324,0.588c-0.005,0-0.011-0.024-0.016-0.024s-0.005,0.024-0.016,0.024
			c-0.384-0.024-0.771-0.273-0.923-0.558c-0.123-0.249-0.377-0.775,0.421-1.808l23.553-29.894L65.409,70.674
			c-0.852-1.203-0.564-2.971,0.63-3.883l36.922-28.36C103.586,37.938,103.938,37.864,104.213,37.864 M104.213,36.114
			c-0.788,0-1.508,0.291-2.335,0.941L64.973,65.403c-1.945,1.485-2.392,4.304-0.992,6.282L76.577,89.81l-22.751,28.876
			c-0.986,1.275-1.189,2.504-0.615,3.666c0.008,0.018,0.018,0.034,0.026,0.052c0.448,0.835,1.372,1.414,2.354,1.477
			c0.037,0.003,0.074,0.004,0.111,0.004c0.005,0,0.01,0,0.016,0s0.01,0,0.016,0c0.93,0,1.621-0.374,2.373-0.937l36.906-28.342
			c1.985-1.502,1.989-4.701,1.018-6.121c-7.262-10.591-11.246-16.345-12.538-18.11l-0.113-0.154l22.782-28.908
			c0.406-0.533,1.438-1.887,0.654-3.571c-0.01-0.021-0.021-0.042-0.031-0.063C106.295,36.728,105.285,36.114,104.213,36.114
			L104.213,36.114z"/>
	</g>
	<g>
		<g>
			<path fill="#B5D8F2" d="M79.993,42.854c2.279,0,4.57,0.219,6.832,0.646L61.963,18.639c-0.231-0.226-0.405-0.492-0.555-0.776
				L3.779,75.493c-2.483,2.488-2.483,6.534,0,9.029l9.577,9.56c0.08-0.105,0.168-0.219,0.265-0.32l40.145-40.116
				C60.774,46.683,70.079,42.854,79.993,42.854z"/>
			<path fill="#61D2B4" d="M92.453,39.933l7.291-5.596c1.43-1.131,2.891-1.671,4.469-1.671c2.367,0,4.594,1.355,5.662,3.455
				c0.02,0.041,0.041,0.082,0.053,0.12c0.643,1.34,1.363,4.063-1.008,7.153c-0.01,0.018-0.025,0.041-0.043,0.059l-5.689,7.219
				l3.201,3.206c8.572,8.649,12.365,21.14,10.16,33.092l25.217-25.228c0.123-0.119,0.252-0.219,0.393-0.308L84.514,3.787
				c-1.209-1.203-2.816-1.871-4.517-1.871c-1.699,0-3.306,0.668-4.512,1.871l-9.711,9.716c0.296,0.135,0.57,0.308,0.797,0.542
				L92.453,39.933z"/>
			<path fill="#61D2B4" d="M67.38,120.189l-7.187,5.523c-1.015,0.758-2.436,1.641-4.46,1.641c-0.005,0-0.011,0-0.016,0
				s-0.014,0-0.016,0c-0.107,0-0.215,0-0.319-0.021c-2.191-0.126-4.242-1.452-5.232-3.355c-0.018-0.049-0.052-0.106-0.067-0.154
				c-1.138-2.365-0.78-4.942,1.025-7.277l5.568-7.064l-3.431-3.432c-8.537-8.784-12.15-20.897-9.899-32.798l-25.12,25.11
				c-0.1,0.106-0.219,0.188-0.33,0.268l57.588,57.589c1.206,1.21,2.813,1.866,4.512,1.866c1.701,0,3.308-0.656,4.517-1.866
				l9.588-9.591c-0.348-0.16-0.674-0.373-0.953-0.652L67.38,120.189z"/>
			<path fill="#B5D8F2" d="M156.221,75.493l-9.529-9.529c-0.098,0.132-0.201,0.267-0.313,0.379l-40.219,40.205
				c-7.01,6.962-16.322,10.808-26.24,10.808c-2.275,0-4.563-0.226-6.837-0.646l24.672,24.661c0.277,0.273,0.49,0.604,0.652,0.954
				l57.813-57.802C158.705,82.027,158.705,77.981,156.221,75.493z"/>
		</g>
		<path fill="#F5D10A" d="M104.787,40.229L81.182,70.182l0.898,1.227c1.23,1.681,5.086,7.243,12.506,18.063
			c0.441,0.646,0.59,2.816-0.639,3.746l-36.889,28.328c-0.581,0.435-0.919,0.588-1.324,0.588c-0.005,0-0.011-0.024-0.016-0.024
			s-0.005,0.024-0.016,0.024c-0.384-0.024-0.771-0.273-0.923-0.558c-0.123-0.249-0.377-0.775,0.421-1.808l23.553-29.894
			L65.409,70.674c-0.852-1.203-0.564-2.971,0.63-3.883l36.922-28.36c0.625-0.492,0.977-0.566,1.252-0.566
			c0.426,0,0.832,0.259,1.016,0.615C105.477,39.013,105.352,39.488,104.787,40.229z"/>
	</g>
</g>
</svg>