<?xml version="1.0" encoding="utf-8"?>
<!-- Generator: Adobe Illustrator 16.0.0, SVG Export Plug-In . SVG Version: 6.00 Build 0)  -->
<!DOCTYPE svg PUBLIC "-//W3C//DTD SVG 1.1//EN" "http://www.w3.org/Graphics/SVG/1.1/DTD/svg11.dtd">
<svg version="1.1" xmlns="http://www.w3.org/2000/svg" xmlns:xlink="http://www.w3.org/1999/xlink" x="0px" y="0px" width="177px"
	 height="88px" viewBox="0 0 177 88" enable-background="new 0 0 177 88" xml:space="preserve">
<g id="R">
	<g>
		<path fill="#ffffff" d="M35.738,29.207c6.727,0,8.426,3.698,8.426,6.78c0,5.801-5.425,7.577-5.425,8.592
			c0,1.015,6.509,5.765,6.509,14.32c0,0.399-0.145,0.472-0.904,0.472h-4.086c-0.651,0-1.772,0.108-1.772-0.472
			c0-4.097-2.893-11.456-4.991-11.456c-1.085,0-3.725,1.486-3.725,3.517c0,2.755,1.338,7.723,1.338,7.976
			c0,0.617-0.904,0.436-1.266,0.436h-4.195c-0.904,0-1.989,0.688-1.989-12.906c0-17.91,1.88-17.258,2.495-17.258H35.738z
			 M38.306,36.603c0-2.284-2.133-3.118-4.086-3.118c-3.291,0-4.737,1.196-4.701,7.468c0,0.761,0.036,2.211,1.121,2.211
			C31.869,43.165,38.306,39.938,38.306,36.603z"/>
	</g>
</g>
<g id="es_ya">
	<g>
		<path fill="#ffffff" d="M49.196,48.447c0-10.583,5.846-15.831,11.691-15.831c4.799,0,8.856,2.711,8.856,7.872
			c0,9.402-14.047,7.435-14.047,11.982c0,2.056,3.316,3.542,5.497,3.542c7.154,0,7.154-5.466,7.765-5.466
			c0.654,0,0.785,2.273,0.785,2.623c0,5.555-4.275,8.747-9.51,8.747C52.424,61.917,49.196,55.444,49.196,48.447z M55.085,44.118
			c0,0.481,0.218,0.962,0.785,0.962c0.523,0,8.463-1.75,8.463-3.979c0-2.143-2.006-3.324-3.664-3.324
			C57.136,37.777,55.085,41.582,55.085,44.118z"/>
		<path fill="#ffffff" d="M73.979,54.089c0-2.056,1.048-4.68,1.396-4.68c0.219,0,1.31,6.604,7.504,6.604
			c1.789,0,3.883-0.918,3.883-3.148c0-4.504-11.779-3.323-11.779-12.026c0-5.335,4.275-8.221,8.987-8.221
			c5.454,0,8.464,3.28,8.464,4.154c0,0.831-2.443,4.373-3.447,4.373c-1.134,0-1.396-3.367-5.409-3.367
			c-1.353,0-3.185,0.612-3.185,1.924c0,4.504,12.738,4.417,12.738,13.294c0,5.686-4.711,8.922-9.946,8.922
			C78.56,61.917,73.979,59.205,73.979,54.089z"/>
		<path fill="#ffffff" d="M110.804,56.406c0-0.524,0.088-1.793,1.266-1.793c5.018,0,6.326-1.618,6.326-2.187
			c0-1.837-7.592-4.941-7.592-17.099c0-1.968-0.043-2.055,1.658-2.055h3.578c0.566,0,1.527-0.131,1.527,0.787
			c0,0.612-0.393,1.968-0.393,3.28c0,5.117,4.273,9.927,5.146,9.927c1.746,0,2.924-5.248,2.924-8.615c0-2.187-0.48-4.023-0.48-4.723
			c0-0.787,1.09-0.656,1.57-0.656h3.883c0.828,0.131,0.697,1.531,0.697,3.411c0.393,12.813-9.467,25.233-19.063,25.233
			c-1.004,0-1.049-0.656-1.049-1.662V56.406z"/>
		<path fill="#ffffff" d="M144.88,43.068c1.264-0.219,2.268-0.438,2.268-1.88c0-2.23-2.313-3.411-4.23-3.411
			c-4.451,0-3.797,3.761-4.756,3.761c-1.396,0-2.924-1.706-2.924-3.586c0-3.236,3.621-5.335,7.635-5.335
			c1.396,0,7.373-0.044,9.598,6.079c0.916,2.536,1.004,15.48,1.004,17.012c0,1.924,0.348,3.061,0.348,4.548
			c0,0.918-4.1,1.006-7.982,1.006c-10.514,0-11.256-5.423-11.256-8.047C134.583,47.704,139.993,43.899,144.88,43.068z
			 M147.583,50.722c0-1.531,0.262-3.367-1.832-3.367c-2.572,0-5.277,2.187-5.277,4.854c0,2.449,2.137,3.893,4.449,3.893
			c2.574,0,2.66-1.313,2.66-3.455V50.722z"/>
	</g>
</g>
<g id="t">
	<g>
		<path fill="#ffffff" d="M105.267,30.114c0,1.058-1.172,3.448-1.172,3.918c0,0.705,0.195,1.175,0.781,1.175
			c0.508,0,0.977-0.196,1.486-0.196c1.484,0,1.523,1.058,1.523,2.39c0,0.549,0,2.038-0.82,2.038c-0.313,0-1.096-0.353-1.799-0.353
			c-2.15,0-2.15,2.508-2.15,5.995c0,10.423,2.189,12.147,2.189,12.813c0,0.588-4.535,2.782-5.434,2.782
			c-1.486,0-1.877-8.738-1.877-10.894c0-4.819,0.234-6.7,0.234-7.445c0-1.176,0.352-3.252-1.406-3.252
			c-0.705,0-1.096,0.47-1.525,0.47c-0.508,0-0.469-0.509-0.469-1.215c0-2.978,0.859-3.331,2.346-3.331
			c0.156,0,0.43,0.157,0.742,0.157c1.213,0,1.33-1.92,1.525-3.292c0.195-1.489,4.574-2.586,5.355-2.586
			C105.071,29.291,105.267,29.369,105.267,30.114z"/>
	</g>
</g>
<g id="Layer_5">
	<path fill="none" stroke="#ffffff" stroke-width="3" stroke-miterlimit="10" d="M175.485,70.582
		c-0.006,8.819-6.604,15.965-14.738,15.96L16.29,86.46C8.154,86.455,1.562,79.302,1.565,70.482l0.033-53.009
		C1.6,8.653,8.202,1.508,16.337,1.513l144.456,0.082c8.135,0.004,14.727,7.159,14.721,15.978L175.485,70.582z"/>
</g>
</svg>
