<?xml version="1.0" encoding="UTF-8"?>
<svg width="250px" height="250px" viewBox="0 0 250 250" version="1.1" xmlns="http://www.w3.org/2000/svg" xmlns:xlink="http://www.w3.org/1999/xlink">
    <!-- Generator: Sketch 55.2 (78181) - https://sketchapp.com -->
    <title>Group</title>
    <desc>Created with Sketch.</desc>
    <defs>
        <linearGradient x1="254.43619%" y1="69.5360768%" x2="-6.21714286%" y2="45.9026727%" id="linearGradient-1">
            <stop stop-color="#FFFFFF" offset="0%"></stop>
            <stop stop-color="#C2C1C1" offset="100%"></stop>
        </linearGradient>
        <linearGradient x1="209.810781%" y1="61.8465949%" x2="-0.673254563%" y2="45.9453495%" id="linearGradient-2">
            <stop stop-color="#FFFFFF" offset="0%"></stop>
            <stop stop-color="#A2A2A1" offset="100%"></stop>
        </linearGradient>
        <linearGradient x1="272.776488%" y1="65.5929202%" x2="8.69762081%" y2="46.5514587%" id="linearGradient-3">
            <stop stop-color="#FFFFFF" offset="0%"></stop>
            <stop stop-color="#B3B3B3" offset="100%"></stop>
        </linearGradient>
    </defs>
    <g id="Page-1" stroke="none" stroke-width="1" fill="none" fill-rule="evenodd">
        <g id="Group">
            <g id="logo" transform="translate(14.000000, 176.000000)" fill="#121212" fill-rule="nonzero">
                <g id="Shape-2">
                    <path d="M50.1905004,25.4640528 C50.1760596,21.1525875 49.8840572,18.510711 49.3094586,17.0562007 C48.8224258,15.7390559 47.8757437,14.6339121 46.6374463,13.9369301 C45.2245701,13.2379326 43.6544481,12.9013753 42.0733605,12.9586134 C38.924719,12.9586134 36.3971399,14.5749628 32.3096833,18.0345174 L32.3096833,22.7276017 L32.3096833,47.2280554 L25.0880286,47.2280554 L25.0880286,25.4640528 C25.0880286,21.153788 24.7943479,18.3180875 24.2069866,16.9569512 C23.7081137,15.6805769 22.774079,14.6133538 21.563861,13.9369301 C20.1736155,13.2481148 18.6282176,12.9164094 17.0719919,12.9727919 C13.7933606,12.9727919 11.294668,14.8159973 7.22165473,18.1621239 L7.22165473,47.2280554 L0,47.2280554 L0,7.20144365 L4.34470334,7.20144365 L5.7773238,12.4198303 C9.45878204,9.16286137 14.2250843,7.33768084 19.1807151,7.20144365 C24.4814095,7.28721224 28.3522165,8.70506252 30.2154035,12.9586134 C35.2127885,8.70506252 39.6757711,7.28721224 44.1820837,7.20144365 C53.6857813,7.28721224 57.3977118,12.1646172 57.3977118,21.9336057 L57.3977118,47.2280554 L50.1760572,47.2280554 L50.1905004,25.4640528 Z M166.453364,14.1775107 L166.453364,17.2080973 L176.497964,17.2080973 L176.497964,14.1775107 L166.453364,14.1775107 Z M67.4423114,47.1422868 L67.4423114,7.14054239 L74.6170254,7.14054239 L74.6170254,47.1422868 L67.4423114,47.1422868 Z M127.73729,0 L132.04399,0 L134.339344,6.93582994 L143.48695,6.92870808 L143.51565,12.8368501 L134.339344,12.843972 L134.339344,37.1706243 C134.339344,41.4676535 139.741751,41.1066916 143.51565,41.1066916 L143.51565,46.9592375 C142.240011,47.1932732 132.768253,47.9709085 129.426083,43.67473 C128.272521,42.1918899 127.709909,40.5037585 127.709909,37.1706243 C127.709909,33.8374904 127.709909,31.8882683 127.709909,30.0555271 L127.73729,0 Z M84.6680892,38.9046546 C84.6680892,38.9046546 94.483098,41.2435908 98.9601195,41.2435908 C103.437141,41.2435908 109.894384,41.7296283 109.894384,34.5820185 C109.894384,24.5753649 84.1945581,37.8985095 84.6680892,17.9852688 C84.8976801,8.46465261 94.18176,7.14949242 99.9932783,7.14949242 C105.133162,7.07078042 110.267815,7.51142033 115.318467,8.46465261 L115.318467,15.0404536 C115.318467,15.0404536 107.627174,12.7675137 103.2219,12.7675137 C98.8166252,12.7675137 91.3405733,13.0248276 91.3405733,17.999564 C91.3405733,22.9743003 93.2346977,23.7176518 100.854244,23.7176518 C108.47379,23.7176518 117.040399,24.6611362 117.040399,35.1538273 C117.040399,45.1604809 108.430742,46.5900029 101.327775,47.0045643 C95.6454016,47.3047639 89.4320993,46.0522643 84.6680892,45.0658942 L84.6680892,38.9046546 Z M176.497964,47.226355 L166.453364,47.226355 L166.453364,7.19974324 L176.497964,7.19974324 L176.497964,47.226355 Z M182.237735,27.1752182 C182.237735,20.9473337 183.988365,16.0743707 187.489626,12.5563291 C191.005236,9.0477957 195.91797,7.20144365 202.111693,7.20144365 C208.439651,7.20144365 213.275548,9.0477957 216.762459,12.5563291 C220.24937,16.0648626 222,20.9425797 222,27.1894805 C222,33.4363815 220.24937,38.2713116 216.762459,41.779845 C213.275548,45.2883784 208.436411,47.2280554 202.111693,47.2280554 C195.811908,47.2280554 190.919139,45.2598537 187.432228,41.7655828 C183.978799,38.2665575 182.237735,33.4031027 182.237735,27.1752182 Z M202.255187,38.1077081 C207.894512,38.1077081 211.266628,35.1343025 211.266628,26.5571708 C211.266628,17.9800391 206.961799,15.950118 202.255187,15.950118 C197.548575,15.950118 193.616831,17.8084965 193.616831,26.5571708 C193.64553,35.1343025 196.615862,38.1077081 202.255187,38.1077081 Z M154.500291,48 C157.519705,48 159.967423,45.5615285 159.967423,42.5535214 C159.967423,39.5455143 157.519705,37.1070428 154.500291,37.1070428 C151.480877,37.1070428 149.033159,39.5455143 149.033159,42.5535214 C149.064359,45.5225415 151.519939,47.9767831 154.500291,48 L154.500291,48 Z" id="Shape"></path>
                </g>
            </g>
            <g id="logo-solo" transform="translate(62.000000, 27.000000)" fill-rule="nonzero">
                <ellipse id="Oval" fill="#E9E9E9" cx="65" cy="63.5" rx="65" ry="63.5"></ellipse>
                <path d="M85.6097561,103.125993 C48.2260743,100.461949 66.5706446,98.6275649 12.6829268,88.9 C27.5374274,98.9472502 51.6293264,123.837029 85.6097561,103.125993 L85.6097561,103.125993 Z" id="Path" fill="url(#linearGradient-1)"></path>
                <path d="M123.658537,59.3732357 C88.1065389,52.5060789 53.3187268,28.7769924 16.7941292,36.4260532 C16.2644097,36.6045313 15.6391669,36.6980198 15.9257365,36.9699864 C39.224713,40.9305002 88.2194299,75.1387999 123.658537,59.3732357 Z" id="Path" fill="url(#linearGradient-2)"></path>
                <path d="M114.146341,90.1781998 C95.0472966,86.4809202 53.2193235,57.8907493 6.34146341,69.3810019 C47.4061848,77.8114369 84.3883966,98.3855231 114.146341,90.1781998 Z" id="Path" fill="url(#linearGradient-3)"></path>
                <path d="M117.317073,41.275 C96.8389272,27.3477848 71.0846774,2.06893529 47.5609756,25.3207072 C76.2320958,28.5719807 79.9811321,32.9838553 117.317073,41.275 Z" id="Path" fill="#A4A4A4"></path>
                <path d="M12.6829268,87.8164979 C55.3168461,87.9223852 79.7073738,57.1417656 123.658537,60.5953202 C88.5148253,77.6431732 45.5193097,109.808473 12.6829268,87.8164979 Z" id="Path" fill="#121212"></path>
                <path d="M117.317073,42.0584266 C74.3526622,38.8132447 51.966396,72.1343087 6.34146341,69.7252579 C23.6649894,62.2000784 74.6798461,17.9099685 117.317073,42.0584266 Z" id="Path" fill="#171717"></path>
                <path d="M88.7804878,17.6797101 C63.8401058,16.8722737 38.3846792,37.3569356 15.8536585,34.684321 C32.0906591,25.6168101 62.2251353,2.6371697 88.7804878,17.6797101 Z" id="Path" fill="#212121"></path>
                <path d="M44.3902439,109.544988 C69.8237585,109.488714 91.0739604,88.4502636 114.146341,92.6225814 C95.3171569,102.72779 72.3217694,123.693888 44.3902439,109.544988 Z" id="Path" fill="#010101"></path>
            </g>
            <rect id="Rectangle" x="0" y="0" width="250" height="250"></rect>
        </g>
    </g>
</svg>