<?xml version="1.0" encoding="UTF-8"?><svg id="a" xmlns="http://www.w3.org/2000/svg" viewBox="0 0 917.25 1019"><defs><style>.b{fill:#4d4d4d;}.c{fill:#3da6ff;}</style></defs><path class="b" d="M800.07,305.53c-27.87-59.15-68.57-125.96-118.1-170.15-48.8-43.53-86.56-43.25-134.37,.78-19.97,18.4-37.09,39.49-51.62,62.29-109.79,172.31-184.37,356.53-188.45,564.14-.71,36.02,.92,72.04,10.04,107.2,18.93,73.02,62.21,99.41,136.57,84.6,49.27-9.81,94.41-30.88,141.86-51.62-35.05,52.97-130.56,109.73-189.39,115.32-65.45,6.23-114.87-19.43-150.59-73.21-37.2-56.02-49.72-119.87-53.33-185.18-7.17-129.73,13.59-255.47,64.9-375.01,42.34-98.64,93.15-192.68,166.55-272.61,23.14-25.19,48.8-47.42,78.6-64.46,74.67-42.69,149.28-30,204.42,35.78,48.51,57.87,70.26,126.89,80.42,200.37l2.5,21.78Z"/><path class="c" d="M260.09,996.24c-75.45,31.88-150.22,6.79-196.89-64.21-37.31-56.77-53-120.89-59.16-186.97C-18.15,506.86,52.01,294.63,190.53,103.06c28.94-40.02,65.48-73.32,112.76-91.76,52.81-20.6,101.93-12.66,147.35,20.84,10.69,7.88,14.08,13.38,14.08,13.38-20.48,10.15-50.91,40.96-50.91,40.96-43.96-24.8-77.43,2.88-95.63,19.32-24.8,22.41-43.7,49.79-59.41,78.82-97.8,180.75-158.66,371.09-147.51,579.65,1.98,37.12,7.6,73.7,20.6,108.62,13.9,37.37,34.33,70.29,91.44,75.3,0,0,17.61,33.08,36.79,48.06Z"/><path class="c" d="M705.13,449.57l-25.55,34.44c-48.35-14.9-117.11,9.02-159.94,70.89,22.04-90.68,105.26-128.99,185.49-105.33Z"/><path class="c" d="M914.22,629.14c-21.22,174.23-163.83,218.65-285.51,205.25-153.61-16.89-218.23-134.91-207.65-274.69,11.66-154.03,128.05-226.71,280.28-213.18,9.98,.84,21.28,1.86,30.72,3.73,14.55,2.89,38.96,9.14,38.96,9.14l-24.29,34.27-9.26,13.11-20.56-3.67c-27.9-5.65-55.91-6.61-83.69-2.52-103.11,15.15-157.51,75.63-159.2,181.08-1.2,75.21,20.5,142.3,94.09,177.53,76.65,36.73,154.09,35.47,224.55-15.63,72.44-52.6,91.86-183.66,42.62-265.61l-21.46-35.77,22.85-43.77c72.74,63.31,88.2,143.69,77.55,230.74Z"/><path class="c" d="M833.12,326.44h-.06c-63.55,88.08-127.27,176.09-190.64,264.23l-3.79,5.29c-1.14,1.62-2.34,3.25-3.49,4.87-18.7,26.03-16.47,45.21,5.41,58.62,23.69,14.55,47.85,7.09,60.84-21.34,46.47-101.54,92.1-203.5,137.97-305.29l18.16-40.22-24.41,33.85Zm-156.79,309.86c-3.07,4.15-7.51,6.61-13.65,6.25-9.62-.6-16.83-6.55-16.29-17.43,.48-9.08,7.7-16.17,16.77-16.29,7.15-.06,11.42,2.95,14.13,7.57,3.55,6.13,3.25,14.13-.96,19.9Z"/></svg>