<?xml version="1.0" standalone="no"?>
<!DOCTYPE svg PUBLIC "-//W3C//DTD SVG 20010904//EN"
 "http://www.w3.org/TR/2001/REC-SVG-20010904/DTD/svg10.dtd">
<svg version="1.0" xmlns="http://www.w3.org/2000/svg"
 width="300.000000pt" height="248.000000pt" viewBox="0 0 300.000000 248.000000"
 preserveAspectRatio="xMidYMid meet">
<metadata>
Created by potrace 1.10, written by Peter Selinger 2001-2011
</metadata>
<g transform="translate(0.000000,248.000000) scale(0.100000,-0.100000)"
fill="#000000" stroke="none">
<path d="M555 2111 c-51 -23 -93 -65 -116 -116 -17 -36 -19 -69 -19 -304 0
-257 0 -263 -20 -258 -19 5 -20 -2 -22 -319 l-3 -324 22 0 c21 0 22 -4 25
-148 3 -143 4 -150 31 -190 15 -23 46 -54 69 -69 l42 -28 916 -3 916 -2 46 29
c91 58 123 145 116 318 -3 84 -1 93 15 93 17 0 18 10 15 125 -2 69 0 125 4
125 12 0 38 -57 38 -84 0 -41 21 -42 56 -3 44 48 52 94 25 150 -12 24 -21 46
-21 50 0 15 49 6 81 -16 19 -13 40 -22 47 -19 33 11 -1 124 -47 159 -26 20
-105 16 -134 -7 -42 -34 -47 -27 -47 69 0 71 -3 90 -15 93 -13 3 -15 42 -17
263 -3 244 -4 262 -24 300 -29 54 -70 94 -119 116 -38 18 -88 19 -930 19 -842
0 -892 -1 -930 -19z m1835 -21 c0 -6 3 -9 8 -9 19 3 31 -3 60 -31 65 -61 66
-69 68 -347 l1 -252 -1041 2 -1041 2 -2 240 c-1 231 0 242 22 292 16 36 36 60
66 80 l43 28 450 5 c644 7 1366 2 1366 -10z m163 -667 c4 -2 7 -41 7 -86 1
-113 20 -135 84 -94 66 44 138 19 151 -50 6 -37 5 -38 -50 -19 -66 23 -101
-15 -64 -71 21 -31 24 -68 9 -107 -13 -35 -25 -33 -47 11 -24 46 -46 61 -66
45 -10 -9 -14 -41 -16 -119 -1 -60 -4 -116 -7 -125 -5 -17 -65 -18 -1067 -18
-1038 0 -1062 0 -1074 19 -9 14 -12 97 -11 298 0 268 4 306 32 326 11 8 2105
-1 2119 -10z m-1062 -665 c7 -10 9 -11 9 0 0 10 21 13 83 12 45 0 273 -1 506
-1 233 1 427 -2 432 -4 12 -8 8 -213 -5 -255 -17 -55 -84 -115 -142 -128 -34
-8 -314 -10 -914 -9 l-865 2 -45 25 c-24 14 -58 45 -75 68 -29 42 -30 49 -33
162 -2 90 0 121 11 131 20 20 1026 17 1038 -3z"/>
<path d="M973 1251 c-39 -24 -42 -34 -45 -147 -2 -105 11 -147 52 -164 23 -10
121 -14 258 -11 23 1 43 10 63 30 27 28 29 34 29 113 0 113 -8 120 -177 164
-71 19 -132 34 -138 34 -5 0 -24 -9 -42 -19z m185 -40 c62 -16 122 -37 133
-47 27 -25 28 -151 0 -185 -19 -23 -24 -24 -159 -24 -184 0 -182 -1 -182 142
0 157 13 164 208 114z"/>
<path d="M1885 1254 c-27 -8 -72 -19 -100 -25 -125 -26 -145 -49 -145 -160 0
-67 3 -82 23 -105 21 -24 33 -28 103 -33 43 -3 112 -4 151 -1 62 4 77 9 100
33 27 26 28 33 29 125 2 111 -4 134 -41 158 -34 22 -60 24 -120 8z m113 -30
c20 -14 22 -23 22 -123 0 -148 2 -146 -182 -146 -135 0 -140 1 -159 24 -28 34
-27 160 0 185 21 19 215 74 266 75 17 1 41 -6 53 -15z"/>
<path d="M1491 624 c0 -11 3 -14 6 -6 3 7 2 16 -1 19 -3 4 -6 -2 -5 -13z"/>
<path d="M1491 564 c0 -11 3 -14 6 -6 3 7 2 16 -1 19 -3 4 -6 -2 -5 -13z"/>
</g>
</svg>