<svg id="svg" version="1.1" xmlns="http://www.w3.org/2000/svg" xmlns:xlink="http://www.w3.org/1999/xlink" width="400" height="330" viewBox="0, 0, 400,330"><g id="svgg"><path id="path0" d="M139.109 47.202 C 75.998 47.400,77.253 47.368,75.778 48.843 C 75.595 49.025,75.171 49.175,74.834 49.175 C 74.183 49.175,71.526 50.493,71.342 50.908 C 71.282 51.044,71.082 51.155,70.899 51.155 C 70.716 51.155,70.226 51.415,69.810 51.733 C 69.394 52.050,68.703 52.533,68.275 52.805 C 67.058 53.580,61.386 59.397,61.386 59.871 C 61.386 59.960,60.963 60.672,60.446 61.452 C 59.626 62.689,58.684 64.547,57.717 66.832 C 57.563 67.195,57.277 68.160,57.081 68.977 C 56.885 69.794,56.583 71.056,56.410 71.782 C 56.218 72.587,56.129 85.991,56.183 106.106 L 56.271 139.109 198.439 139.192 L 340.607 139.275 340.480 107.344 C 340.358 76.547,340.188 71.014,339.311 69.376 C 339.109 68.999,338.944 68.443,338.944 68.141 C 338.944 67.839,338.705 67.049,338.414 66.387 C 336.836 62.802,336.455 62.046,336.226 62.046 C 336.087 62.046,335.974 61.846,335.974 61.602 C 335.974 61.357,335.714 60.846,335.396 60.465 C 335.078 60.084,334.447 59.284,333.993 58.686 C 332.393 56.577,330.508 54.675,328.713 53.358 C 327.715 52.626,326.820 51.914,326.726 51.776 C 326.632 51.639,326.186 51.369,325.736 51.177 C 325.286 50.984,324.658 50.678,324.340 50.496 C 324.022 50.314,323.502 50.016,323.185 49.833 C 322.582 49.486,322.361 49.394,320.462 48.692 C 315.623 46.905,321.038 47.047,257.096 47.030 C 224.876 47.022,171.782 47.099,139.109 47.202 M56.120 241.337 C 56.128 250.276,56.267 258.185,56.428 258.911 C 57.335 262.984,57.551 263.618,59.129 266.832 C 60.128 268.865,61.057 270.395,61.748 271.143 C 62.093 271.518,62.376 272.001,62.376 272.216 C 62.376 272.431,62.529 272.607,62.717 272.607 C 62.904 272.607,63.149 272.848,63.262 273.142 C 63.516 273.803,65.592 275.908,65.990 275.908 C 66.150 275.908,66.331 276.022,66.392 276.161 C 66.537 276.496,69.337 278.716,69.967 278.995 C 70.239 279.116,70.908 279.509,71.452 279.868 C 71.997 280.227,72.665 280.611,72.937 280.721 C 73.210 280.832,73.878 281.112,74.422 281.345 C 76.220 282.112,77.702 282.573,79.253 282.847 C 80.095 282.995,81.358 283.276,82.059 283.471 C 84.330 284.101,312.655 283.959,315.444 283.325 C 318.156 282.709,320.632 281.959,321.947 281.355 C 322.492 281.105,323.160 280.815,323.432 280.710 C 323.705 280.606,324.373 280.227,324.917 279.868 C 325.462 279.509,326.130 279.115,326.403 278.992 C 327.732 278.391,332.492 274.029,334.161 271.880 C 334.682 271.210,335.758 269.545,336.189 268.742 C 336.405 268.341,336.810 267.598,337.089 267.092 C 337.959 265.514,338.944 263.097,338.944 262.538 C 338.944 262.243,339.112 261.689,339.317 261.306 C 340.064 259.909,340.352 254.642,340.478 240.017 L 340.607 225.083 198.356 225.083 L 56.106 225.083 56.120 241.337 " stroke="none" fill="#313030" fill-rule="evenodd"></path><path id="path1" d="M55.186 139.333 C 54.875 139.457,53.870 139.568,52.954 139.581 C 52.037 139.594,51.109 139.782,50.891 140.000 C 50.587 140.304,50.495 150.198,50.495 182.524 L 50.495 224.652 54.000 224.867 C 58.281 225.129,344.161 225.161,344.584 224.899 C 344.758 224.792,344.884 217.861,344.884 208.386 C 344.884 188.963,344.758 189.398,348.737 195.133 C 350.043 197.016,351.155 200.776,351.155 203.309 C 351.155 205.550,352.080 206.931,353.581 206.931 C 354.300 206.931,357.805 204.232,358.823 202.894 C 359.320 202.241,359.914 201.509,360.144 201.266 C 360.373 201.024,360.905 200.083,361.324 199.175 C 361.744 198.267,362.234 197.256,362.412 196.927 C 363.656 194.637,363.560 187.418,362.252 184.983 C 361.960 184.439,361.719 183.876,361.718 183.732 C 361.717 183.588,361.572 183.291,361.396 183.072 C 357.769 178.552,357.672 178.324,358.614 176.504 L 359.142 175.483 362.108 175.694 C 363.740 175.810,365.470 176.105,365.953 176.351 C 366.436 176.596,367.545 177.154,368.417 177.590 C 369.289 178.026,370.571 178.903,371.265 179.538 C 373.758 181.819,374.505 181.981,375.933 180.553 C 377.470 179.017,377.239 171.281,375.568 168.317 C 375.415 168.045,374.887 167.048,374.396 166.102 C 372.888 163.199,368.123 159.076,366.277 159.076 C 366.019 159.076,365.624 158.892,365.399 158.667 C 365.123 158.390,363.791 158.256,361.290 158.254 C 356.260 158.250,353.788 159.211,350.345 162.510 C 348.915 163.880,345.830 164.730,345.142 163.944 C 345.103 163.899,344.991 158.441,344.895 151.815 L 344.719 139.769 342.248 139.523 C 339.150 139.214,55.958 139.027,55.186 139.333 M140.099 165.045 C 140.825 165.234,142.236 165.594,143.234 165.846 C 147.980 167.040,148.816 167.270,149.149 167.476 C 149.346 167.597,150.212 167.825,151.074 167.982 C 152.736 168.285,154.569 168.726,157.261 169.472 C 158.168 169.723,159.876 170.172,161.056 170.470 C 162.236 170.768,163.924 171.222,164.807 171.479 C 165.690 171.737,166.676 171.947,166.999 171.947 C 169.037 171.947,172.701 174.595,173.848 176.898 C 174.750 178.709,174.753 178.731,174.851 186.858 C 174.985 197.977,174.507 199.415,169.802 202.033 L 167.822 203.135 151.080 203.229 C 134.839 203.320,134.293 203.303,132.863 202.652 C 132.053 202.282,131.285 201.980,131.158 201.980 C 130.558 201.980,128.045 199.537,127.348 198.276 L 126.568 196.865 126.568 183.828 L 126.568 170.792 127.372 169.472 C 128.761 167.193,130.469 165.885,133.333 164.908 C 134.227 164.603,138.751 164.695,140.099 165.045 M264.851 165.625 C 267.153 166.845,269.307 169.357,269.307 170.822 C 269.307 171.238,269.455 171.670,269.637 171.782 C 270.276 172.177,270.043 194.929,269.380 196.923 C 268.654 199.105,267.265 200.664,264.816 202.041 L 262.871 203.135 246.114 203.229 C 232.355 203.307,229.166 203.241,228.292 202.863 C 227.707 202.610,226.838 202.245,226.361 202.052 C 222.125 200.338,221.617 198.776,221.617 187.459 L 221.617 177.723 222.706 176.166 C 224.330 173.844,226.352 172.596,229.868 171.748 C 230.776 171.529,232.483 171.108,233.663 170.813 C 234.843 170.519,236.442 170.138,237.216 169.966 C 237.990 169.795,238.908 169.503,239.257 169.316 C 239.605 169.130,240.235 168.978,240.655 168.979 C 241.075 168.979,242.087 168.770,242.904 168.512 C 243.721 168.255,245.058 167.875,245.875 167.668 C 246.691 167.461,248.177 167.085,249.175 166.832 C 250.173 166.579,251.733 166.207,252.640 166.005 C 253.548 165.803,254.587 165.504,254.950 165.341 C 256.942 164.445,262.949 164.617,264.851 165.625 " stroke="none" fill="#bb2326" fill-rule="evenodd"></path><path id="path2" d="M0.000 165.017 L 0.000 330.033 200.000 330.033 L 400.000 330.033 400.000 165.017 L 400.000 0.000 200.000 0.000 L 0.000 0.000 0.000 165.017 M313.534 46.213 C 314.168 46.399,315.503 46.680,316.502 46.837 C 318.417 47.138,320.015 47.628,321.561 48.386 C 322.075 48.639,322.688 48.845,322.924 48.845 C 323.159 48.845,323.536 49.068,323.762 49.340 C 323.988 49.612,324.384 49.835,324.641 49.835 C 325.126 49.835,327.144 51.132,327.338 51.568 C 327.398 51.704,327.668 51.815,327.938 51.815 C 328.583 51.815,335.314 58.538,335.314 59.182 C 335.314 59.457,335.425 59.730,335.561 59.791 C 335.930 59.955,337.058 61.702,337.763 63.201 C 338.105 63.927,338.584 64.916,338.829 65.397 C 339.074 65.879,339.274 66.555,339.274 66.899 C 339.274 67.243,339.426 67.677,339.612 67.863 C 339.798 68.048,340.095 69.043,340.272 70.074 C 340.449 71.104,340.742 72.801,340.922 73.845 C 341.124 75.012,341.251 87.895,341.252 107.327 L 341.254 138.911 343.152 139.010 L 345.050 139.109 345.136 151.031 L 345.223 162.953 346.945 163.119 C 348.648 163.282,348.688 163.265,350.633 161.504 C 360.433 152.636,376.092 159.476,377.374 173.185 C 378.148 181.465,375.710 184.191,371.098 180.199 C 369.841 179.111,368.644 178.220,368.440 178.219 C 368.235 178.218,367.883 177.995,367.657 177.723 C 367.431 177.450,366.984 177.228,366.664 177.228 C 366.344 177.228,365.657 177.006,365.137 176.735 C 364.076 176.182,359.566 176.041,359.251 176.551 C 358.708 177.429,359.000 179.222,359.819 180.041 C 363.811 184.033,365.175 192.867,362.568 197.855 C 362.283 198.399,362.049 198.968,362.048 199.119 C 362.045 199.530,359.902 202.660,358.817 203.838 C 354.237 208.810,351.014 208.448,350.464 202.901 C 349.988 198.096,347.302 192.409,345.509 192.409 C 345.350 192.409,345.182 199.741,345.135 208.828 L 345.050 225.248 343.234 225.413 L 341.419 225.578 341.254 241.749 C 341.131 253.825,340.985 258.103,340.677 258.642 C 340.450 259.038,340.263 259.855,340.262 260.457 C 340.261 261.059,340.038 261.977,339.767 262.496 C 339.496 263.016,339.274 263.711,339.274 264.041 C 339.274 264.370,339.051 264.862,338.779 265.134 C 338.507 265.407,338.284 265.854,338.284 266.129 C 338.284 266.590,337.075 268.927,336.639 269.307 C 336.535 269.398,336.306 269.792,336.129 270.183 C 334.860 272.993,325.851 281.188,324.030 281.188 C 323.848 281.188,323.305 281.388,322.823 281.633 C 320.024 283.055,318.031 283.687,314.851 284.162 C 312.453 284.520,85.000 284.529,82.013 284.171 C 79.438 283.862,77.255 283.334,75.693 282.640 C 75.121 282.386,74.513 282.178,74.342 282.178 C 74.171 282.178,73.377 281.809,72.577 281.357 C 71.777 280.906,70.899 280.435,70.627 280.312 C 68.537 279.362,61.716 273.276,61.716 272.360 C 61.716 272.133,61.563 271.947,61.376 271.947 C 61.189 271.947,60.940 271.687,60.823 271.370 C 60.705 271.052,60.281 270.347,59.879 269.802 C 58.931 268.517,56.766 263.853,56.766 263.095 C 56.766 262.772,56.599 262.342,56.396 262.138 C 55.617 261.360,55.357 256.736,55.226 241.380 L 55.092 225.500 52.838 225.338 C 51.599 225.250,50.416 225.073,50.210 224.945 C 49.627 224.585,49.677 139.816,50.260 139.332 C 50.494 139.138,51.645 138.934,52.818 138.879 L 54.950 138.779 55.147 105.941 C 55.276 84.413,55.469 72.420,55.706 71.122 C 56.071 69.123,56.930 66.457,57.406 65.844 C 57.548 65.661,57.762 65.104,57.881 64.606 C 58.152 63.472,60.998 58.746,61.411 58.746 C 61.579 58.746,61.718 58.560,61.720 58.333 C 61.730 57.105,68.680 51.082,71.503 49.855 C 71.893 49.685,72.311 49.388,72.430 49.195 C 72.549 49.003,72.922 48.845,73.260 48.845 C 73.598 48.845,74.294 48.639,74.808 48.386 C 76.282 47.664,77.916 47.146,79.703 46.836 C 80.611 46.679,81.873 46.413,82.508 46.246 C 84.181 45.806,312.036 45.773,313.534 46.213 M133.993 165.327 C 127.690 166.604,127.063 168.296,127.063 184.013 L 127.063 196.445 127.905 197.975 C 128.861 199.711,130.821 201.326,133.003 202.178 C 134.768 202.866,162.567 203.298,165.560 202.684 C 169.913 201.790,171.208 201.050,173.102 198.373 L 174.092 196.973 174.208 188.777 C 174.382 176.419,173.581 174.516,167.476 172.787 C 163.054 171.534,162.160 171.299,161.056 171.094 C 160.421 170.977,159.752 170.770,159.571 170.635 C 159.389 170.499,158.539 170.297,157.680 170.185 C 156.822 170.073,155.857 169.836,155.535 169.658 C 155.214 169.479,154.208 169.171,153.300 168.972 C 151.352 168.546,148.782 167.909,146.040 167.174 C 143.787 166.569,140.720 165.799,138.779 165.350 C 137.261 164.999,135.647 164.991,133.993 165.327 M256.106 165.657 C 255.833 165.816,254.868 166.105,253.960 166.298 C 251.578 166.805,248.759 167.511,248.185 167.743 C 247.683 167.947,245.870 168.380,242.574 169.084 C 241.576 169.297,240.611 169.566,240.429 169.681 C 240.248 169.795,239.579 169.986,238.944 170.104 C 238.309 170.222,237.046 170.527,236.139 170.783 C 235.231 171.039,233.523 171.492,232.343 171.788 C 226.918 173.152,226.349 173.380,224.719 174.846 C 223.830 175.645,223.102 176.495,223.102 176.736 C 223.102 176.976,222.917 177.234,222.690 177.310 C 222.375 177.415,222.254 179.736,222.180 187.073 L 222.084 196.698 222.955 198.186 C 223.434 199.003,224.221 199.967,224.702 200.328 C 225.184 200.688,225.777 201.152,226.021 201.358 C 226.479 201.747,227.731 202.119,230.466 202.681 C 233.266 203.257,260.905 202.873,262.754 202.233 C 264.928 201.481,266.703 200.282,267.835 198.802 L 268.812 197.525 268.905 184.108 L 268.998 170.691 267.982 169.185 C 265.836 166.006,258.984 163.970,256.106 165.657 " stroke="none" fill="#fbfbfb" fill-rule="evenodd"></path><path id="path3" d="M82.363 46.246 C 81.648 46.413,81.029 46.584,80.988 46.625 C 80.947 46.666,133.697 46.700,198.210 46.700 C 291.696 46.700,315.190 46.617,313.942 46.293 C 312.007 45.792,84.501 45.745,82.363 46.246 M77.558 47.392 L 76.733 47.896 77.558 47.682 C 78.012 47.564,78.903 47.349,79.538 47.204 L 80.693 46.941 79.538 46.914 C 78.903 46.900,78.012 47.115,77.558 47.392 M316.997 47.203 C 317.541 47.353,318.358 47.569,318.812 47.685 L 319.637 47.896 318.812 47.392 C 318.358 47.115,317.541 46.898,316.997 46.910 L 316.007 46.932 316.997 47.203 M74.733 48.339 C 73.910 48.962,74.223 48.970,75.622 48.363 C 76.441 48.007,76.554 47.877,76.053 47.868 C 75.679 47.861,75.085 48.073,74.733 48.339 M320.747 48.363 C 322.147 48.970,322.460 48.962,321.637 48.339 C 321.284 48.073,320.690 47.861,320.316 47.868 C 319.815 47.877,319.928 48.007,320.747 48.363 M72.430 49.195 C 72.311 49.388,71.893 49.685,71.503 49.855 C 69.582 50.690,65.829 53.574,63.617 55.916 C 60.815 58.883,61.312 58.835,64.274 55.852 C 66.682 53.428,69.774 51.130,72.767 49.543 C 73.773 49.009,73.914 48.845,73.364 48.845 C 72.969 48.845,72.549 49.003,72.430 49.195 M323.267 49.505 C 323.812 49.866,324.372 50.162,324.512 50.163 C 324.651 50.164,325.357 50.538,326.079 50.994 C 326.802 51.450,327.386 51.710,327.379 51.572 C 327.360 51.226,325.138 49.835,324.605 49.835 C 324.368 49.835,323.988 49.612,323.762 49.340 C 323.536 49.068,323.110 48.846,322.814 48.847 C 322.469 48.848,322.630 49.083,323.267 49.505 M330.760 54.760 C 333.667 57.511,335.929 60.417,337.584 63.526 C 337.969 64.250,338.277 64.621,338.270 64.352 C 338.262 64.082,337.891 63.267,337.447 62.541 C 337.002 61.815,336.465 60.887,336.253 60.479 C 336.041 60.070,335.743 59.736,335.591 59.736 C 335.438 59.736,335.314 59.499,335.314 59.210 C 335.314 58.608,328.631 51.815,328.038 51.815 C 327.824 51.815,329.048 53.140,330.760 54.760 M59.601 61.223 C 58.774 62.586,58.000 64.108,57.881 64.606 C 57.762 65.104,57.550 65.660,57.411 65.842 C 56.837 66.587,55.778 70.189,55.814 71.276 C 55.835 71.917,55.912 72.145,55.986 71.782 C 56.840 67.577,58.340 63.844,60.463 60.644 C 61.155 59.600,61.583 58.746,61.413 58.746 C 61.244 58.746,60.429 59.861,59.601 61.223 M338.294 65.198 C 338.289 65.389,338.418 65.686,338.582 65.858 C 338.746 66.031,338.951 66.469,339.039 66.832 C 339.193 67.476,339.198 67.475,339.236 66.812 C 339.257 66.439,339.056 65.844,338.789 65.492 C 338.523 65.140,338.300 65.007,338.294 65.198 M339.419 68.317 C 340.212 71.100,340.257 71.189,340.119 69.680 C 340.046 68.886,339.806 68.069,339.585 67.864 C 339.275 67.576,339.237 67.678,339.419 68.317 M340.478 72.442 C 340.590 73.168,340.741 88.382,340.814 106.250 C 340.958 141.826,340.795 139.516,343.178 139.669 L 344.719 139.769 344.895 151.815 C 344.991 158.441,345.103 163.899,345.142 163.944 C 345.875 164.782,348.845 163.874,350.540 162.294 C 351.563 161.341,353.122 160.205,354.005 159.770 C 354.888 159.334,355.908 158.821,356.271 158.629 C 357.587 157.934,363.343 157.976,365.563 158.698 C 372.627 160.994,376.903 167.506,376.899 175.961 L 376.898 179.809 375.882 180.664 C 374.612 181.733,372.387 181.506,371.895 180.257 C 371.717 179.808,367.630 176.898,367.176 176.898 C 366.952 176.898,366.315 176.672,365.761 176.395 C 365.153 176.092,363.662 175.863,362.006 175.818 L 359.258 175.743 358.601 176.953 C 357.855 178.328,358.035 178.933,359.727 180.744 C 361.943 183.115,363.406 187.157,363.411 190.924 C 363.413 192.600,362.773 196.599,362.400 197.244 C 362.206 197.580,361.898 198.226,361.717 198.680 C 360.424 201.919,355.336 206.931,353.341 206.931 C 351.973 206.931,351.155 205.637,351.155 203.473 C 351.155 199.592,349.095 194.758,346.402 192.319 C 345.080 191.122,345.055 191.386,344.884 208.443 L 344.719 224.917 342.904 225.083 L 341.089 225.248 340.885 241.254 C 340.773 250.058,340.578 257.706,340.452 258.251 C 340.244 259.152,340.263 259.181,340.656 258.581 C 340.992 258.068,341.126 254.307,341.254 241.749 L 341.419 225.578 343.234 225.413 L 345.050 225.248 345.135 208.828 C 345.182 199.741,345.350 192.409,345.509 192.409 C 347.302 192.409,349.988 198.096,350.464 202.901 C 350.793 206.220,351.517 207.261,353.498 207.261 C 355.911 207.261,361.187 202.063,362.208 198.680 C 362.345 198.226,362.588 197.690,362.748 197.490 C 365.334 194.242,363.581 183.803,359.819 180.041 C 359.000 179.222,358.708 177.429,359.251 176.551 C 359.566 176.041,364.076 176.182,365.137 176.735 C 365.657 177.006,366.344 177.228,366.664 177.228 C 366.984 177.228,367.431 177.450,367.657 177.723 C 367.883 177.995,368.235 178.218,368.440 178.219 C 368.644 178.220,369.841 179.111,371.098 180.199 C 375.710 184.191,378.148 181.465,377.374 173.185 C 376.092 159.476,360.433 152.636,350.633 161.504 C 348.688 163.265,348.648 163.282,346.945 163.119 L 345.223 162.953 345.136 151.031 L 345.050 139.109 343.162 139.010 L 341.275 138.912 341.171 106.007 C 341.092 81.402,340.966 72.853,340.670 72.112 C 340.284 71.147,340.279 71.155,340.478 72.442 M55.370 72.690 C 55.329 72.735,55.217 87.624,55.123 105.776 L 54.950 138.779 52.818 138.879 C 51.645 138.934,50.494 139.138,50.260 139.332 C 49.677 139.816,49.627 224.585,50.210 224.945 C 50.416 225.073,51.604 225.250,52.850 225.339 L 55.116 225.501 55.148 240.886 C 55.167 249.348,55.278 256.615,55.396 257.036 C 55.514 257.456,55.564 250.479,55.508 241.531 C 55.431 229.418,55.305 225.198,55.013 225.012 C 54.797 224.875,53.692 224.760,52.558 224.758 L 50.495 224.752 50.495 182.574 C 50.495 150.209,50.587 140.304,50.891 140.000 C 51.109 139.782,52.037 139.602,52.954 139.599 C 53.870 139.596,54.800 139.480,55.020 139.340 C 55.364 139.121,55.871 72.607,55.528 72.607 C 55.483 72.607,55.412 72.644,55.370 72.690 M133.333 164.908 C 130.469 165.885,128.761 167.193,127.372 169.472 L 126.568 170.792 126.568 183.828 L 126.568 196.865 127.348 198.276 C 128.045 199.537,130.558 201.980,131.158 201.980 C 131.285 201.980,132.053 202.282,132.863 202.652 C 134.293 203.303,134.839 203.320,151.080 203.229 L 167.822 203.135 169.802 202.033 C 174.507 199.415,174.985 197.977,174.851 186.858 C 174.753 178.731,174.750 178.709,173.848 176.898 C 172.701 174.595,169.037 171.947,166.999 171.947 C 166.676 171.947,165.690 171.737,164.807 171.479 C 163.924 171.222,162.236 170.768,161.056 170.470 C 159.876 170.172,158.168 169.723,157.261 169.472 C 154.569 168.726,152.736 168.285,151.074 167.982 C 150.212 167.825,149.346 167.597,149.149 167.476 C 148.816 167.270,147.980 167.040,143.234 165.846 C 142.236 165.594,140.825 165.234,140.099 165.045 C 138.751 164.695,134.227 164.603,133.333 164.908 M257.096 164.883 C 256.642 164.963,255.528 165.237,254.620 165.494 C 253.713 165.750,252.140 166.193,251.126 166.478 C 250.112 166.763,248.951 166.997,248.547 166.997 C 248.142 166.997,247.514 167.156,247.151 167.350 C 246.788 167.544,245.795 167.832,244.945 167.990 C 243.104 168.331,238.994 169.380,235.791 170.325 C 235.237 170.489,234.123 170.769,233.316 170.947 C 226.400 172.477,224.701 173.313,222.706 176.166 L 221.617 177.723 221.617 187.459 C 221.617 198.776,222.125 200.338,226.361 202.052 C 226.838 202.245,227.709 202.611,228.298 202.866 C 229.179 203.247,232.290 203.312,245.955 203.232 L 262.541 203.135 264.449 202.184 C 266.898 200.964,268.649 198.973,269.389 196.569 C 270.249 193.778,270.253 173.891,269.394 171.104 C 267.956 166.432,262.892 163.871,257.096 164.883 M138.779 165.350 C 140.720 165.799,143.787 166.569,146.040 167.174 C 148.782 167.909,151.352 168.546,153.300 168.972 C 154.208 169.171,155.214 169.479,155.535 169.658 C 155.857 169.836,156.822 170.073,157.680 170.185 C 158.539 170.297,159.389 170.499,159.571 170.635 C 159.752 170.770,160.421 170.977,161.056 171.094 C 162.160 171.299,163.054 171.534,167.476 172.787 C 173.581 174.516,174.382 176.419,174.208 188.777 L 174.092 196.973 173.102 198.373 C 171.208 201.050,169.913 201.790,165.560 202.684 C 162.567 203.298,134.768 202.866,133.003 202.178 C 130.821 201.326,128.861 199.711,127.905 197.975 L 127.063 196.445 127.063 184.013 C 127.063 172.123,127.093 171.515,127.749 170.073 C 129.459 166.321,134.199 164.292,138.779 165.350 M263.933 165.913 C 265.974 166.839,266.908 167.594,267.982 169.185 L 268.998 170.691 268.905 184.108 L 268.812 197.525 267.835 198.802 C 266.703 200.282,264.928 201.481,262.754 202.233 C 260.905 202.873,233.266 203.257,230.466 202.681 C 227.731 202.119,226.479 201.747,226.021 201.358 C 225.777 201.152,225.184 200.688,224.702 200.328 C 224.221 199.967,223.434 199.003,222.955 198.186 L 222.084 196.698 222.180 187.073 C 222.254 179.736,222.375 177.415,222.690 177.310 C 222.917 177.234,223.102 176.976,223.102 176.736 C 223.102 176.495,223.830 175.645,224.719 174.846 C 226.349 173.380,226.918 173.152,232.343 171.788 C 233.523 171.492,235.231 171.039,236.139 170.783 C 237.046 170.527,238.309 170.222,238.944 170.104 C 239.579 169.986,240.248 169.795,240.429 169.681 C 240.611 169.566,241.576 169.297,242.574 169.084 C 245.870 168.380,247.683 167.947,248.185 167.743 C 248.759 167.511,251.578 166.805,253.960 166.298 C 254.868 166.105,255.833 165.816,256.106 165.657 C 257.031 165.115,262.573 165.296,263.933 165.913 M55.822 259.406 C 55.799 260.223,56.002 261.316,56.273 261.836 C 56.544 262.356,56.766 262.984,56.766 263.232 C 56.766 263.882,59.018 268.636,59.879 269.802 C 60.281 270.347,60.705 271.052,60.823 271.370 C 60.940 271.687,61.189 271.947,61.376 271.947 C 61.563 271.947,61.716 272.133,61.716 272.360 C 61.716 273.276,68.537 279.362,70.627 280.312 C 70.899 280.435,71.755 280.895,72.529 281.332 C 73.302 281.770,74.377 282.225,74.918 282.343 C 75.458 282.462,75.985 282.696,76.088 282.864 C 76.192 283.031,76.602 283.159,77.000 283.147 C 77.435 283.134,77.001 282.846,75.908 282.424 C 65.675 278.469,57.885 269.405,56.125 259.406 L 55.864 257.921 55.822 259.406 M339.689 261.060 C 339.463 262.029,339.348 262.890,339.432 262.975 C 339.724 263.267,340.296 261.254,340.198 260.278 C 340.115 259.454,340.034 259.579,339.689 261.060 M338.944 263.905 C 338.944 264.262,338.766 264.733,338.548 264.950 C 338.247 265.251,338.245 265.347,338.542 265.347 C 338.972 265.347,339.474 263.786,339.149 263.461 C 339.036 263.348,338.944 263.548,338.944 263.905 M337.365 267.242 C 334.947 272.291,330.868 276.661,325.413 280.047 C 324.414 280.666,323.769 281.177,323.979 281.181 C 325.811 281.216,334.835 273.048,336.129 270.183 C 336.306 269.792,336.540 269.398,336.649 269.307 C 337.115 268.920,338.353 266.379,338.240 266.041 C 338.173 265.838,337.779 266.378,337.365 267.242 M321.967 281.694 C 321.515 282.035,321.466 282.175,321.802 282.168 C 322.063 282.162,322.566 281.939,322.918 281.673 C 323.369 281.331,323.418 281.191,323.083 281.199 C 322.821 281.204,322.319 281.427,321.967 281.694 M319.950 282.465 C 319.778 282.622,318.449 283.009,316.997 283.325 C 313.668 284.049,313.323 284.180,315.182 284.018 C 317.733 283.796,322.541 282.223,320.776 282.188 C 320.494 282.183,320.123 282.307,319.950 282.465 M79.043 283.644 C 79.769 283.921,80.957 284.132,81.683 284.112 L 83.003 284.076 81.683 283.819 C 80.957 283.678,79.769 283.467,79.043 283.351 L 77.723 283.139 79.043 283.644 M140.815 284.406 C 172.430 284.452,224.261 284.452,255.996 284.406 C 287.731 284.360,261.865 284.322,198.515 284.322 C 135.165 284.322,109.200 284.360,140.815 284.406 " stroke="none" fill="#a69c9d" fill-rule="evenodd"></path><path id="path4" d="M80.693 47.008 C 71.839 48.548,63.670 54.526,59.102 62.809 C 58.520 63.863,58.099 64.891,58.166 65.092 C 58.233 65.293,58.559 64.876,58.891 64.164 C 59.223 63.453,59.920 62.233,60.440 61.452 C 60.961 60.672,61.386 59.960,61.386 59.871 C 61.386 59.397,67.058 53.580,68.275 52.805 C 68.703 52.533,69.394 52.050,69.810 51.733 C 70.226 51.415,70.716 51.155,70.899 51.155 C 71.082 51.155,71.282 51.044,71.342 50.908 C 71.526 50.493,74.183 49.175,74.834 49.175 C 75.171 49.175,75.593 49.027,75.774 48.846 C 75.955 48.665,77.210 48.234,78.563 47.886 C 81.451 47.146,307.962 46.447,313.861 47.161 C 317.468 47.597,321.982 48.912,322.849 49.780 C 323.061 49.992,323.460 50.165,323.737 50.165 C 325.937 50.165,318.445 47.362,314.943 46.875 C 311.152 46.348,83.746 46.477,80.693 47.008 M324.752 50.660 C 324.978 50.932,325.357 51.155,325.594 51.155 C 325.831 51.155,326.222 51.348,326.462 51.584 C 326.701 51.820,327.715 52.616,328.713 53.352 C 330.510 54.677,332.398 56.584,333.993 58.686 C 334.447 59.284,335.078 60.084,335.396 60.465 C 335.714 60.846,335.974 61.357,335.974 61.602 C 335.974 61.846,336.087 62.046,336.226 62.046 C 336.455 62.046,336.836 62.802,338.414 66.387 C 338.705 67.049,338.944 67.839,338.944 68.141 C 338.944 68.443,339.109 68.999,339.311 69.376 C 340.187 71.014,340.358 76.546,340.480 107.310 C 340.599 137.182,340.643 139.222,341.178 139.426 C 341.636 139.600,341.667 139.561,341.337 139.227 C 341.012 138.901,340.924 132.145,340.924 107.688 C 340.924 74.970,340.843 72.866,339.398 68.195 C 337.835 63.141,335.270 59.072,331.161 55.127 C 328.071 52.161,323.153 48.733,324.752 50.660 M57.522 66.420 C 56.845 67.880,56.130 70.838,55.791 73.589 C 55.327 77.349,55.312 139.395,55.776 139.109 C 55.992 138.975,56.108 127.518,56.113 105.839 C 56.119 84.189,56.239 72.316,56.462 71.452 C 56.650 70.726,56.946 69.538,57.120 68.812 C 57.295 68.086,57.608 67.158,57.817 66.750 C 58.026 66.342,58.123 65.933,58.032 65.843 C 57.941 65.752,57.712 66.011,57.522 66.420 M55.446 239.921 C 55.446 257.024,55.717 260.029,57.679 264.686 C 61.825 274.528,69.781 281.241,80.033 283.548 C 83.545 284.338,313.897 284.196,316.997 283.401 C 319.336 282.802,320.203 282.492,321.891 281.653 C 322.405 281.397,322.980 281.188,323.168 281.188 C 323.590 281.188,327.263 278.976,328.359 278.061 C 330.495 276.280,331.904 274.986,332.791 273.992 C 334.449 272.133,336.047 269.930,335.867 269.751 C 335.773 269.657,335.426 270.001,335.095 270.516 C 333.411 273.138,328.274 278.147,326.403 278.992 C 326.130 279.115,325.462 279.509,324.917 279.868 C 324.373 280.227,323.705 280.606,323.432 280.710 C 323.160 280.815,322.492 281.105,321.947 281.355 C 320.632 281.959,318.156 282.709,315.444 283.325 C 312.655 283.959,84.330 284.101,82.059 283.471 C 81.358 283.276,80.095 282.995,79.253 282.847 C 77.702 282.573,76.220 282.112,74.422 281.345 C 73.878 281.112,73.210 280.832,72.937 280.721 C 72.665 280.611,71.997 280.227,71.452 279.868 C 70.908 279.509,70.239 279.116,69.967 278.995 C 69.337 278.716,66.537 276.496,66.392 276.161 C 66.331 276.022,66.150 275.908,65.990 275.908 C 65.592 275.908,63.516 273.803,63.262 273.142 C 63.149 272.848,62.904 272.607,62.717 272.607 C 62.529 272.607,62.376 272.431,62.376 272.216 C 62.376 272.001,62.093 271.518,61.748 271.143 C 61.057 270.395,60.128 268.865,59.129 266.832 C 57.551 263.618,57.335 262.984,56.428 258.911 C 56.267 258.185,56.128 250.276,56.120 241.337 C 56.111 230.730,55.991 225.083,55.776 225.083 C 55.560 225.083,55.446 230.249,55.446 239.921 M340.751 225.495 C 340.667 225.722,340.536 232.442,340.459 240.429 C 340.383 248.416,340.242 255.990,340.145 257.261 C 339.994 259.249,340.019 259.410,340.326 258.416 C 340.635 257.419,341.285 225.081,340.996 225.082 C 340.945 225.082,340.835 225.268,340.751 225.495 M339.348 261.070 C 339.126 261.783,338.939 262.554,338.933 262.784 C 338.927 263.013,338.635 263.795,338.284 264.521 C 337.933 265.248,337.641 265.956,337.635 266.096 C 337.629 266.235,337.252 266.938,336.799 267.657 C 335.935 269.024,335.778 269.467,336.261 269.168 C 336.785 268.844,338.881 264.224,339.458 262.120 C 340.082 259.842,339.994 259.000,339.348 261.070 " stroke="none" fill="#909090" fill-rule="evenodd"></path></g></svg>