<?xml version="1.0" encoding="utf-8"?>
<!-- Generator: Adobe Illustrator 16.0.0, SVG Export Plug-In . SVG Version: 6.00 Build 0)  -->
<!DOCTYPE svg PUBLIC "-//W3C//DTD SVG 1.1//EN" "http://www.w3.org/Graphics/SVG/1.1/DTD/svg11.dtd">
<svg version="1.1" id="Layer_1" xmlns="http://www.w3.org/2000/svg" xmlns:xlink="http://www.w3.org/1999/xlink" x="0px" y="0px"
	 width="160px" height="160px" viewBox="0 0 160 160" enable-background="new 0 0 160 160" xml:space="preserve">
<g>
	<g>
		<path fill="#5E8CDA" d="M140.076,77.822l-34.857-34.861c-0.146-0.146-0.342-0.227-0.545-0.227c-0.016,0-0.03,0.001-0.047,0.002
			c-0.219,0.013-0.423,0.119-0.56,0.292L89.211,61.881c-0.242,0.307-0.217,0.746,0.061,1.022l16.006,16.006
			c0.574,0.576,0.891,1.341,0.889,2.158c-0.003,0.808-0.317,1.563-0.886,2.126l-4.626,4.625c-0.261,0.261-0.301,0.669-0.097,0.975
			c1.153,1.726,3.042,4.565,3.218,4.881c0.579,1.159,0.772,4.12-0.937,5.421l-36.416,27.969c-0.19,0.146-0.301,0.372-0.301,0.611
			c0,3.104-0.001,7.295-0.002,11.515c0,4.259-0.002,8.546-0.002,11.771c0,1.609,0.001,2.956,0.002,3.897c0,0.472,0,0.843,0,1.096
			c0.001,0.538,0.002,0.864,0.428,1.075c0.106,0.055,0.224,0.084,0.345,0.084c0.319,0,0.447-0.127,0.754-0.434l0.609-0.607
			c0.533-0.532,1.314-1.313,2.308-2.306c1.987-1.984,4.825-4.821,8.23-8.224c6.81-6.807,15.889-15.882,24.968-24.956
			c18.156-18.147,36.311-36.3,36.311-36.3C141.837,82.501,141.836,79.601,140.076,77.822z"/>
		<path fill="#093071" d="M93.756,3.233l-0.012-0.017c-0.008-0.009-0.014-0.019-0.021-0.027l-0.021-0.023
			c-0.14-0.167-0.341-0.268-0.558-0.278c-0.012,0-0.024,0-0.036,0c-0.203,0-0.399,0.081-0.546,0.227L19.945,75.74
			c-0.865,0.855-1.342,2.004-1.341,3.231c0.001,1.225,0.478,2.369,1.344,3.223l34.847,34.852c0.145,0.145,0.341,0.227,0.545,0.227
			c0.015,0,0.029,0,0.046-0.002c0.219-0.014,0.423-0.119,0.56-0.292l14.866-18.853c0.241-0.307,0.216-0.745-0.061-1.021
			L54.729,81.098c-0.567-0.563-0.878-1.317-0.88-2.126c-0.001-0.813,0.312-1.574,0.88-2.141l4.635-4.643
			c0.264-0.266,0.3-0.68,0.088-0.986l-3.165-4.547c-1.278-1.813-0.881-4.385,0.882-5.737l36.428-27.95
			c0.189-0.146,0.303-0.371,0.303-0.611l0.012-28.658C93.912,3.53,93.857,3.367,93.756,3.233z"/>
	</g>
	<path fill="#F2C913" d="M100.171,93.205L59.833,67.008l17.816,25.614c0.384,0.586,0.345,1.588-0.078,2.152l-31.913,40.503
		c-0.565,0.733-1.036,1.527-0.637,2.348c0.216,0.431,0.738,0.773,1.241,0.815c0.63-0.006,1.113-0.283,1.776-0.787L99.328,98.28
		C100.896,97.083,100.854,94.18,100.171,93.205z"/>
	<path fill="#F4D646" d="M114.979,22.386c-0.241-0.493-0.778-0.827-1.334-0.827c-0.496,0-0.966,0.214-1.682,0.761L60.652,61.723
		c-1.626,1.243-1.993,3.614-0.819,5.285l40.338,26.197c-0.585-0.856-17.649-25.592-17.821-25.843
		c-0.386-0.546-0.354-1.611,0.066-2.146l31.914-40.519l0.021-0.026C114.87,24.008,115.39,23.229,114.979,22.386z"/>
</g>
</svg>