<?xml version="1.0" encoding="utf-8"?>
<!-- Generator: Adobe Illustrator 26.1.0, SVG Export Plug-In . SVG Version: 6.00 Build 0)  -->
<svg version="1.1" id="Layer_1" xmlns="http://www.w3.org/2000/svg" xmlns:xlink="http://www.w3.org/1999/xlink" x="0px" y="0px"
	 viewBox="0 0 500 500" style="enable-background:new 0 0 500 500;" xml:space="preserve">
<style type="text/css">
	.st0{fill:none;}
	.st1{fill:#FFFFFF;}
</style>
<g>
	<path class="st0" d="M396.1,237.4c-6.4-7.2-14.2-12.9-23.3-17.1c-9.1-4.2-19.1-6.4-30.1-6.4c-18.4,0-33.8,6.6-46.1,19.8V125h-52.1
		v126.4c-2.8-5-5.9-9.8-9.7-14c-6.4-7.2-14.2-12.9-23.3-17.1c-9.1-4.2-19.1-6.4-30.1-6.4c-18.4,0-33.8,6.6-46.1,19.8V125H83.3v245.3
		h52.1v-16.8c11.1,14.4,26.3,21.6,45.5,21.6c10.6,0,20.4-2.1,29.5-6.4c9.1-4.2,17-10,23.7-17.3c4.1-4.4,7.4-9.5,10.4-14.8v33.7h52.1
		v-16.8c11.1,14.4,26.3,21.6,45.5,21.6c10.6,0,20.4-2.1,29.5-6.4c9.1-4.2,17-10,23.7-17.3c6.7-7.3,11.9-15.9,15.7-25.7
		c3.7-9.9,5.6-20.4,5.6-31.6c0-11-1.8-21.4-5.5-31.2C407.5,253.1,402.5,244.6,396.1,237.4z"/>
	<path class="st1" d="M458.3,0H41.7C18.7,0,0,18.7,0,41.7v416.7c0,23,18.7,41.7,41.7,41.7h416.7c23,0,41.7-18.7,41.7-41.7V41.7
		C500,18.7,481.3,0,458.3,0z M411,325.6c-3.7,9.9-9,18.4-15.7,25.7c-6.7,7.3-14.6,13.1-23.7,17.3c-9.1,4.2-18.9,6.4-29.5,6.4
		c-19.2,0-34.3-7.2-45.5-21.6v16.8h-52.1v-33.7c-3,5.4-6.3,10.4-10.4,14.8c-6.7,7.3-14.6,13.1-23.7,17.3c-9.1,4.2-18.9,6.4-29.5,6.4
		c-19.2,0-34.3-7.2-45.5-21.6v16.8H83.3V125h52.1v108.8c12.3-13.2,27.6-19.8,46.1-19.8c10.9,0,21,2.1,30.1,6.4
		c9.1,4.2,16.9,10,23.3,17.1c3.7,4.2,6.9,8.9,9.7,14V125h52.1v108.8c12.3-13.2,27.6-19.8,46.1-19.8c10.9,0,21,2.1,30.1,6.4
		c9.1,4.2,16.9,10,23.3,17.1c6.4,7.2,11.5,15.7,15.1,25.4c3.6,9.8,5.5,20.1,5.5,31.2C416.7,305.3,414.8,315.8,411,325.6z"/>
	<path class="st1" d="M352.5,270.4c-3.1-3.2-6.6-5.7-10.7-7.5c-4-1.9-8.4-2.8-13.2-2.8c-4.6,0-8.9,0.9-12.9,2.7
		c-4,1.8-7.5,4.2-10.5,7.4c-3,3.2-5.4,6.8-7.2,11.1c-1.8,4.2-2.7,8.7-2.7,13.4s0.9,9.2,2.6,13.3c1.7,4.1,4.1,7.7,7.2,10.8
		c3.1,3.1,6.7,5.5,10.8,7.4c4.1,1.9,8.5,2.8,13.1,2.8c4.6,0,8.9-0.9,12.9-2.7c4-1.8,7.5-4.2,10.5-7.4c3-3.1,5.4-6.8,7.2-10.9
		c1.8-4.2,2.7-8.5,2.7-13c0-4.7-0.9-9.2-2.6-13.4C357.9,277.2,355.5,273.5,352.5,270.4z"/>
	<path class="st1" d="M191.3,270.4c-3.1-3.2-6.6-5.7-10.7-7.5c-4-1.9-8.4-2.8-13.2-2.8c-4.6,0-8.9,0.9-12.9,2.7
		c-4,1.8-7.5,4.2-10.5,7.4c-3,3.2-5.4,6.8-7.2,11.1c-1.8,4.2-2.7,8.7-2.7,13.4s0.9,9.2,2.6,13.3c1.7,4.1,4.1,7.7,7.2,10.8
		c3.1,3.1,6.7,5.5,10.8,7.4c4.1,1.9,8.5,2.8,13.1,2.8c4.6,0,8.9-0.9,12.9-2.7c4-1.8,7.5-4.2,10.5-7.4c3-3.1,5.4-6.8,7.2-10.9
		c1.8-4.2,2.7-8.5,2.7-13c0-4.7-0.9-9.2-2.6-13.4C196.7,277.2,194.3,273.5,191.3,270.4z"/>
</g>
</svg>
