<svg enable-background="new 0 0 506.9 131.5" viewBox="0 0 506.9 131.5" xmlns="http://www.w3.org/2000/svg"><path d="m109.7 58.2-18.3-10.1-15.4 9.4-.2 9.6-7.5-4.9-10.2 6.2-.4-10.5-10.5-7 10-5.2c-.1 0 0 1-1.5-34.3l-23.5-11.4-32.2 10 7.2 34.6 10.8 8.4-8.2 3.9 5.3 26.1 7.6 7.1-5.4 3.3 4.2 20.2 16.9 17.9c.1-.1 1.8-1.4 21.8-17.3l-.6-13.7 8.6 7.3c.1-.1 1.8-1.4 17.6-13.9l.6-10.1 6.5 4.5c.1-.1 1.6-1.2 14.3-11.3z" fill="#231f20"/><path d="m92.9 88.2 1.6-19.2-18.4-11.5-.4 18.8z" fill="#005b28"/><path d="m68.2 107.7v-19.9l-18.6-14.1 1.4 19.5z" fill="#005b28"/><path d="m38.4 131.5-3-20.3-18.1-17.8 4.2 20.2z" fill="#005b28"/><path d="m94.5 69 15.1-10.8-18.2-10.1-15.4 9.4zm-26.3 18.8 18.8-13.4-18.6-12.2-18.8 11.5zm-32.7 23.4 23.9-17.1-18.6-15.1-23.5 14.4zm-5.5-37.5 27.8-15.8-20.8-13.9-27.3 13zm-7.3-49.6 33.1-12.7-23.6-11.4-32.2 10z"/><g fill="#00a762"><path d="m107.1 76.9c-14 11.1-14.3 11.3-14.2 11.3 1.7-20.1 1.6-19.2 1.6-19.2 16-11.5 15-10.8 15.1-10.8z"/><path d="m85.8 93.8c-17.3 13.8-17.6 13.9-17.6 13.9-.2-20.8-.1-19.9 0-19.9 20-14.3 18.7-13.4 18.7-13.4z"/><path d="m60.2 114.2c-21.7 17.2-21.9 17.3-21.8 17.3-3.1-20.9-3-20.3-3-20.3 25.5-18.2 23.9-17.1 24-17.1z"/><path d="m55.8 11.4c1.5 35.4 1.4 34.3 1.5 34.3-28.7 14.9-29.3 15.2-29.2 15.2-5.5-37.6-5.5-36.8-5.4-36.8z"/><path d="m57.8 57.9c1.2 26.8 1 25.9 1.1 25.9-24.8 16.7-25.1 16.8-25 16.8-4-27.6-4-26.9-3.9-26.9z"/></g><path d="m151.6 14.2 16.6-4v79.9c0 8.8 2.6 14 7.8 15.7-2.6 4.9-6.9 7.3-13.1 7.3-7.5 0-11.3-5.2-11.3-15.7z"/><path d="m186.7 111.7v-57.4h-9.1v-13.6h25.9v71zm8.5-98.5c5.3 0 9.6 4.3 9.6 9.6s-4.3 9.6-9.6 9.6-9.6-4.3-9.6-9.6c0-5.3 4.3-9.6 9.6-9.6z"/><path d="m262.9 111.7v-41c0-6.1-1.2-10.5-3.5-13.3s-6.1-4.2-11.4-4.2c-2.7.1-5.4.8-7.8 2.1-2.5 1.2-4.7 2.9-6.5 5.1v51.3h-16.6v-71h11.9l3 6.6c4.5-5.3 11.2-8 20-8 8.4 0 15.1 2.5 20 7.6s7.3 12.1 7.3 21.2v43.6z"/><path d="m288.4 76.1c0-10.8 3.1-19.7 9.4-26.5s14.5-10.2 24.8-10.2c10.8 0 19.2 3.3 25.1 9.8 6 6.5 9 15.5 9 26.9 0 11.3-3 20.3-9.1 27s-14.4 10-25 10c-10.8 0-19.2-3.4-25.2-10.1-6-6.8-9-15.8-9-26.9zm17.3 0c0 15.6 5.6 23.5 16.9 23.5 4.9.2 9.5-2.1 12.3-6.1 3-4.1 4.5-9.8 4.5-17.4 0-15.4-5.6-23.1-16.9-23.2-4.9-.2-9.5 2.1-12.3 6.1-3 4.1-4.5 9.8-4.5 17.1z"/><path d="m412.4 111.7v-4.3c-1.4 1.5-3.7 2.8-7 3.9s-6.7 1.7-10.1 1.7c-9.9 0-17.7-3.1-23.4-9.4s-8.5-15-8.5-26.3c0-11.2 3.3-20.4 9.8-27.4 6.2-6.9 15.2-10.8 24.5-10.6 5.1-.1 10.1 1.1 14.7 3.3v-28.4l16.6-4v101.5zm0-54c-3.1-2.7-7-4.1-11.1-4.2-6.7 0-11.8 2-15.3 6.1-3.6 4-5.3 9.8-5.4 17.4 0 14.8 7.1 22.2 21.4 22.2 2-.1 4-.6 5.9-1.4 2.3-1 3.8-1.9 4.5-2.9z"/><path d="m505.5 81.3h-50.7c.3 5.7 2.2 10.1 5.8 13.2s8.4 4.7 14.5 4.7c7.6 0 13.3-2 17.2-5.9l6.4 12.7c-5.8 4.7-14.5 7.1-26.1 7.1-10.8 0-19.4-3.2-25.7-9.5s-9.5-15.2-9.5-26.6c0-11.2 3.5-20.3 10.4-27.2 6.5-6.8 15.5-10.5 24.9-10.4 10.3 0 18.6 3.1 24.8 9.2s9.4 14 9.4 23.5c-.1 3.1-.6 6.2-1.4 9.2zm-50.1-12.5h34.9c-1.2-10.4-6.9-15.6-17.2-15.6-9.5 0-15.4 5.2-17.7 15.6z"/><path d="m28.1 60.9-5.4-36.8-22.7-14.1 7.2 34.6z" fill="#005b28"/><path d="m33.9 100.6-3.9-26.9-20.3-16.8 5.5 26.1z" fill="#005b28"/></svg>