<svg xmlns="http://www.w3.org/2000/svg" viewBox="0 0 138.99 114.31"><defs><style>.cls-1,.cls-2,.cls-3{fill:#fff;}.cls-2{fill-rule:evenodd;}.cls-3{font-size:26.75px;font-family:Sanchez-Regular, Sanchez;}.cls-4{letter-spacing:-0.04em;}.cls-5{letter-spacing:0em;}.cls-6{letter-spacing:-0.02em;}</style></defs><title>Recurso 1</title><g id="Capa_2" data-name="Capa 2"><g id="Capa_1-2" data-name="Capa 1"><path class="cls-1" d="M11.14,104.49v-3.83l-7.21-2.3v-.27l7.21-2.28V92h-.56L0,96v4.55l10.58,4Z"/><path class="cls-1" d="M128.41,104.49l10.58-4V96l-10.58-4h-.56v3.86l7.2,2.28v.27l-7.2,2.3v3.83Z"/><path class="cls-2" d="M108.45,12c-.2-6-6-6-6-6h-32s-3.2-3-4-4a16.74,16.74,0,0,0-2-2h-29a5.61,5.61,0,0,0-6,5s.15,54.59,0,60c-.17,5.9,4,6,4,6h7V64h-5V24h67V64h-4v7h4c5.77-.07,6-5,6-5S108.68,19,108.45,12ZM38,18.16a3.5,3.5,0,1,1,3.5-3.5A3.5,3.5,0,0,1,38,18.16ZM47.53,18A3.5,3.5,0,1,1,51,14.5,3.5,3.5,0,0,1,47.53,18Zm54.92,0a1,1,0,0,1-1,1h-45a1,1,0,0,1-1-1V13a1,1,0,0,1,1-1h45a1,1,0,0,1,1,1Z"/><path class="cls-1" d="M46.25,54.61A22.86,22.86,0,0,0,59.13,75.18L48.23,45.31A22.74,22.74,0,0,0,46.25,54.61Z"/><path class="cls-1" d="M84.54,53.46a12.07,12.07,0,0,0-1.89-6.31c-1.16-1.88-2.24-3.47-2.24-5.36a4,4,0,0,1,3.84-4.06l.29,0A22.84,22.84,0,0,0,50,42.06l1.47,0c2.39,0,6.09-.29,6.09-.29a1,1,0,0,1,.15,1.89s-1.24.14-2.62.21l8.32,24.76,5-15-3.56-9.76c-1.24-.07-2.4-.21-2.4-.21a1,1,0,0,1,.14-1.89s3.78.29,6,.29c2.4,0,6.1-.29,6.1-.29a1,1,0,0,1,.14,1.89s-1.24.14-2.61.21l8.26,24.58,2.28-7.62C83.79,57.69,84.54,55.41,84.54,53.46Z"/><path class="cls-1" d="M69.51,56.61,62.65,76.54a22.94,22.94,0,0,0,14.05-.36,1.91,1.91,0,0,1-.16-.32Z"/><path class="cls-1" d="M89.16,43.64A17.25,17.25,0,0,1,89.32,46a21.48,21.48,0,0,1-1.74,8.19l-7,20.19a22.84,22.84,0,0,0,8.56-30.73Z"/><path class="cls-1" d="M69.11,28A26.65,26.65,0,1,0,95.76,54.61,26.68,26.68,0,0,0,69.11,28Zm0,52.08A25.43,25.43,0,1,1,94.53,54.61,25.46,25.46,0,0,1,69.11,80Z"/><text class="cls-3" transform="translate(14.56 106.27) rotate(0.37)"><tspan class="cls-4">C</tspan><tspan class="cls-5" x="19.05" y="0">o</tspan><tspan class="cls-6" x="34.29" y="0">d</tspan><tspan x="50.21" y="0">eBru</tspan></text></g></g></svg>