<svg xmlns="http://www.w3.org/2000/svg" width="114.95" height="157.999" viewBox="0 0 114.95 157.999">
  <g id="Logo_white" transform="translate(791.833 -0.177)">
    <path id="Union_13" data-name="Union 13" d="M43.748,155.439l-1.262-.309-.035-1.929c-.021-1.1-.044-2.307-.059-3.52l-.029-2.24,2.161.591a42.884,42.884,0,0,0,8.2,1.4l.607.049.018-.6c.027-.939.018-1.955.009-2.852v-.042c-.005-.454-.009-.9-.009-1.332.036-7.369.048-14.687.06-21.765.017-9.478.034-19.272.1-28.927V93.9a7.212,7.212,0,0,0-.4-2.712l-.093-.264-.265-.088a13.277,13.277,0,0,1-9.117-12.677A13.525,13.525,0,0,1,52.477,65.53a13.35,13.35,0,0,1,10.246.478c.4.187.79.4,1.166.623a13.261,13.261,0,0,1,5.7,6.964l.015.042a13.343,13.343,0,0,1-8,17.023l-.339.121-.084.272a9.965,9.965,0,0,0-.436,3.35v.057c.092,13.977.116,28.107.139,41.772v.108q.011,6.984.025,13.963v6.554l-1.6.078c-.879.043-1.77.064-2.646.064A54.392,54.392,0,0,1,43.748,155.439ZM56.933,73.031h-.2A4.89,4.89,0,0,0,52.3,77.809v.049a4.958,4.958,0,0,0,4.737,4.871h.178a5.109,5.109,0,0,0,4.7-5.045v-.091A4.941,4.941,0,0,0,57,73.033ZM71.766,152.86c-.084-1.651-.138-2.869-.164-4.209l-.024-1.235,1.17-.4a48.594,48.594,0,0,0,6.977-2.993l.03-.015c.9-.451,1.731-.915,2.467-1.38l.264-.167v-2.618c-.027-6.078-.018-12.2-.009-18.117v-.47q.006-4.267.008-8.487v-.288l-.749-.544-.075-.028A12.543,12.543,0,1,1,98.56,100.1l.009.211-.025.158a2.454,2.454,0,0,0-.026.408v.1l-.018.194c-.009.09-.018.177-.021.264v.113l-.02.112a1.217,1.217,0,0,0-.016.123l-.011.1a12.6,12.6,0,0,1-7.42,9.729l-.166.085c-.109.068-.237.159-.369.253l-.019.014c-.076.054-.154.111-.237.167l-.263.174v34.076l-.72.5c-1,.7-1.942,1.3-2.887,1.848a54.231,54.231,0,0,1-12.4,5.651l-2.076.646ZM81.4,99.477l-.008.088a4.754,4.754,0,0,0,1.235,3.474,4.887,4.887,0,0,0,3.322,1.776h.273a5.015,5.015,0,0,0,4.821-4.641,4.818,4.818,0,0,0-1.374-3.409l-.029-.029a4.984,4.984,0,0,0-3.38-1.577h-.135A5.194,5.194,0,0,0,81.4,99.477ZM29.309,149.75a54.872,54.872,0,0,1-14.3-11.342c-10-11-15.05-24.363-15.009-39.73.014-4.167.036-8.4.067-12.594V85.9c.054-8.38.11-17.035.055-25.612a5.986,5.986,0,0,1,3.272-5.726,78.081,78.081,0,0,1,13.624-6.83,4.544,4.544,0,0,0,3.3-5.02c-.233-6.045-.125-12.5,2.221-18.669A37.3,37.3,0,0,1,57.077,0,35.92,35.92,0,0,1,77.245,6.287,38.147,38.147,0,0,1,88.8,18.231,38.709,38.709,0,0,1,93.508,31.8l.363,2.43-2.4-.534c-1.257-.28-2.5-.607-3.79-1l-.108-.036-.75-.265-.273-.748a7.457,7.457,0,0,1-.349-1.331l-.041-.209C85,23.743,81.473,18,75.695,13.023c-3.8-3.287-9.036-5.36-15.155-6a29.829,29.829,0,0,0-25.1,9.359,30.286,30.286,0,0,0-7.546,26.142,1.046,1.046,0,0,0,.474.713c.565.354,1.4.163,2.432-.123l.058-.016c.165-.045.335-.093.524-.133,25.2-5.752,49.394-3.229,71.891,7.5l.122.059c5.2,2.479,7.81,3.725,9.062,5.683s1.271,4.826,1.311,10.544q.015,3.941.025,7.875c.022,7.743.046,15.75.138,23.728a56.526,56.526,0,0,1-10.26,33.9l-3.063,4.431L100.6,131.3c-.006-2.651-.017-4.86-.036-6.753v-1.337l.209-.38c.287-.522.526-.992.673-1.323,3.577-7.8,5.221-14.775,5.182-21.98-.094-13.107-.067-24.093.082-34.571.045-3.369-1.091-5.283-4.049-6.825a97.694,97.694,0,0,0-56.434-10.38A96.1,96.1,0,0,0,11.17,58.472,6.031,6.031,0,0,0,7.513,64.63c.073,5.452.065,11.137.059,16.152-.008,6.865-.016,13.965.146,20.982A47.426,47.426,0,0,0,19.99,132.933l.144.143c.224.2.5.5.835.863.507.548,1.132,1.224,1.971,1.991l.949.868V112.19l-.7-.492-.057-.023a12.487,12.487,0,1,1,9.054.2l-.375.136V151.13ZM24.248,96.2a5.623,5.623,0,0,0-1.709,4.058v.014a5.878,5.878,0,0,0,5.45,5.179,5.309,5.309,0,0,0,3.784-1.688l.02-.021A5.536,5.536,0,0,0,33.325,99.7v-.02a5.743,5.743,0,0,0-5.358-5.159h-.04A5.29,5.29,0,0,0,24.248,96.2Z" transform="translate(-791.333 0.677)" fill="#fff" stroke="rgba(0,0,0,0)" stroke-width="1"/>
  </g>
</svg>