<?xml version="1.0" encoding="utf-8"?>
<!-- Generator: Adobe Illustrator 16.0.0, SVG Export Plug-In . SVG Version: 6.00 Build 0)  -->
<!DOCTYPE svg PUBLIC "-//W3C//DTD SVG 1.1//EN" "http://www.w3.org/Graphics/SVG/1.1/DTD/svg11.dtd">
<svg version="1.1" id="Layer_1" xmlns="http://www.w3.org/2000/svg" xmlns:xlink="http://www.w3.org/1999/xlink" x="0px" y="0px"
	 width="160px" height="160px" viewBox="0 0 160 160" enable-background="new 0 0 160 160" xml:space="preserve">
<g>
	<path fill="#FFCC00" d="M146.998,96.045c-0.215-0.543-0.832-0.949-1.43-0.949c-0.367,0-0.705,0.109-1.17,0.352l-2.31,1.227
		l-2.95,1.568l-3.099,1.637l-5.051,2.666l-6.949,3.674l-6.765,3.574l-1.271,0.68l-8.518,4.498l-2.032,1.072
		c-0.774,0.406-1.242,1.117-1.267,1.895c-0.008,0.781,0.434,1.49,1.207,1.928l0.422,0.24l2.654,1.521l4.002,2.313l3.053,1.756
		c0.398,0.23,0.681,0.631,0.738,1.102c0.023,0.172-0.02,0.338-0.056,0.5c-0.058,0.275-0.173,0.539-0.372,0.736l-10.027,10.037
		l-2.164,2.158l-2.133,2.135l-1.244,1.246c-0.711,0.701-0.914,1.379-0.636,2.057c0.226,0.539,0.841,0.951,1.441,0.951
		c0.354,0,0.702-0.104,1.163-0.342l0.143-0.08l2.172-1.148l0.29-0.158l2.669-1.41l3.09-1.627l30.592-16.188
		c0.771-0.412,1.233-1.102,1.25-1.9c0.021-0.762-0.418-1.48-1.182-1.922l-10.127-5.857c-0.392-0.232-0.666-0.635-0.729-1.102
		c-0.055-0.441,0.102-0.904,0.416-1.236l10.009-9.996l2.155-2.154l2.146-2.143l1.234-1.24
		C147.078,97.395,147.287,96.717,146.998,96.045z"/>
	<path fill="#33CCCC" d="M147.934,102.68l-1.881,1.887l-2.156,2.145l-0.303,0.303c2.699,3.945,4.301,8.711,4.301,13.84
		c0,13.545-11.029,24.58-24.578,24.58c-4.661,0-8.998-1.33-12.713-3.584l-3.092,1.627l-2.668,1.408l-0.289,0.16
		c5.188,4.031,11.691,6.461,18.762,6.461c16.898,0,30.656-13.742,30.656-30.652C153.971,114.041,151.703,107.773,147.934,102.68z"/>
	<path fill="#33CCCC" d="M137.105,94.414l0.834-0.441c-1.334-0.725-2.726-1.371-4.166-1.896c-2.949-1.08-6.102-1.711-9.387-1.826
		c-0.017,0-0.023,0-0.037,0c-0.349-0.004-0.682-0.045-1.033-0.045c-2.271,0-4.48,0.262-6.607,0.738
		c-2.701,0.6-5.263,1.561-7.646,2.824c-0.399,0.213-0.811,0.428-1.205,0.658c-3.654,2.146-6.811,5.023-9.301,8.426
		c-2.377,3.264-4.115,7-5.065,11.045c-0.521,2.242-0.826,4.557-0.826,6.955c0,3.977,0.783,7.771,2.162,11.254
		c0.053,0.115,0.085,0.236,0.129,0.352c0.039,0.1,0.091,0.188,0.129,0.277c1.005,2.373,2.3,4.58,3.84,6.605
		c0.316,0.418,0.632,0.844,0.968,1.246c0.522,0.615,1.053,1.205,1.623,1.771l2.133-2.133l2.164-2.158
		c-0.262-0.273-0.515-0.555-0.765-0.834c-0.426-0.479-0.827-0.977-1.217-1.49c-1.551-2.027-2.802-4.295-3.664-6.75
		c-0.026-0.063-0.044-0.137-0.065-0.203c-0.859-2.496-1.354-5.152-1.354-7.938c0-0.025,0-0.047,0-0.082
		c0.023-5.627,1.958-10.803,5.174-14.939c1.442-1.863,3.146-3.508,5.063-4.895c2.303-1.662,4.906-2.934,7.711-3.727
		c2.01-0.563,4.109-0.883,6.287-0.916c0.119,0,0.221-0.014,0.338-0.014c0.342,0,0.686,0.014,1.027,0.027
		c2.334,0.098,4.557,0.605,6.682,1.316l2.99-1.576L137.105,94.414z"/>
	<rect x="88.914" y="23.778" fill="#2BA977" width="18.326" height="18.614"/>
	<path fill="#2BA977" d="M60.784,51.437c-2.736-0.705-5-0.937-7.974-0.937c-19.144,0-31.502,12.004-31.502,30.503
		c0,19.199,11.646,29.197,34.025,29.217c7.477,0,14.382-0.695,23.773-2.469V23.778H60.783L60.784,51.437L60.784,51.437z
		 M61.426,95.691c-2.619,0.354-4.269,0.465-6.295,0.465c-9.39,0-14.503-5.324-14.503-14.963c0-9.91,5.353-15.562,14.618-15.562
		c2.266,0,4.035,0.236,6.18,0.935V95.691z"/>
	<path fill="#2BA977" d="M90.766,52.754v35.783c0,15.787-0.824,21.793-3.44,26.975c-2.496,5.07-6.412,8.396-14.501,12.15
		l17.002,8.012c0.529-0.262,0.999-0.525,1.494-0.785c-0.063-0.137-0.146-0.262-0.198-0.395c-0.071-0.15-0.146-0.303-0.229-0.533
		c-0.014-0.043-0.076-0.215-0.097-0.254c-1.635-4.135-2.465-8.459-2.465-12.857c0-2.584,0.315-5.254,0.937-7.945
		c1.078-4.572,3.021-8.82,5.795-12.617c2.879-3.926,6.447-7.156,10.605-9.604c0.365-0.213,0.737-0.418,1.114-0.613l0.256-0.137
		c0.655-0.348,1.351-0.602,2.024-0.908v-36.27L90.766,52.754L90.766,52.754z"/>
	<path fill="#2BA977" d="M95.85,142.453c-0.08-0.102-0.162-0.205-0.242-0.311l-0.137-0.184c-0.111-0.145-0.193-0.311-0.309-0.463
		c-0.637,0.342-1.256,0.678-1.938,1.018c-1.074,0.533-2.235,0.797-3.398,0.797c-1.113,0-2.227-0.24-3.262-0.727l-17-8.014
		c-2.682-1.268-4.389-3.967-4.383-6.936c0.008-2.963,1.734-5.66,4.422-6.908c4.045-1.875,6.492-3.439,8.143-4.969
		c-8.438,1.484-15.109,2.109-22.41,2.109c-0.005,0-0.005,0-0.01,0c-26.472-0.035-41.66-13.467-41.66-36.865
		c0-22.815,15.73-38.147,39.145-38.147c0.113,0,0.223,0,0.332,0V23.778c0-4.222,3.416-7.642,7.642-7.642h18.325
		c1.877,0,3.576,0.704,4.904,1.829c1.327-1.125,3.032-1.829,4.901-1.829h18.325c4.216,0,7.64,3.42,7.64,7.642v18.614
		c0,1.571-0.475,3.026-1.282,4.238c1.877,1.393,3.111,3.604,3.111,6.124v33.794c2.195-0.428,4.413-0.682,6.605-0.682
		c0.293,0,0.572,0.018,0.854,0.031l0.182,0.012V52.754c0-2.7-0.732-5.335-2.068-7.633c0.162-0.894,0.242-1.808,0.242-2.729V23.778
		c0-8.429-6.849-15.284-15.282-15.284H88.916c-1.664,0-3.325,0.285-4.9,0.825c-1.574-0.54-3.229-0.825-4.906-0.825H60.787
		c-8.434,0-15.284,6.855-15.284,15.284v11.896C21.927,38.713,6.027,56.499,6.027,81.002c0,27.83,18.431,44.475,49.295,44.502
		c0.799,0,1.587-0.004,2.376-0.018c-0.099,0.701-0.152,1.412-0.155,2.127c-0.018,5.904,3.423,11.35,8.764,13.867l16.996,8.016
		c2.041,0.959,4.291,1.463,6.525,1.463c2.35,0,4.697-0.557,6.807-1.607c0.106-0.051,0.204-0.107,0.313-0.164
		c-0.538-0.535-1.014-1.133-1.309-1.852C94.961,145.717,95.087,144,95.85,142.453z"/>
</g>
</svg>
