<svg width="245" height="245" viewBox="0 0 245 245" fill="none" xmlns="http://www.w3.org/2000/svg">
<g clip-path="url(#clip0_464_9)">
<path fill-rule="evenodd" clip-rule="evenodd" d="M242.291 110.378C244.97 105.737 244.97 100.019 242.291 95.378L194.214 12.1064C191.534 7.46539 186.582 4.60641 181.223 4.60641L85.0696 4.60639C79.7106 4.60639 74.7587 7.46538 72.0792 12.1064L41.0721 65.8122V65.8122C41.0669 65.8122 41.0621 65.815 41.0595 65.8195L2.46138 132.673C-0.218115 137.314 -0.218119 143.032 2.46137 147.673L50.5382 230.945C53.2177 235.586 58.1696 238.445 63.5286 238.445L159.682 238.445C165.041 238.445 169.993 235.586 172.673 230.945L203.68 177.239V177.239C203.685 177.239 203.69 177.236 203.693 177.232L242.291 110.378ZM203.68 177.239L206.945 171.584C209.624 166.943 209.624 161.225 206.945 156.584L158.868 73.3122C156.189 68.6712 151.237 65.8122 145.878 65.8122L41.0721 65.8122L37.807 71.4676C35.1275 76.1086 35.1275 81.8266 37.807 86.4676L85.8839 169.739C88.5634 174.38 93.5153 177.239 98.8743 177.239L203.68 177.239Z" fill="white"/>
</g>
<defs>
<clipPath id="clip0_464_9">
<rect width="245" height="245" fill="white"/>
</clipPath>
</defs>
</svg>
