<?xml version="1.0" encoding="utf-8"?>
<!-- Generator: Adobe Illustrator 24.0.3, SVG Export Plug-In . SVG Version: 6.00 Build 0)  -->
<svg version="1.1" id="Layer_1" xmlns="http://www.w3.org/2000/svg" xmlns:xlink="http://www.w3.org/1999/xlink" x="0px" y="0px"
	 width="385px" height="115.1px" viewBox="0 0 385 115.1" style="enable-background:new 0 0 385 115.1;" xml:space="preserve">
<style type="text/css">
	.st0{fill:#0068AD;}
	.st1{fill:#0072B2;}
	.st2{opacity:0.29;}
	.st3{fill:#020404;}
	.st4{fill:#FFFFFF;}
	.st5{fill:#063654;}
	.st6{fill:#073654;}
	.st7{fill:#606161;}
	.st8{fill:#0069AE;}
</style>
<g>
	<g>
		<path class="st0" d="M82.5,1c-29.4,5.7-56.3,13.6-79,24.6C2.6,26.1,2,27.1,2,28.1v4.4v4.9v4.4v1.4v4.4v4.9v4.4v3.5v9.2v5.8v9.2
			C2,90,4.9,95,9.5,97.7L36,113c4.7,2.7,10.4,2.7,15.1,0l26.5-15.4c4.7-2.7,7.5-7.7,7.5-13.1v-15v-2.9l0,0v-15V38.8v-4.4V23.8v-4.4
			v-2.2v-14C85.2,1.8,83.9,0.8,82.5,1z"/>
	</g>
	<g>
		<path class="st1" d="M82.5,1c-13.6,2.6-26.6,5.8-38.9,9.4V115c2.6,0,5.2-0.7,7.5-2l26.5-15.4c4.7-2.7,7.5-7.7,7.5-13.1v-15v-2.9
			l0,0v-15V38.8v-4.4V23.8v-4.4v-2.2v-14C85.2,1.8,83.9,0.8,82.5,1z"/>
	</g>
	<g class="st2">
		<path class="st3" d="M67.3,17.2C46.8,19.9,28,25,12.2,31.8c-0.7,0.3-1.1,1-1.1,1.7v3.2v3.5v3.2v3.7c0-0.1,0.1-0.2,0.2-0.3
			C27.7,39.6,47.5,34.2,69,31.6h0.1v-0.2V18.9C69.2,17.9,68.3,17.1,67.3,17.2z"/>
	</g>
	<g class="st2">
		<path class="st3" d="M46.9,41.6C34.3,44,22.6,47.5,12.2,51.8c-0.6,0.3-1.1,0.9-1.1,1.7v3.2v3.5v3.2v3.7c0-0.1,0.1-0.2,0.2-0.3
			c10.6-4.5,22.6-8,35.5-10.5V41.6H46.9z"/>
	</g>
	<g>
		<path class="st4" d="M69.6,13.2c-21.3,4.1-40.8,10.6-57.3,18.5c-0.7,0.3-1.1,1-1.1,1.8v3.2v3.5v3.2v3.7c0-0.1,0.1-0.3,0.2-0.3
			c17.1-8.4,37.6-15.2,60-19.3h0.1v-0.2V14.7C71.5,13.7,70.6,13,69.6,13.2z"/>
	</g>
	<g>
		<path class="st4" d="M49.4,38c-13.5,3.7-26,8.4-37.1,13.8c-0.7,0.3-1.1,1-1.1,1.8v3.2v3.5v3.2v3.7c0-0.1,0.1-0.3,0.2-0.3
			c11.3-5.6,24.2-10.4,38-14.2V38z"/>
	</g>
	<g class="st2">
		<path class="st3" d="M25.2,68.3c-4.6,1-8.9,2.1-13,3.5c-0.6,0.2-1,0.8-1,1.5v3.2V80v3.2V87c0-0.1,0.1-0.2,0.2-0.3
			c4.4-1.5,9-2.7,13.9-3.7L25.2,68.3L25.2,68.3z"/>
	</g>
	<g>
		<path class="st4" d="M27.4,65c-5.3,2-10.4,4.2-15.2,6.5c-0.7,0.3-1.1,1-1.1,1.8v3.2V80v3.2V87c0-0.1,0.1-0.3,0.2-0.3
			c5.1-2.5,10.5-4.8,16.1-7V65z"/>
	</g>
</g>
<g>
	<g>
		<g>
			<path class="st5" d="M72.5,60.9l15,8.4c3.3,1.9,5.3,5.3,5.4,9.1L93,95.6c0,3.8-1.9,7.3-5.2,9.2L73,113.5c-3.3,1.9-7.3,2-10.6,0.1
				l-15-8.4c-3.3-1.9-5.3-5.3-5.4-9.1V78.9c0-3.8,1.9-7.3,5.2-9.2L62,61C65.2,59,69.2,59,72.5,60.9z"/>
		</g>
		<g>
			<path class="st5" d="M67.7,115.1c-1.8,0-3.6-0.5-5.3-1.4l-15-8.4c-3.3-1.9-5.4-5.4-5.5-9.2l-0.2-17.2c0-3.8,2-7.4,5.3-9.4
				l14.8-8.7c3.3-1.9,7.4-2,10.7-0.1l15,8.4c3.3,1.9,5.4,5.4,5.5,9.2l0.2,17.2c0,3.8-2,7.4-5.3,9.4l-14.8,8.7
				C71.5,114.7,69.6,115.1,67.7,115.1z M67.3,59.7c-1.8,0-3.7,0.5-5.3,1.4l-14.8,8.7c-3.2,1.9-5.2,5.4-5.1,9.1l0.2,17.2
				c0,3.7,2.1,7.1,5.3,9l15,8.4c3.2,1.8,7.2,1.8,10.4-0.1l14.8-8.7c3.2-1.9,5.2-5.4,5.1-9.1l-0.2-17.2c0-3.7-2.1-7.1-5.3-9l-15-8.4
				C70.9,60.1,69.1,59.7,67.3,59.7z"/>
		</g>
	</g>
	<g>
		<path class="st4" d="M87.2,79.4c0-2.3-1.3-4.4-3.3-5.5l-13.4-7.5c-2-1.1-4.5-1.1-6.4,0.1l-13.2,7.8c-2,1.2-3.2,3.3-3.2,5.6
			l0.2,15.4c0,2.3,1.3,4.4,3.3,5.5l13.4,7.5c2,1.1,4.5,1.1,6.4-0.1l13.2-7.8c2-1.2,3.2-3.3,3.2-5.6L87.2,79.4z M78.6,96.8l-8.1,4.8
			c-1.8,1-4,1.1-5.8,0.1L56.6,97c-1.8-1-2.9-2.9-2.9-5l-0.1-9.4c0-2.1,1.1-4,2.8-5l8.1-4.8c1.8-1,4-1.1,5.8-0.1l8.2,4.6
			c1.8,1,2.9,2.9,2.9,5l0.1,9.4C81.5,93.9,80.4,95.8,78.6,96.8z"/>
	</g>
	<g>
		<circle class="st4" cx="67.5" cy="69.4" r="5.8"/>
		<path class="st6" d="M67.5,75.9c-3.6,0-6.5-2.9-6.5-6.5s2.9-6.5,6.5-6.5s6.5,2.9,6.5,6.5S71.1,75.9,67.5,75.9z M67.5,64.3
			c-2.8,0-5.1,2.3-5.1,5.1c0,2.8,2.3,5.1,5.1,5.1s5.1-2.3,5.1-5.1C72.6,66.6,70.3,64.3,67.5,64.3z"/>
	</g>
	<g>
		<circle class="st4" cx="83.4" cy="95.9" r="5.8"/>
		<path class="st6" d="M83.4,102.4c-3.6,0-6.5-2.9-6.5-6.5s2.9-6.5,6.5-6.5s6.5,2.9,6.5,6.5S87,102.4,83.4,102.4z M83.4,90.8
			c-2.8,0-5.1,2.3-5.1,5.1c0,2.8,2.3,5.1,5.1,5.1c2.8,0,5.1-2.3,5.1-5.1C88.4,93.1,86.1,90.8,83.4,90.8z"/>
	</g>
	<g>
		<circle class="st4" cx="51.4" cy="95.9" r="5.8"/>
		<path class="st6" d="M51.4,102.4c-3.6,0-6.5-2.9-6.5-6.5s2.9-6.5,6.5-6.5s6.5,2.9,6.5,6.5S55,102.4,51.4,102.4z M51.4,90.8
			c-2.8,0-5.1,2.3-5.1,5.1c0,2.8,2.3,5.1,5.1,5.1s5.1-2.3,5.1-5.1C56.4,93.1,54.2,90.8,51.4,90.8z"/>
	</g>
</g>
<g>
	<path class="st7" d="M115.5,28.7c0.2-0.1,0.4-0.2,0.8-0.2H135c0.4,0,0.6,0.1,0.8,0.2s0.2,0.4,0.2,0.8v1.2c0,0.4-0.1,0.7-0.2,0.8
		c-0.2,0.1-0.4,0.2-0.8,0.2h-15.8c-0.3,0-0.5,0.2-0.5,0.5v12.5c0,0.3,0.2,0.5,0.5,0.5h12.1c0.4,0,0.6,0.1,0.8,0.2
		c0.2,0.1,0.2,0.4,0.2,0.8v1.2c0,0.4-0.1,0.7-0.2,0.8c-0.2,0.1-0.4,0.2-0.8,0.2h-12.1c-0.3,0-0.5,0.2-0.5,0.5v14.5
		c0,0.4-0.1,0.7-0.2,0.8c-0.2,0.1-0.4,0.2-0.8,0.2h-1.3c-0.4,0-0.6-0.1-0.8-0.2c-0.2-0.1-0.2-0.4-0.2-0.8V29.5
		C115.3,29.1,115.4,28.8,115.5,28.7z"/>
	<path class="st7" d="M143.2,28.7c0.2-0.1,0.4-0.2,0.8-0.2h1.3c0.4,0,0.6,0.1,0.8,0.2s0.2,0.4,0.2,0.8v34.2c0,0.4-0.1,0.7-0.2,0.8
		c-0.2,0.1-0.4,0.2-0.8,0.2H144c-0.4,0-0.6-0.1-0.8-0.2s-0.2-0.4-0.2-0.8V29.5C142.9,29.1,143,28.8,143.2,28.7z"/>
	<path class="st7" d="M156.3,28.7c0.2-0.1,0.4-0.2,0.8-0.2h1.3c0.4,0,0.6,0.1,0.8,0.2s0.2,0.4,0.2,0.8v31.4c0,0.3,0.2,0.5,0.5,0.5
		h16.3c0.4,0,0.6,0.1,0.8,0.2c0.2,0.1,0.2,0.4,0.2,0.8v1.2c0,0.4-0.1,0.7-0.2,0.8c-0.2,0.1-0.4,0.2-0.8,0.2h-19.1
		c-0.4,0-0.6-0.1-0.8-0.2s-0.2-0.4-0.2-0.8V29.5C156,29.1,156.1,28.8,156.3,28.7z"/>
	<path class="st7" d="M184.4,28.7c0.2-0.1,0.4-0.2,0.8-0.2h18.5c0.4,0,0.6,0.1,0.8,0.2s0.2,0.4,0.2,0.8v1.2c0,0.4-0.1,0.7-0.2,0.8
		c-0.2,0.1-0.4,0.2-0.8,0.2H188c-0.3,0-0.5,0.2-0.5,0.5v12c0,0.3,0.2,0.5,0.5,0.5h10.9c0.4,0,0.7,0.1,0.8,0.2
		c0.2,0.1,0.2,0.4,0.2,0.8V47c0,0.4-0.1,0.7-0.2,0.8c-0.2,0.1-0.4,0.2-0.8,0.2H188c-0.3,0-0.5,0.2-0.5,0.5v12.3
		c0,0.3,0.2,0.5,0.5,0.5h15.7c0.4,0,0.6,0.1,0.8,0.2c0.2,0.1,0.2,0.4,0.2,0.8v1.2c0,0.4-0.1,0.7-0.2,0.8c-0.2,0.1-0.4,0.2-0.8,0.2
		h-18.6c-0.4,0-0.6-0.1-0.8-0.2s-0.2-0.4-0.2-0.8v-34C184.1,29.1,184.2,28.8,184.4,28.7z"/>
	<path class="st7" d="M242.7,59.5c0,0.1-0.1,0.3-0.2,0.4c-0.1,0.2-0.3,0.3-0.5,0.5c-1.8,1.6-3.9,2.8-6.2,3.6
		c-2.3,0.8-4.7,1.3-7.2,1.3c-3.4,0-6.5-0.8-9.3-2.4c-2.8-1.6-5-3.8-6.7-6.6c-1.6-2.8-2.5-6-2.5-9.5c0-3.6,0.8-6.8,2.5-9.6
		c1.6-2.9,3.9-5.1,6.7-6.8c2.8-1.6,6-2.5,9.6-2.5c2.5,0,4.9,0.4,7.1,1.3c2.3,0.9,4.3,2,6,3.5c0.3,0.2,0.5,0.5,0.5,0.8
		c0,0.2-0.1,0.5-0.3,0.8l-1.5,2c-0.3,0.4-0.6,0.6-0.8,0.6s-0.5-0.1-0.9-0.4c-1.5-1.1-3.1-2-4.8-2.7s-3.5-1-5.4-1
		c-2.5,0-4.7,0.6-6.7,1.8s-3.6,2.8-4.8,4.9c-1.2,2.1-1.8,4.5-1.8,7.1s0.6,4.9,1.7,7c1.2,2.1,2.7,3.8,4.8,4.9c2,1.2,4.3,1.8,6.8,1.8
		c3.9,0,7.4-1.2,10.4-3.7c0.4-0.3,0.7-0.5,0.9-0.5c0.1,0,0.3,0.1,0.4,0.2c0.1,0.1,0.3,0.2,0.4,0.4l1.5,2.1
		C242.6,58.9,242.7,59.2,242.7,59.5z"/>
	<path class="st7" d="M249,28.7c0.2-0.2,0.5-0.2,0.9-0.2h2.9c0.4,0,0.7,0.1,0.9,0.2c0.2,0.2,0.3,0.5,0.3,0.9v29.6
		c0,0.2,0,0.4,0.1,0.4c0.1,0.1,0.3,0.1,0.5,0.1h15.3c0.4,0,0.7,0.1,0.9,0.2c0.2,0.2,0.3,0.5,0.3,0.9v2.6c0,0.4-0.1,0.8-0.3,0.9
		c-0.2,0.2-0.5,0.2-0.9,0.2H250c-0.4,0-0.7-0.1-0.9-0.2c-0.2-0.2-0.3-0.5-0.3-0.9v-34C248.7,29.1,248.8,28.8,249,28.7z"/>
	<path class="st7" d="M275.4,37.1c1.6-2.9,3.9-5.1,6.7-6.8c2.8-1.6,6-2.5,9.6-2.5c3.5,0,6.7,0.8,9.5,2.4s5.1,3.8,6.7,6.7
		c1.6,2.8,2.4,6,2.4,9.5s-0.8,6.7-2.5,9.6c-1.6,2.9-3.9,5.1-6.8,6.7c-2.9,1.6-6.1,2.4-9.6,2.4s-6.6-0.8-9.4-2.4
		c-2.8-1.6-5-3.8-6.7-6.7c-1.6-2.8-2.4-6-2.4-9.5C272.9,43.2,273.7,40,275.4,37.1z M298.3,58.6c2.1-1.2,3.7-2.8,4.9-4.9
		c1.2-2.1,1.8-4.5,1.8-7c0-2.7-0.6-5-1.8-7.1c-1.2-2.1-2.8-3.7-4.8-4.9s-4.3-1.8-6.7-1.8c-2.5,0-4.7,0.6-6.7,1.8s-3.6,2.8-4.8,4.9
		c-1.2,2.1-1.8,4.5-1.8,7.1s0.6,4.9,1.7,7c1.2,2.1,2.7,3.7,4.8,4.9c2,1.2,4.3,1.8,6.7,1.8S296.2,59.7,298.3,58.6z"/>
	<path class="st7" d="M317.3,28.7c0.2-0.2,0.5-0.2,0.9-0.2h2.8c0.4,0,0.8,0.1,0.9,0.2c0.2,0.2,0.3,0.5,0.3,0.9v19.5
		c0,3.6,0.8,6.3,2.5,8.3s4,3,7.1,3c2.1,0,3.8-0.4,5.3-1.3c1.5-0.9,2.6-2.2,3.4-3.9s1.2-3.7,1.2-6V29.6c0-0.4,0.1-0.8,0.3-0.9
		c0.2-0.2,0.4-0.2,0.8-0.2h2.9c0.4,0,0.8,0.1,0.9,0.2c0.2,0.2,0.3,0.5,0.3,0.9v19.7c0,3.5-0.6,6.4-1.9,8.8c-1.3,2.4-3.1,4.2-5.4,5.4
		c-2.3,1.2-4.9,1.8-7.9,1.8c-2.9,0-5.4-0.6-7.6-1.7c-2.2-1.1-3.9-2.9-5.2-5.3c-1.2-2.4-1.9-5.3-1.9-8.9V29.6
		C317,29.1,317.1,28.8,317.3,28.7z"/>
	<path class="st7" d="M382.6,36.8c-1.6-2.7-3.8-4.7-6.8-6.2c-3-1.5-6.4-2.2-10.4-2.2h-10.8c-0.4,0-0.7,0.1-0.9,0.2
		c-0.2,0.2-0.3,0.5-0.3,0.9V30v1v1.2c0,0.4,0.1,0.8,0.3,0.9c0.2,0.2,0.5,0.2,0.9,0.2h1.1l0,0h7.8l0,0h1.5c3,0,5.7,0.5,7.8,1.6
		c2.2,1.1,3.9,2.6,5,4.6c1.2,2,1.7,4.2,1.7,6.8c0,2.8-0.6,5.1-1.7,7.1c-1.2,2-2.8,3.5-5.1,4.6s-4.9,1.6-8,1.6h-5.5l0,0h-3.8l0,0
		h-0.8c-0.4,0-0.7,0.1-0.9,0.2c-0.2,0.2-0.3,0.5-0.3,0.9v1.4v0.8v0.4c0,0.4,0.1,0.8,0.3,0.9c0.2,0.2,0.5,0.2,0.9,0.2h10
		c4.1,0,7.7-0.8,10.8-2.3c3.1-1.5,5.4-3.7,7-6.5s2.5-6.1,2.5-9.8C385,42.6,384.2,39.5,382.6,36.8z"/>
</g>
<path class="st8" d="M141.7,90.1c-0.3-0.2-0.7-0.2-1.1,0.1c-1.1,0.8-2,1.4-3.6,1.4c-2.8,0-5.2-2.4-5.2-5.3c0-3,2.3-5.4,5.2-5.4
	c1.2,0,2.5,0.5,3.5,1.4c0.2,0.2,0.5,0.3,0.7,0.3s0.4-0.1,0.6-0.3l0.5-0.5c0.2-0.2,0.3-0.4,0.3-0.6s-0.1-0.5-0.3-0.7
	c-1.6-1.4-3.3-2-5.3-2c-4.3,0-7.9,3.5-7.9,7.9c0,4.3,3.5,7.8,7.9,7.8c2,0,3.9-0.7,5.3-2.1c0.2-0.2,0.3-0.5,0.3-0.7s-0.1-0.4-0.3-0.6
	L141.7,90.1z"/>
<path class="st8" d="M153,78.4c-4.3,0-7.8,3.5-7.8,7.9s3.4,7.8,7.8,7.8c4.3,0,7.8-3.5,7.8-7.8C160.9,82,157.4,78.4,153,78.4z
	 M158.4,86.3c0,3-2.4,5.4-5.4,5.4s-5.4-2.4-5.4-5.4s2.4-5.4,5.4-5.4S158.4,83.3,158.4,86.3z"/>
<path class="st8" d="M177.4,79.1c-0.1-0.4-0.5-0.7-0.9-0.7h-0.3c-0.4,0-0.7,0.2-0.8,0.6l-3.5,10l-3.6-10c-0.1-0.3-0.5-0.6-0.8-0.6
	h-0.3c-0.4,0-0.8,0.3-0.9,0.7l-2.6,13.7c-0.1,0.3,0,0.6,0.2,0.8c0.2,0.2,0.4,0.3,0.7,0.3h0.8c0.4,0,0.8-0.3,0.9-0.7l1.5-8.7l3.2,9
	c0.1,0.4,0.5,0.6,0.8,0.6h0.4c0.3,0,0.7-0.2,0.8-0.6l3.1-9l1.5,8.7c0.1,0.4,0.5,0.7,0.9,0.7h0.8c0.3,0,0.5-0.1,0.7-0.3
	c0.2-0.2,0.2-0.5,0.2-0.8L177.4,79.1z"/>
<path class="st8" d="M196.5,79.1c-0.1-0.4-0.5-0.7-0.9-0.7h-0.3c-0.4,0-0.7,0.2-0.8,0.6L191,89l-3.6-10c-0.1-0.3-0.5-0.6-0.8-0.6
	h-0.3c-0.4,0-0.8,0.3-0.9,0.7l-2.6,13.7c-0.1,0.3,0,0.6,0.2,0.8c0.2,0.2,0.4,0.3,0.7,0.3h0.8c0.4,0,0.8-0.3,0.9-0.7l1.5-8.7l3.2,9
	c0.1,0.4,0.5,0.6,0.8,0.6h0.4c0.3,0,0.7-0.2,0.8-0.6l3.1-9l1.5,8.7c0.1,0.4,0.5,0.7,0.9,0.7h0.8c0.3,0,0.5-0.1,0.7-0.3
	c0.2-0.2,0.2-0.5,0.2-0.8L196.5,79.1z"/>
<path class="st8" d="M213.6,78.6h-0.8c-0.5,0-0.9,0.4-0.9,0.9V88c0,2.1-1.3,3.6-3.4,3.6c-2,0-3.3-1.5-3.3-3.6v-8.5
	c0-0.5-0.4-0.9-0.9-0.9h-0.8c-0.5,0-0.9,0.4-0.9,0.9v8.6c0,3.5,2.5,6,5.9,6s5.9-2.5,5.9-6v-8.6C214.5,79.1,214.1,78.6,213.6,78.6z"
	/>
<path class="st8" d="M230.8,78.6h-0.7c-0.5,0-0.9,0.4-0.9,0.9V89l-8.5-10.5H220c-0.5,0-0.9,0.4-0.9,0.9V93c0,0.5,0.4,0.9,0.9,0.9
	h0.7c0.5,0,0.9-0.4,0.9-0.9v-9.6l8.6,10.7h0.6c0.5,0,0.9-0.4,0.9-0.9V79.5C231.7,79.1,231.3,78.6,230.8,78.6z"/>
<path class="st8" d="M238.2,78.6h-0.8c-0.5,0-0.9,0.4-0.9,0.9V93c0,0.5,0.4,0.9,0.9,0.9h0.8c0.5,0,0.9-0.4,0.9-0.9V79.5
	C239.1,79.1,238.7,78.6,238.2,78.6z"/>
<path class="st8" d="M251.5,78.6h-8.6c-0.5,0-0.9,0.4-0.9,0.9v0.6c0,0.5,0.4,0.9,0.9,0.9h3v12c0,0.5,0.4,0.9,0.9,0.9h0.8
	c0.5,0,0.9-0.4,0.9-0.9V81h3c0.5,0,0.9-0.4,0.9-0.9v-0.6C252.4,79,252,78.6,251.5,78.6z"/>
<path class="st8" d="M264.8,78.6h-1c-0.3,0-0.6,0.1-0.7,0.4l-3.7,5.1l-3.7-5.1c-0.2-0.2-0.5-0.4-0.7-0.4h-1c-0.3,0-0.6,0.2-0.8,0.5
	s-0.1,0.6,0,1l4.8,6.7V93c0,0.5,0.4,0.9,0.9,0.9h0.8c0.5,0,0.9-0.4,0.9-0.9v-6.3l4.9-6.7c0.2-0.3,0.2-0.6,0-0.9
	C265.4,78.8,265.1,78.6,264.8,78.6z"/>
<path class="st8" d="M284.8,78.6h-8c-0.5,0-0.9,0.4-0.9,0.9V93c0,0.5,0.4,0.9,0.9,0.9h8c0.5,0,0.9-0.4,0.9-0.9v-0.6
	c0-0.5-0.4-0.9-0.9-0.9h-6.3v-4.2h5.3c0.5,0,0.9-0.4,0.9-0.9v-0.6c0-0.5-0.4-0.9-0.9-0.9h-5.3V81h6.3c0.5,0,0.9-0.4,0.9-0.9v-0.6
	C285.7,79,285.3,78.6,284.8,78.6z"/>
<path class="st8" d="M295,78.6h-4.6c-0.5,0-0.9,0.4-0.9,0.9V93c0,0.5,0.4,0.9,0.9,0.9h4.6c4.2,0,7.7-3.4,7.7-7.7
	C302.7,82,299.2,78.6,295,78.6z M299.9,86.2c0,3.1-2.2,5.2-5.2,5.2h-2.5V81h2.5C297.8,81,299.9,83.2,299.9,86.2z"/>
<path class="st8" d="M308.1,78.6h-0.8c-0.5,0-0.9,0.4-0.9,0.9V93c0,0.5,0.4,0.9,0.9,0.9h0.8c0.5,0,0.9-0.4,0.9-0.9V79.5
	C309,79,308.6,78.6,308.1,78.6z"/>
<path class="st8" d="M321.4,78.6h-8.6c-0.5,0-0.9,0.4-0.9,0.9v0.6c0,0.5,0.4,0.9,0.9,0.9h3v12c0,0.5,0.4,0.9,0.9,0.9h0.8
	c0.5,0,0.9-0.4,0.9-0.9V81h3c0.5,0,0.9-0.4,0.9-0.9v-0.6C322.3,79,321.9,78.6,321.4,78.6z"/>
<path class="st8" d="M326.8,78.6H326c-0.5,0-0.9,0.4-0.9,0.9V93c0,0.5,0.4,0.9,0.9,0.9h0.8c0.5,0,0.9-0.4,0.9-0.9V79.5
	C327.7,79,327.3,78.6,326.8,78.6z"/>
<path class="st8" d="M339.3,78.4c-4.3,0-7.8,3.5-7.8,7.9s3.4,7.8,7.8,7.8c4.3,0,7.8-3.5,7.8-7.8C347.1,81.9,343.6,78.4,339.3,78.4z
	 M344.7,86.3c0,3-2.4,5.4-5.4,5.4s-5.4-2.4-5.4-5.4s2.4-5.4,5.4-5.4C342.2,80.9,344.7,83.3,344.7,86.3z"/>
<path class="st8" d="M362.5,78.6h-0.7c-0.5,0-0.9,0.4-0.9,0.9v9.4l-8.5-10.5h-0.8c-0.5,0-0.9,0.4-0.9,0.9V93c0,0.5,0.4,0.9,0.9,0.9
	h0.7c0.5,0,0.9-0.4,0.9-0.9v-9.6l8.6,10.7h0.6c0.5,0,0.9-0.4,0.9-0.9V79.5C363.4,79,363,78.6,362.5,78.6z"/>
</svg>
