<?xml version="1.0" encoding="utf-8"?>
<!-- Generator: Adobe Illustrator 16.0.0, SVG Export Plug-In . SVG Version: 6.00 Build 0)  -->
<!DOCTYPE svg PUBLIC "-//W3C//DTD SVG 1.1//EN" "http://www.w3.org/Graphics/SVG/1.1/DTD/svg11.dtd">
<svg version="1.1" id="Layer_1" xmlns="http://www.w3.org/2000/svg" xmlns:xlink="http://www.w3.org/1999/xlink" x="0px" y="0px"
	 width="160px" height="160px" viewBox="0 0 160 160" enable-background="new 0 0 160 160" xml:space="preserve">
<g>
	<g>
		<path fill="#FFCC00" d="M145.019,94.84c-0.365,0-0.701,0.108-1.166,0.352l-2.305,1.222l-2.946,1.561l-3.084,1.636l-5.038,2.654
			l-0.867,0.461l-6.067,3.209l-1.051,0.557l-3.558,1.881l-2.137,1.131l-1.275,0.674l-1.574,0.832l-6.918,3.654l-2.024,1.07
			c-0.774,0.406-1.245,1.117-1.264,1.887c-0.008,0.781,0.432,1.486,1.198,1.926l0.424,0.24l2.649,1.523l3.994,2.299l1.94,1.119
			l1.102,0.637c0.398,0.227,0.677,0.627,0.732,1.094c0.028,0.168-0.017,0.338-0.049,0.5c-0.059,0.277-0.172,0.541-0.368,0.738
			l-4.16,4.16l-3.604,3.604l-2.24,2.242l-2.159,2.156l-2.129,2.129l-1.241,1.244c-0.71,0.695-0.916,1.373-0.633,2.049
			c0.222,0.539,0.838,0.953,1.434,0.953c0.354,0,0.701-0.107,1.162-0.346l0.145-0.076l0.828-0.439l1.337-0.709l0.29-0.154
			l1.003-0.529l1.658-0.877l3.081-1.629l1.613-0.852l3.272-1.732l3.913-2.068l7.368-3.896l8.242-4.365l6.106-3.23
			c0.773-0.412,1.233-1.102,1.25-1.891c0.021-0.764-0.418-1.48-1.178-1.92l-10.104-5.846c-0.389-0.229-0.66-0.635-0.725-1.094
			c-0.055-0.447,0.102-0.906,0.42-1.238l9.976-9.975l2.157-2.148l2.135-2.134l1.236-1.236c0.71-0.716,0.916-1.393,0.626-2.062
			C146.231,95.245,145.614,94.84,145.019,94.84z"/>
		<path fill="#33CCCC" d="M146.042,100.684l-4.3,4.299c3.488,4.234,5.595,9.65,5.595,15.551c0,12.08-8.785,22.143-20.3,24.146
			c-1.371,0.238-2.776,0.369-4.214,0.369c-4.647,0-8.976-1.324-12.686-3.576l-3.079,1.629l-1.659,0.877l-1.003,0.529l-0.29,0.154
			c1.733,1.348,3.615,2.51,5.615,3.469c1.304,0.623,2.656,1.16,4.055,1.598c2.858,0.895,5.896,1.383,9.047,1.383
			c16.857,0,30.581-13.713,30.581-30.58C153.404,112.955,150.62,106.031,146.042,100.684z"/>
		<path fill="#33CCCC" d="M134.294,92.251c-0.348-0.142-0.686-0.296-1.039-0.426c-1.872-0.683-3.829-1.162-5.845-1.466
			c-1.154-0.178-2.326-0.312-3.522-0.354c-0.009,0-0.016,0-0.023,0c-0.004-0.001-0.008-0.001-0.013-0.001
			c-0.343-0.009-0.679-0.046-1.028-0.046c-2.266,0-4.47,0.263-6.593,0.734c-1.468,0.328-2.887,0.771-4.266,1.3
			c-1.15,0.445-2.276,0.945-3.359,1.518c-0.404,0.216-0.809,0.428-1.203,0.658c-3.647,2.14-6.797,5.014-9.279,8.405
			c-1.097,1.504-2.051,3.113-2.86,4.803c-0.942,1.967-1.685,4.045-2.195,6.213c-0.516,2.236-0.819,4.549-0.819,6.941
			c0,3.965,0.78,7.752,2.155,11.225c0.05,0.113,0.083,0.234,0.127,0.352c0.041,0.096,0.091,0.184,0.13,0.279
			c0.187,0.441,0.396,0.873,0.603,1.303c0.89,1.85,1.953,3.596,3.175,5.217c0.02,0.021,0.033,0.047,0.052,0.068
			c0.315,0.42,0.628,0.84,0.966,1.242c0.52,0.613,1.051,1.201,1.619,1.77l2.129-2.131l2.159-2.154
			c-0.266-0.271-0.515-0.555-0.763-0.832c-0.418-0.469-0.814-0.957-1.194-1.455c-0.009-0.01-0.015-0.018-0.022-0.025
			c-0.849-1.109-1.593-2.293-2.247-3.533c-0.54-1.029-1.02-2.094-1.409-3.205c-0.024-0.066-0.041-0.137-0.062-0.203
			c-0.179-0.516-0.331-1.043-0.476-1.572c-0.556-2.025-0.878-4.145-0.878-6.346c0-0.029,0-0.049,0-0.082
			c0.023-5.615,1.954-10.777,5.161-14.906c1.44-1.859,3.143-3.498,5.049-4.877c1.662-1.2,3.486-2.188,5.429-2.946
			c0.739-0.292,1.493-0.553,2.268-0.77c0.884-0.25,1.794-0.443,2.717-0.594c1.157-0.188,2.344-0.307,3.553-0.322
			c0.116,0,0.221-0.014,0.334-0.014c0.076,0,0.15,0.004,0.229,0.007c0.265,0.004,0.532,0.007,0.797,0.019
			c2.767,0.118,5.405,0.712,7.862,1.677c0.054,0.019,0.106,0.033,0.159,0.056c0.457,0.178,0.895,0.389,1.336,0.599l6.36-3.366
			C137.91,93.931,136.146,93.004,134.294,92.251z"/>
	</g>
	<path fill="#CB0052" d="M58.651,45.098l-12.939-7.927v-7l10.997-6.549h27.617l10.947,6.548v6.993l-12.948,7.935H58.651z
		 M98.333,61.51l-2.809-21.607l-11.042,6.623L98.333,61.51z M97.59,32.335v4.8l9.533,5.249L97.59,32.335z M43.397,32.335
		l-9.533,10.049l9.533-5.249V32.335z M100.731,61.95l10.645-14.502l-13.502-7.505L100.731,61.95z M92.538,134.945
		c-0.213-0.441-0.433-0.896-0.655-1.424l0.014,0.035c-0.044-0.092-0.088-0.184-0.128-0.277c-0.016-0.037-0.03-0.074-0.044-0.111
		c-0.029-0.076-0.057-0.154-0.097-0.273c-0.005-0.012-0.009-0.023-0.014-0.035c-0.163-0.41-0.312-0.824-0.458-1.238v3.01
		c0,1.346,1.088,2.434,2.432,2.434c0.022,0,0.043-0.006,0.065-0.008c-0.385-0.676-0.756-1.363-1.094-2.064L92.538,134.945z
		 M89.543,124.91c0.219,1.639,0.555,3.262,1.017,4.859H72.924v4.861c0,1.346-1.087,2.434-2.429,2.434
		c-1.345,0-2.431-1.088-2.431-2.434v-4.861H49.833v4.861c0,1.346-1.088,2.434-2.433,2.434c-1.344,0-2.431-1.088-2.431-2.434v-4.861
		H26.737v4.861c0,1.346-1.087,2.434-2.431,2.434c-1.342,0-2.429-1.088-2.429-2.434v-4.861h-2.43c-1.347,0-2.434-1.088-2.434-2.432
		c0-1.342,1.087-2.428,2.434-2.428h2.43V90.875h-2.43c-1.347,0-2.434-1.086-2.434-2.429c0-1.344,1.087-2.432,2.434-2.432h2.43
		v-4.862c0-1.342,1.087-2.431,2.429-2.431c1.343,0,2.431,1.089,2.431,2.431v4.862h18.231v-4.862c0-1.342,1.087-2.431,2.431-2.431
		c1.345,0,2.433,1.089,2.433,2.431v4.862h10.773l5.776,4.86H49.833v34.035h18.231V92.295l0.188,0.158
		c0.646,0.542,1.442,0.816,2.237,0.816c0.296,0,0.591-0.039,0.879-0.115c0.592-0.134,1.113-0.447,1.555-0.854v32.609H89.543z
		 M44.969,90.875H26.737v34.035h18.231V90.875z M121.542,86.015h-2.429v-4.862c0-1.342-1.088-2.431-2.43-2.431
		c-1.348,0-2.436,1.089-2.436,2.431v4.862h-18.23v-4.862c0-1.342-1.086-2.431-2.43-2.431s-2.432,1.089-2.432,2.431v4.862H80.386
		l-5.766,4.86h16.536v18.59c0.405-1.148,0.872-2.279,1.401-3.385c0.895-1.867,1.952-3.643,3.145-5.277
		c0.103-0.139,0.212-0.271,0.315-0.408v-9.52h11.155l0.031-0.017c1.139-0.602,2.342-1.146,3.686-1.666
		c1.569-0.603,3.146-1.082,4.69-1.428c2.406-0.534,4.844-0.806,7.243-0.806c0.221,0,0.436,0.013,0.65,0.024
		C123.03,86.398,122.334,86.015,121.542,86.015z M29.611,47.448l10.645,14.5l2.855-22L29.611,47.448z M45.452,39.902l-1.93,14.868
		l-0.875,6.739l13.833-14.966L45.452,39.902z M82.943,48.276l-0.979,1.97L72.58,69.272l6.527-1.308l5.719-1.17
		c0.004,0,0.006,0,0.006,0c0.002,0,0.002,0,0.002,0l12.861-2.563L82.943,48.276z M79.823,70.182l-8.089,1.654v14.101l10.804-16.299
		L79.823,70.182z M96.992,141.939c-0.293-0.359-0.564-0.715-0.823-1.059l-0.058-0.076c-0.019-0.025-0.036-0.049-0.054-0.072
		c-0.006-0.008-0.011-0.014-0.016-0.021c-0.14-0.186-0.27-0.379-0.406-0.566c-0.645,0.244-1.331,0.391-2.048,0.391
		c-2.732,0-5.149-1.93-5.757-4.592c-0.358-1.58-1.766-2.703-3.388-2.703h-4.806c-1.623,0-3.026,1.123-3.387,2.703
		c-0.605,2.662-3.024,4.592-5.755,4.592s-5.151-1.93-5.757-4.592c-0.36-1.58-1.765-2.703-3.388-2.703h-4.806
		c-1.62,0-3.026,1.123-3.387,2.703c-0.604,2.662-3.028,4.592-5.757,4.592c-2.73,0-5.151-1.93-5.757-4.592
		c-0.358-1.58-1.766-2.703-3.385-2.703H33.45c-1.621,0-3.027,1.123-3.386,2.703c-0.605,2.662-3.026,4.592-5.757,4.592
		c-3.04,0-5.566-2.279-5.873-5.303c-0.115-1.141-0.786-2.148-1.796-2.699c-1.91-1.041-3.095-3.029-3.095-5.195
		c0-2.146,1.175-4.129,3.066-5.176c1.109-0.607,1.796-1.773,1.796-3.041V96.663c0-1.266-0.687-2.432-1.796-3.041
		c-1.892-1.045-3.066-3.029-3.066-5.176c0-2.164,1.186-4.154,3.095-5.193c1.01-0.547,1.681-1.558,1.796-2.698
		c0.307-3.022,2.833-5.306,5.873-5.306c2.729,0,5.151,1.932,5.758,4.593c0.361,1.58,1.764,2.701,3.385,2.701h4.808
		c1.619,0,3.023-1.123,3.383-2.701c0.201-0.874,0.615-1.694,1.231-2.437c1.221-1.47,1.028-3.646-0.43-4.877l-4.744-3.995
		c-0.338-0.291-0.58-0.549-0.804-0.855L23.782,49.815c-0.582-0.794-0.901-1.773-0.897-2.794c-0.006-1.189,0.459-2.362,1.278-3.226
		L40.827,26.23c0.425-0.453,0.936-0.812,1.518-1.058c0.141-0.061,0.282-0.129,0.417-0.21l10.871-6.476
		c0.721-0.429,1.538-0.653,2.374-0.653H84.26c0.833,0,1.648,0.225,2.359,0.645L97.521,25c0.132,0.08,0.268,0.148,0.408,0.208
		c0.564,0.244,1.067,0.603,1.519,1.08l16.121,16.99c0.074,0.082,0.154,0.155,0.236,0.228c0.635,0.558,1.104,1.271,1.356,2.07
		c0.045,0.137,0.097,0.271,0.154,0.4c0.128,0.283,0.227,0.58,0.299,0.895c0.288,1.287-0.002,2.645-0.785,3.704
		c-8.891,11.91-12.946,17.346-15.044,19.211c-0.125,0.114-0.238,0.232-0.342,0.356c-0.596,0.479-1.586,1.285-2.87,2.332
		c-0.719,0.584-1.172,1.434-1.261,2.355c-0.089,0.926,0.197,1.846,0.787,2.559c0.624,0.746,1.04,1.572,1.244,2.453
		c0.36,1.58,1.764,2.701,3.386,2.701h4.807c1.622,0,3.022-1.121,3.386-2.701c0.605-2.661,3.03-4.593,5.761-4.593
		c3.041,0,5.565,2.278,5.87,5.304c0.118,1.142,0.789,2.153,1.797,2.7c1.571,0.855,2.641,2.359,2.974,4.071
		c0.182,0.025,0.347,0.04,0.533,0.068c2.261,0.341,4.423,0.884,6.432,1.616c0.023,0.009,0.046,0.02,0.069,0.028
		c0.01-0.197,0.033-0.392,0.033-0.591c0-4.113-1.966-7.937-5.222-10.34c-1.374-5.697-6.464-9.804-12.486-9.804
		c-1.943,0-3.81,0.449-5.493,1.257c2.499-3.167,5.978-7.823,11.22-14.847c1.986-2.698,2.709-6.108,1.986-9.345
		c-0.157-0.714-0.386-1.415-0.676-2.083c-0.633-1.882-1.737-3.565-3.215-4.894l-16.004-16.862c-1.025-1.104-2.233-1.975-3.596-2.597
		L90.17,12.512c-1.789-1.063-3.835-1.623-5.91-1.623H56.007c-2.083,0-4.13,0.563-5.925,1.63l-10.689,6.367
		c-1.38,0.619-2.601,1.493-3.619,2.581L19.131,39.014c-2.044,2.146-3.208,5.077-3.191,8.013c-0.009,2.464,0.787,4.914,2.245,6.898
		l11.404,15.534c-1.628-0.743-3.422-1.156-5.282-1.156c-6.021,0-11.108,4.106-12.484,9.802c-3.262,2.405-5.227,6.229-5.227,10.342
		c0,3.951,1.822,7.644,4.863,10.061v18.771c-3.042,2.418-4.863,6.113-4.863,10.061c0,4.113,1.965,7.936,5.226,10.34
		c1.377,5.699,6.465,9.805,12.485,9.805c4.945,0,9.421-2.91,11.547-7.227c2.125,4.316,6.601,7.227,11.546,7.227
		c4.941,0,9.422-2.912,11.548-7.227c2.124,4.314,6.603,7.227,11.547,7.227c4.944,0,9.421-2.91,11.544-7.227
		c2.126,4.316,6.602,7.227,11.549,7.227c1.087,0,2.146-0.156,3.168-0.422c-0.123-0.199-0.233-0.406-0.322-0.623
		C96.114,145.678,95.614,143.852,96.992,141.939z M76.083,83.566l19.674-16.583l-10.014,2.012L76.083,83.566z M80.762,47.455H60.218
		l1.035,2.097l9.237,18.569l9.466-19.029L80.762,47.455z M45.231,66.986l20.026,16.873l-9.827-14.827L45.231,66.986z M56.315,66.795
		c0.001,0.002,0.003,0,0.005,0l12.077,2.468L59.025,50.27l-0.991-1.993L43.287,64.229l13.024,2.565H56.315z M69.417,85.944V71.841
		l-10.782-2.163L69.417,85.944z"/>
</g>
</svg> 