<svg width="300" height="65" viewBox="0 0 300 65" fill="none" xmlns="http://www.w3.org/2000/svg">
<path d="M32.5387 42.6231L35.0212 36.4315C55.7839 36.4179 60.6645 19.7996 60.4592 12.1287C60.2539 4.45787 53.6656 -0.330141 47.3124 0.0177637C43.9939 0.19949 36.7004 2.32555 32.1191 14.9255C29.8968 21.0372 27.1163 28.6839 26.8669 29.3699C11.6641 23.1704 14.5568 8.32266 14.9702 5.94212C13.5859 5.75706 12.1775 5.89477 10.8553 6.34445C0.290013 9.29614 0.285965 27.8697 24.9862 34.5423L23.6185 38.3039C4.44241 31.3075 0.288135 41.0691 0.0390471 43.5178C-0.497028 48.786 4.55381 53.0559 11.0577 54.3547C14.3776 55.052 17.8231 54.8589 21.0442 53.795C24.2653 52.7311 27.1473 50.8342 29.3974 48.2971C29.3974 48.2971 39.343 56.0622 49.1944 62.8071C55.252 66.9545 64.0602 63.6358 64.7071 56.2458C54.6892 57.9043 40.3498 46.5403 32.5387 42.6231ZM44.1482 11.33C45.1437 8.59265 46.8546 4.64178 49.9921 5.07373C52.9816 5.48532 52.8101 8.54319 52.8024 11.0836C52.7907 14.9389 50.2926 26.3268 41.4759 30.367C40.0021 30.9466 38.4442 31.2845 36.8625 31.3675C37.7341 28.9702 43.4016 13.3836 44.1482 11.33ZM14.3172 49.5638C11.1988 50.1337 8.8482 48.5186 8.44982 45.7568C8.08713 43.2419 10.9038 37.5041 21.7662 43.3984C20.4227 47.0932 18.1307 48.8668 14.3172 49.5638Z" fill="#346EE0"/>
<path fill-rule="evenodd" clip-rule="evenodd" d="M174.263 45.8669C173.134 46.818 171.582 47.2936 169.606 47.2936C168.231 47.2936 167.049 47.0823 166.061 46.6595C165.108 46.2015 164.315 45.6203 163.68 44.9157C163.045 44.1759 162.586 43.348 162.304 42.432C162.022 41.5161 161.88 40.5825 161.88 39.6313V39.1029C161.88 38.8915 161.898 38.6978 161.933 38.5216L155.795 39.5785C155.795 39.7546 155.777 39.9132 155.742 40.0541V40.5297C155.742 41.9036 155.989 43.3128 156.483 44.7572C156.977 46.2015 157.77 47.5402 158.864 48.7733C159.993 49.971 161.439 50.9575 163.203 51.7325C164.967 52.5075 167.119 52.895 169.659 52.895C171.635 52.895 173.417 52.578 175.004 51.9439C176.627 51.3097 178.003 50.4642 179.132 49.4074C180.261 48.3505 181.125 47.1527 181.725 45.814C182.324 44.4401 182.624 43.0133 182.624 41.5337C182.624 39.3847 182.025 37.4648 180.825 35.7738C179.626 34.0476 177.685 32.5856 175.004 31.3878L170.294 29.274C169.342 28.8513 168.566 28.27 167.966 27.5302C167.402 26.7904 167.119 25.8568 167.119 24.7295C167.119 23.2499 167.666 21.9993 168.76 20.9776C169.853 19.956 171.388 19.4452 173.364 19.4452C174.881 19.4452 176.098 19.6918 177.015 20.185C177.932 20.6782 178.62 21.2594 179.079 21.9288C179.573 22.5981 179.89 23.2851 180.031 23.9897C180.172 24.6943 180.243 25.2579 180.243 25.6807L186.223 24.6238C186.223 23.6022 186.011 22.4748 185.588 21.2418C185.2 19.9736 184.512 18.7934 183.524 17.7013C182.571 16.6092 181.284 15.6933 179.661 14.9535C178.073 14.2137 176.08 13.8438 173.681 13.8438C171.882 13.8438 170.189 14.1432 168.601 14.7421C167.013 15.3058 165.62 16.116 164.421 17.1729C163.256 18.1945 162.339 19.4099 161.669 20.8191C160.998 22.2282 160.663 23.7607 160.663 25.4165C160.663 27.812 161.281 29.8025 162.515 31.3878C163.75 32.9731 165.497 34.2765 167.754 35.2982L172.464 37.4119C173.805 38.0108 174.722 38.733 175.216 39.5785C175.745 40.3888 176.01 41.2519 176.01 42.1678C176.01 43.6827 175.427 44.9157 174.263 45.8669ZM100.534 18.9528C100.534 18.3539 100.657 17.7902 100.904 17.2618C101.151 16.7333 101.469 16.2754 101.857 15.8879C102.28 15.5003 102.757 15.2009 103.286 14.9895C103.815 14.7429 104.362 14.6196 104.926 14.6196C105.985 14.6196 106.849 14.9543 107.519 15.6236C108.19 16.293 108.525 17.1209 108.525 18.1073C108.525 18.7414 108.401 19.3227 108.154 19.8511C107.907 20.3795 107.572 20.8551 107.149 21.2779C106.761 21.6654 106.302 21.9648 105.773 22.1762C105.244 22.3876 104.697 22.4933 104.132 22.4933C103.074 22.4933 102.21 22.1586 101.539 21.4893C100.869 20.7847 100.534 19.9392 100.534 18.9528ZM94.9455 52.1024L100.449 26.3676H106.535L101.031 52.1024H94.9455ZM69.3359 52.1024L77.2737 14.6364H83.6239L76.9562 46.0782H93.6783L92.4083 52.1024H69.3359ZM112.757 52.1024H118.789L133.871 26.3676H127.045L117.043 44.7572L114.503 26.3676H108.206L112.757 52.1024ZM149.435 36.4079V36.0908C149.47 35.9147 149.488 35.7562 149.488 35.6152C149.488 35.0516 149.4 34.4879 149.223 33.9243C149.047 33.3254 148.747 32.7969 148.324 32.3389C147.936 31.8457 147.407 31.4582 146.736 31.1764C146.066 30.8593 145.237 30.7008 144.249 30.7008C143.297 30.7008 142.415 30.8593 141.603 31.1764C140.827 31.4935 140.139 31.9162 139.539 32.4446C138.94 32.9731 138.428 33.5896 138.005 34.2942C137.581 34.9635 137.264 35.6681 137.052 36.4079H149.435ZM136.364 40.8996C136.329 41.0757 136.311 41.2695 136.311 41.4809C136.311 43.3128 136.876 44.81 138.005 45.9726C139.134 47.0999 140.598 47.6635 142.397 47.6635C144.09 47.6635 145.484 47.2936 146.578 46.5538C147.671 45.7788 148.465 44.8981 148.959 43.9117L153.669 46.501C153.245 47.3465 152.663 48.1567 151.922 48.9318C151.217 49.7068 150.388 50.3938 149.435 50.9927C148.483 51.5563 147.389 52.0143 146.154 52.3666C144.955 52.7189 143.649 52.895 142.238 52.895C140.651 52.895 139.134 52.6308 137.687 52.1024C136.276 51.574 135.024 50.8165 133.93 49.8301C132.872 48.8085 132.025 47.5755 131.39 46.1311C130.755 44.6515 130.437 42.9781 130.437 41.111C130.437 38.6802 130.826 36.5136 131.602 34.6112C132.413 32.6736 133.471 31.0355 134.777 29.6968C136.082 28.3581 137.564 27.3364 139.222 26.6319C140.915 25.9273 142.644 25.575 144.408 25.575C146.172 25.575 147.742 25.8392 149.118 26.3676C150.493 26.8961 151.64 27.6359 152.557 28.5871C153.51 29.503 154.233 30.6127 154.727 31.9162C155.221 33.2197 155.468 34.6464 155.468 36.1965C155.468 37.0772 155.38 37.9404 155.203 38.7858C155.062 39.5961 154.903 40.3007 154.727 40.8996H136.364ZM207.969 26.3676L210.139 44.0702L218.87 26.3676H225.326L211.885 52.1024H205.747L203.418 33.7129L193.84 52.1024H187.49L184.95 26.3676H190.824L192.305 44.0173L201.513 26.3676H207.969ZM236.863 45.0214C236.828 45.5498 236.81 45.9726 236.81 46.2896C236.81 48.192 237.41 49.6892 238.609 50.7813C239.809 51.8734 241.467 52.4194 243.584 52.4194C244.36 52.4194 244.995 52.349 245.489 52.2081C246.018 52.1024 246.406 51.9967 246.653 51.891L247.658 46.9766C247.023 47.0823 246.424 47.1351 245.859 47.1351C244.801 47.1351 244.06 46.9237 243.637 46.501C243.249 46.0782 243.054 45.5674 243.054 44.9685C243.054 44.6162 243.107 44.2287 243.213 43.806L245.753 31.8105H250.833L251.998 26.3676H246.865L248.611 18.494H243.054L242.261 22.193C241.979 23.4965 241.414 24.5181 240.567 25.2579C239.756 25.9977 238.609 26.3676 237.128 26.3676H236.175L235.011 31.8105H239.668L237.234 43.1719C237.057 43.8764 236.934 44.4929 236.863 45.0214ZM269.807 35.7209C269.525 34.5231 268.925 33.4663 268.008 32.5503C267.09 31.5991 265.75 31.1235 263.986 31.1235C263.033 31.1235 262.081 31.3349 261.128 31.7577C260.211 32.1452 259.382 32.7441 258.641 33.5543C257.9 34.3646 257.3 35.3686 256.842 36.5664C256.383 37.7642 256.154 39.1734 256.154 40.7939C256.154 42.8372 256.718 44.4577 257.847 45.6555C259.011 46.818 260.546 47.3993 262.451 47.3993C263.298 47.3993 264.056 47.276 264.727 47.0294C265.432 46.7828 266.032 46.4658 266.526 46.0782C267.055 45.6555 267.514 45.1975 267.902 44.7043C268.29 44.1759 268.625 43.6474 268.907 43.119L273.987 45.1799C273.493 46.1663 272.876 47.1351 272.135 48.0863C271.43 49.0022 270.583 49.8125 269.595 50.5171C268.643 51.2217 267.531 51.7853 266.261 52.2081C265.026 52.6661 263.651 52.895 262.134 52.895C260.299 52.895 258.641 52.5956 257.159 51.9967C255.678 51.3978 254.408 50.5699 253.349 49.5131C252.291 48.421 251.479 47.1527 250.915 45.7083C250.35 44.2287 250.068 42.6258 250.068 40.8996C250.068 38.6097 250.456 36.5312 251.232 34.6641C252.009 32.7617 253.049 31.1412 254.355 29.8025C255.66 28.4638 257.177 27.4245 258.906 26.6847C260.634 25.9449 262.469 25.575 264.409 25.575C266.173 25.575 267.69 25.8392 268.96 26.3676C270.265 26.8608 271.341 27.5126 272.188 28.3229C273.07 29.1331 273.758 30.0315 274.252 31.0179C274.781 32.0043 275.151 32.9907 275.363 33.9771L269.807 35.7209ZM293.489 36.8835L290.208 52.1024H296.294L299.734 36.1965C299.804 35.8795 299.857 35.4743 299.892 34.9811C299.963 34.4879 299.998 33.9947 299.998 33.5015C299.998 31.1412 299.293 29.2388 297.882 27.7944C296.506 26.35 294.548 25.6278 292.008 25.6278C290.632 25.6278 289.326 25.8568 288.092 26.3148C286.892 26.7375 285.851 27.4597 284.969 28.4814L288.092 13.8438H281.953L273.857 52.1024H279.942L283.17 37.1477C283.347 36.3727 283.594 35.6152 283.911 34.8754C284.264 34.1356 284.687 33.4839 285.181 32.9202C285.71 32.3566 286.31 31.9162 286.98 31.5991C287.686 31.2469 288.48 31.0707 289.362 31.0707C290.773 31.0707 291.849 31.4406 292.59 32.1804C293.331 32.9202 293.701 33.9419 293.701 35.2453C293.701 35.4919 293.683 35.7562 293.648 36.038C293.613 36.3198 293.56 36.6017 293.489 36.8835ZM227.819 17.2612C227.572 17.7896 227.448 18.3533 227.448 18.9522C227.448 19.9386 227.784 20.7841 228.454 21.4886C229.124 22.158 229.988 22.4927 231.047 22.4927C231.611 22.4927 232.158 22.387 232.687 22.1756C233.216 21.9642 233.675 21.6648 234.063 21.2773C234.487 20.8545 234.822 20.3789 235.069 19.8505C235.316 19.3221 235.439 18.7408 235.439 18.1067C235.439 17.1202 235.104 16.2924 234.434 15.623C233.763 14.9537 232.899 14.619 231.841 14.619C231.276 14.619 230.729 14.7423 230.2 14.9889C229.671 15.2003 229.195 15.4997 228.771 15.8872C228.383 16.2748 228.066 16.7327 227.819 17.2612ZM227.363 26.367L221.86 52.1018H227.945L233.449 26.367H227.363Z" fill="#252525"/>
</svg>
