<svg width="1400" height="400" viewBox="0 0 1400 400" fill="none" xmlns="http://www.w3.org/2000/svg">
<path d="M137.25 256.894C122.519 243.393 113.046 224.247 112.262 202.881H63.894C64.706 238.922 80.71 271.21 105.755 293.598L137.25 256.894Z" fill="#231F20"/>
<path d="M189.359 74.5C121.119 74.5 65.601 128.964 63.899 196.793H112.275C113.956 155.671 147.824 122.85 189.359 122.85C231.968 122.85 266.509 157.392 266.509 200C266.509 228.662 250.878 253.676 227.676 266.978L250.438 309.659C288.869 288.208 314.859 247.138 314.859 200.001C314.859 130.688 258.671 74.5 189.359 74.5Z" fill="#231F20"/>
<path d="M222.28 269.792C212.295 274.51 201.135 277.15 189.36 277.15C171.461 277.15 154.985 271.055 141.896 260.827L110.39 297.544C131.956 315.025 159.435 325.5 189.36 325.5C209.363 325.5 228.272 320.818 245.053 312.495L222.28 269.792Z" fill="#231F20"/>
<path d="M314.859 200H266.509V325.5H314.859V200Z" fill="#231F20"/>
<path d="M393.526 270.249L448.259 132.614H470.568L525.773 270.249H501.48L487.584 234.989H430.866L417.254 270.249H393.526ZM437.767 215.8H479.928C474.129 199.227 467.166 179.595 459.036 156.908C449.583 183.125 442.493 202.756 437.767 215.8Z" fill="#231F20"/>
<path d="M542.128 270.249V131.385H563.303V213.437L601.021 173.262H630.136L582.776 219.771L633.349 270.25H605.179L563.303 226.767V270.25H542.128V270.249Z" fill="#231F20"/>
<path d="M688.744 272.423C681.181 272.423 674.342 271.02 668.23 268.218C662.116 265.413 657.17 261.647 653.389 256.921C649.608 252.194 646.725 246.887 644.74 240.993C642.755 235.101 641.762 228.909 641.762 222.417C641.762 215.61 642.817 209.121 644.928 202.944C647.039 196.768 650.047 191.286 653.956 186.496C657.862 181.707 662.855 177.893 668.939 175.058C675.019 172.222 681.748 170.804 689.12 170.804C695.549 170.804 701.282 172.175 706.325 174.916C711.366 177.657 715.399 181.329 718.424 185.929V173.262H739.126V270.25H718.047V255.693C715.147 260.735 711.159 264.784 706.089 267.839C701.017 270.896 695.233 272.423 688.744 272.423ZM691.675 255.219C700.938 255.219 707.838 252.147 712.376 246.002C716.913 239.857 719.182 231.649 719.182 221.378C719.182 211.296 716.833 203.197 712.14 197.082C707.445 190.972 700.529 187.914 691.39 187.914C681.999 187.914 674.91 190.986 670.122 197.131C665.331 203.276 662.936 211.421 662.936 221.567C662.936 231.526 665.347 239.623 670.168 245.861C674.989 252.099 682.158 255.219 691.675 255.219Z" fill="#231F20"/>
<path d="M804.164 272.423C792.001 272.423 782.721 268.942 776.325 261.978C769.928 255.017 766.73 245.735 766.73 234.139V173.262H787.715V233.951C787.715 241.073 789.495 246.397 793.057 249.926C796.617 253.458 801.672 255.22 808.229 255.22C815.791 255.22 821.525 253.204 825.432 249.17C829.338 245.138 831.294 239.149 831.294 231.209V173.262H852.468V244.917C852.468 252.984 852.783 261.429 853.413 270.25H831.672L831.294 255.504C830.537 257.27 829.498 259.034 828.174 260.797C826.851 262.563 825.115 264.376 822.976 266.232C820.831 268.092 818.121 269.589 814.845 270.724C811.568 271.856 808.007 272.423 804.164 272.423Z" fill="#231F20"/>
<path d="M883.002 270.249V206.253C883.002 200.393 882.874 194.721 882.624 189.237C882.371 183.754 882.118 179.721 881.868 177.137L881.489 173.261H903.705V186.969C907.043 181.802 911.581 177.816 917.316 175.01C923.049 172.208 928.816 170.804 934.615 170.804C946.588 170.804 955.568 174.396 961.556 181.58C967.542 188.765 970.536 200.202 970.536 215.895V270.249H949.361V215.233C949.361 205.654 947.958 198.706 945.155 194.388C942.349 190.073 937.418 187.913 930.361 187.913C924.247 187.913 918.355 190.261 912.683 194.956C907.011 199.651 904.175 205.023 904.175 211.072V270.248H883.002V270.249Z" fill="#231F20"/>
<path d="M1053.35 270.154H1044.27C1037.34 270.154 1031.64 269.715 1027.16 268.832C1022.69 267.95 1018.71 266.278 1015.25 263.821C1011.78 261.363 1009.28 257.835 1007.73 253.234C1006.19 248.634 1005.42 242.71 1005.42 235.463V187.441H986.135V173.261H1005.99V149.629L1026.5 143.485V173.261H1052.97V187.441H1026.5V236.691C1026.5 240.662 1026.85 243.734 1027.54 245.908C1028.23 248.082 1029.68 249.802 1031.89 251.061C1034.1 252.323 1036.74 253.11 1039.83 253.424C1042.92 253.739 1047.42 253.896 1053.35 253.896V270.154Z" fill="#231F20"/>
<path d="M1076.32 270.249V173.261H1097.02V270.249H1076.32ZM1076.41 151.52V132.614H1097.02V151.52H1076.41Z" fill="#231F20"/>
<path d="M1126.89 270.249V206.253C1126.89 200.393 1126.76 194.721 1126.51 189.237C1126.26 183.754 1126.01 179.721 1125.76 177.137L1125.38 173.261H1147.59V186.969C1150.93 181.802 1155.47 177.816 1161.2 175.01C1166.94 172.208 1172.7 170.804 1178.5 170.804C1190.48 170.804 1199.46 174.396 1205.44 181.58C1211.43 188.765 1214.42 200.202 1214.42 215.895V270.249H1193.25V215.233C1193.25 205.654 1191.85 198.706 1189.04 194.388C1186.24 190.073 1181.31 187.913 1174.25 187.913C1168.13 187.913 1162.24 190.261 1156.57 194.956C1150.9 199.651 1148.06 205.023 1148.06 211.072V270.248H1126.89V270.249Z" fill="#231F20"/>
<path d="M1282.3 309.385C1269.38 309.385 1257.15 306.799 1245.62 301.633L1249.12 283.294C1259.39 289.217 1270.07 292.18 1281.16 292.18C1290.68 292.18 1298.07 289.878 1303.33 285.28C1308.59 280.679 1311.22 273.809 1311.22 264.673V255.504C1305.05 264.578 1296.07 269.115 1284.28 269.115C1270.48 269.115 1259.26 264.832 1250.63 256.26C1241.99 247.692 1237.68 236.125 1237.68 221.568C1237.68 214.447 1238.64 207.847 1240.56 201.764C1242.48 195.683 1245.29 190.326 1248.98 185.693C1252.66 181.061 1257.44 177.422 1263.3 174.776C1269.16 172.129 1275.81 170.805 1283.24 170.805C1289.86 170.805 1295.52 172.145 1300.21 174.823C1304.91 177.502 1308.61 180.952 1311.32 185.174V173.263H1333.53C1332.52 183.094 1332.02 193.115 1332.02 203.323V256.355C1332.02 261.901 1331.58 267.084 1330.7 271.905C1329.81 276.726 1328.22 281.501 1325.93 286.227C1323.62 290.954 1320.64 294.971 1316.99 298.279C1313.33 301.588 1308.56 304.265 1302.67 306.314C1296.77 308.359 1289.98 309.385 1282.3 309.385ZM1285.7 252.949C1290.36 252.949 1294.44 252.085 1297.94 250.35C1301.44 248.618 1304.2 246.207 1306.21 243.119C1308.23 240.033 1309.71 236.597 1310.65 232.815C1311.6 229.034 1312.07 224.874 1312.07 220.337C1312.07 210.568 1309.87 202.723 1305.46 196.798C1301.04 190.876 1294.74 187.913 1286.55 187.913C1278.04 187.913 1271.45 191.049 1266.79 197.319C1262.13 203.591 1259.8 211.61 1259.8 221.378C1259.8 231.398 1261.99 239.165 1266.37 244.679C1270.75 250.195 1277.19 252.949 1285.7 252.949Z" fill="#231F20"/>
</svg>
