<?xml version="1.0" encoding="UTF-8"?>
<!DOCTYPE svg PUBLIC "-//W3C//DTD SVG 1.1//EN" "http://www.w3.org/Graphics/SVG/1.1/DTD/svg11.dtd">
<!-- Creator: CorelDRAW X7 -->
<svg xmlns="http://www.w3.org/2000/svg" xml:space="preserve" width="84.6666mm" height="21.1666mm" version="1.1" style="shape-rendering:geometricPrecision; text-rendering:geometricPrecision; image-rendering:optimizeQuality; fill-rule:evenodd; clip-rule:evenodd"
viewBox="0 0 8467 2117"
 xmlns:xlink="http://www.w3.org/1999/xlink">
 <defs>
  <style type="text/css">
   <![CDATA[
    .str0 {stroke:#4C565A;stroke-width:84.66}
    .fil0 {fill:none}
    .fil1 {fill:#0E55BF}
    .fil4 {fill:#4C565A}
    .fil2 {fill:#0E55BF;fill-rule:nonzero}
    .fil3 {fill:#4C565A;fill-rule:nonzero}
   ]]>
  </style>
 </defs>
 <g id="Layer_x0020_1">
  <metadata id="CorelCorpID_0Corel-Layer"/>
  <rect class="fil0" x="-38" y="5" width="8467" height="2099"/>
  <path class="fil1" d="M455 782c101,0 192,45 253,117l-60 33c-50,-51 -118,-82 -194,-82 -149,0 -271,122 -271,273 0,151 122,274 271,274 72,0 137,-28 185,-74l-389 -177 451 205c-61,68 -149,110 -246,110 -185,0 -335,-152 -335,-340 0,-187 150,-339 335,-339z"/>
  <path class="fil2" d="M1811 1429l0 -648 203 0 0 81c32,-32 65,-56 100,-71 35,-15 75,-23 121,-23 71,0 125,22 163,65 38,43 57,105 57,186l0 410 -205 0 0 -382c0,-46 -7,-80 -22,-101 -15,-22 -38,-32 -69,-32 -29,0 -55,8 -79,26 -25,17 -47,43 -66,76l0 413 -203 0zm789 0l0 -648 205 0 0 648 -205 0zm-7 -858c0,-31 11,-57 32,-78 21,-21 47,-32 78,-32 31,0 57,11 77,32 21,21 32,47 32,78 0,31 -11,56 -32,77 -20,21 -46,32 -77,32 -31,0 -57,-11 -78,-32 -21,-21 -32,-47 -32,-77zm360 858l0 -648 205 0 0 173c34,-65 68,-112 100,-140 32,-29 67,-43 104,-43 19,0 39,4 59,11 21,8 45,20 70,36l-55 187c-20,-16 -39,-28 -57,-35 -17,-8 -34,-11 -51,-11 -39,0 -73,17 -104,51 -31,34 -53,81 -66,140l0 279 -205 0zm803 13l-300 -661 216 0 143 351 134 -351 213 0 -282 661 -124 0zm806 -168l0 -159c-69,25 -116,47 -139,65 -24,18 -36,40 -36,66 0,21 7,37 19,50 13,12 31,18 53,18 15,0 31,-3 49,-10 17,-7 35,-17 54,-30zm11 95c-31,25 -63,43 -96,55 -33,12 -68,18 -106,18 -63,0 -110,-16 -142,-46 -32,-30 -47,-75 -47,-135 0,-52 23,-95 70,-128 47,-34 151,-74 310,-120 1,-2 1,-5 1,-7 1,-3 1,-7 1,-12 0,-30 -11,-53 -31,-68 -21,-15 -53,-22 -96,-22 -37,0 -74,9 -113,27 -38,17 -75,43 -112,77l3 -161c39,-27 82,-46 130,-59 47,-13 100,-20 159,-20 93,0 161,18 203,54 42,36 63,93 63,172l0 259c0,15 2,25 6,31 4,6 11,9 20,9 9,0 18,-1 27,-3 10,-2 22,-7 38,-13l0 113c-37,18 -70,31 -99,39 -28,8 -55,13 -81,13 -32,0 -57,-6 -76,-19 -18,-12 -29,-30 -32,-54z"/>
  <path class="fil3" d="M4918 1394l0 -144c41,18 79,33 114,43 35,10 64,16 88,16 33,0 57,-5 73,-13 17,-8 25,-20 25,-37 0,-13 -6,-26 -19,-36 -12,-11 -40,-25 -84,-44 -4,-2 -12,-4 -22,-9 -124,-51 -186,-117 -186,-198 0,-61 23,-111 69,-148 46,-37 106,-56 182,-56 41,0 79,4 115,13 37,9 72,22 106,39l0 143c-43,-23 -81,-40 -115,-50 -33,-11 -64,-16 -93,-16 -24,0 -43,4 -56,13 -14,9 -20,21 -20,37 0,21 37,47 111,77 30,12 53,22 71,30 47,20 82,45 103,74 22,28 33,64 33,106 0,67 -24,119 -70,155 -46,36 -112,54 -197,54 -42,0 -83,-4 -121,-12 -38,-8 -73,-20 -107,-37zm605 35l0 -956 205 0 0 389c32,-33 65,-57 100,-72 34,-14 74,-22 119,-22 71,0 126,22 164,65 38,43 56,105 56,186l0 410 -204 0 0 -382c0,-46 -7,-80 -22,-101 -15,-22 -38,-32 -69,-32 -29,0 -55,8 -79,26 -24,17 -46,43 -65,76l0 413 -205 0zm1130 -155l0 -159c-69,25 -116,47 -139,65 -24,18 -36,40 -36,66 0,21 7,37 19,50 13,12 31,18 53,18 15,0 31,-3 49,-10 17,-7 35,-17 54,-30zm11 95c-31,25 -63,43 -96,55 -33,12 -68,18 -106,18 -63,0 -110,-16 -142,-46 -32,-30 -47,-75 -47,-135 0,-52 23,-95 70,-128 47,-34 151,-74 310,-120 1,-2 1,-5 1,-7 1,-3 1,-7 1,-12 0,-30 -11,-53 -31,-68 -21,-15 -53,-22 -96,-22 -37,0 -74,9 -113,27 -38,17 -75,43 -112,77l3 -161c39,-27 82,-46 130,-59 47,-13 100,-20 159,-20 93,0 161,18 203,54 42,36 63,93 63,172l0 259c0,15 2,25 6,31 4,6 11,9 20,9 9,0 18,-1 27,-3 10,-2 22,-7 38,-13l0 113c-37,18 -70,31 -99,39 -28,8 -55,13 -81,13 -32,0 -57,-6 -76,-19 -18,-12 -29,-30 -32,-54zm372 60l0 -648 204 0 0 173c35,-65 68,-112 100,-140 32,-29 67,-43 105,-43 19,0 38,4 59,11 21,8 44,20 70,36l-55 187c-21,-16 -40,-28 -57,-35 -17,-8 -35,-11 -51,-11 -39,0 -74,17 -105,51 -30,34 -52,81 -66,140l0 279 -204 0zm1218 -71c-44,29 -90,50 -139,64 -49,14 -102,21 -157,21 -112,0 -199,-31 -263,-92 -63,-61 -95,-145 -95,-253 0,-100 31,-180 93,-240 62,-60 145,-90 248,-90 101,0 182,33 240,97 59,65 89,155 89,269l0 7 -460 0 0 2c0,52 18,92 53,122 35,30 83,45 144,45 41,0 83,-7 124,-22 40,-14 82,-36 123,-65l0 135zm-442 -317l252 -1c-4,-41 -16,-74 -38,-98 -22,-23 -50,-35 -84,-35 -35,0 -64,12 -87,35 -23,24 -38,57 -43,99z"/>
  <path class="fil4 str0" d="M461 951c71,0 131,43 156,105l0 0c8,20 12,41 12,63 0,27 -6,53 -18,76l-2 3c-28,53 -84,89 -148,89 -93,0 -168,-76 -168,-168 0,-93 75,-168 168,-168z"/>
  <path class="fil4 str0" d="M1200 1284c93,0 168,75 168,168 0,93 -75,168 -168,168 -93,0 -168,-75 -168,-168 0,-16 2,-32 6,-47l0 0c21,-70 85,-121 162,-121z"/>
  <path class="fil4 str0" d="M1267 533c93,0 168,76 168,168 0,93 -75,168 -168,168 -62,0 -116,-33 -145,-83l-2 -4c-13,-24 -21,-51 -21,-81 0,-92 76,-168 168,-168z"/>
  <line class="fil0 str0" x1="1120" y1="782" x2="617" y2= "1056" />
  <line class="fil0 str0" x1="609" y1="1198" x2="1038" y2= "1405" />
 </g>
</svg>
