<?xml version="1.0" encoding="utf-8"?>
<!DOCTYPE svg PUBLIC "-//W3C//DTD SVG 1.1//EN" "http://www.w3.org/Graphics/SVG/1.1/DTD/svg11.dtd">
<svg version="1.1" id="Layer_1" xmlns="http://www.w3.org/2000/svg" xmlns:xlink="http://www.w3.org/1999/xlink" x="0px" y="0px"
	 width="160px" height="160px" viewBox="0 0 160 160" enable-background="new 0 0 160 160" xml:space="preserve">
<g>
	<path fill="none" d="M33.194,94.945L19.11,56.369c-3.166,7.094-4.941,14.949-4.941,23.225c0,8.213,1.754,16.008,4.875,23.064
		c3.807,8.594,9.662,16.074,16.963,21.813c3.189,2.512,6.646,4.699,10.33,6.486l-3.689-10.111L33.194,94.945z"/>
	<path fill="none" d="M127.382,89.814c0.596-3.313,0.938-6.73,0.938-10.221c0-9.922-2.535-19.25-6.988-27.379
		c0.248,1.813,0.379,3.764,0.379,5.865c0,5.795-1.076,12.301-4.338,20.445l-5.238,15.139c4.195-2.463,9.057-3.895,14.264-3.895
		C126.731,89.77,127.054,89.807,127.382,89.814z"/>
	<path fill="none" d="M76.462,96.139l-4.219-11.551l-7.324,21.295l-9.797,28.463c5.113,1.512,10.52,2.33,16.125,2.33
		c6.646,0,13.02-1.156,18.949-3.236c-0.148-0.25-0.293-0.508-0.406-0.795L76.462,96.139z"/>
	<path fill="none" d="M99.944,128.932c0.096-0.063,0.189-0.125,0.287-0.18c-0.041-0.107-0.072-0.219-0.119-0.326L99.944,128.932z"/>
	<path fill="none" d="M105.429,95.17c2.469-7.895,4.344-13.57,4.344-18.455c0-6.402-2.084-11.016-4.094-14.652
		c-0.203-0.365-0.412-0.738-0.609-1.088c-2.889-4.703-5.607-8.678-5.607-13.387c0-5.248,3.973-10.129,9.582-10.129
		c0.256,0,0.5,0.025,0.744,0.047c-4.529-4.15-9.74-7.574-15.428-10.1c-7.07-3.141-14.885-4.889-23.113-4.889
		c-19.943,0-37.484,10.232-47.691,25.727c1.342,0.043,2.607,0.068,3.676,0.068c5.965,0,15.213-0.725,15.213-0.725
		c3.072-0.176,3.434,4.344,0.361,4.709c0,0-3.094,0.359-6.527,0.541l10.916,32.477l9.063,26.961l0.803,2.383l1.291-3.869
		l11.203-33.59l-3.313-9.074l-5.582-15.287c-3.074-0.182-5.986-0.541-5.986-0.541c-3.078-0.188-2.717-4.885,0.361-4.709
		c0,0,9.422,0.725,15.031,0.725c3.979,0,9.395-0.326,12.578-0.537c1.588-0.109,2.631-0.188,2.631-0.188
		c3.078-0.176,3.447,4.344,0.369,4.709c0,0-3.094,0.359-6.533,0.541l10.188,30.305l9.58,28.484
		c0.875-3.732,2.482-7.182,4.676-10.188L105.429,95.17z"/>
	<path fill="#3D596D" d="M99.944,128.932l0.168-0.506c-1.271-3.213-1.994-6.713-1.994-10.381c0-2.213,0.281-4.35,0.76-6.418
		l-9.58-28.484L79.11,52.838c3.439-0.182,6.533-0.541,6.533-0.541c3.078-0.365,2.709-4.885-0.369-4.709c0,0-1.043,0.078-2.631,0.188
		c-3.184,0.211-8.6,0.537-12.578,0.537c-5.609,0-15.031-0.725-15.031-0.725c-3.078-0.176-3.439,4.521-0.361,4.709
		c0,0,2.912,0.359,5.986,0.541l5.582,15.287l3.313,9.074l-11.203,33.59l-1.291,3.869l-0.803-2.383l-9.063-26.961L36.278,52.838
		c3.434-0.182,6.527-0.541,6.527-0.541c3.072-0.365,2.711-4.885-0.361-4.709c0,0-9.248,0.725-15.213,0.725
		c-1.068,0-2.334-0.025-3.676-0.068C33.763,32.75,51.304,22.518,71.247,22.518c8.229,0,16.043,1.748,23.113,4.889
		c5.688,2.525,10.898,5.949,15.428,10.1c-0.244-0.021-0.488-0.047-0.744-0.047c-5.609,0-9.582,4.881-9.582,10.129
		c0,4.709,2.719,8.684,5.607,13.387c0.197,0.35,0.406,0.723,0.609,1.088c2.01,3.637,4.094,8.25,4.094,14.652
		c0,4.885-1.875,10.561-4.344,18.455l-1.875,6.27c2.297-3.139,5.209-5.795,8.58-7.775l5.238-15.139
		c3.262-8.145,4.338-14.65,4.338-20.445c0-2.102-0.131-4.053-0.379-5.865c4.453,8.129,6.988,17.457,6.988,27.379
		c0,3.49-0.342,6.908-0.938,10.221c3.031,0.105,5.938,0.688,8.662,1.68c0.709-3.867,1.129-7.83,1.129-11.9
		c0-16.857-6.367-32.25-16.813-43.922c-6.197-6.916-13.822-12.51-22.42-16.332c-8.162-3.631-17.189-5.666-26.693-5.666
		c-36.354,0-65.928,29.572-65.928,65.92c0,9.482,2.027,18.494,5.65,26.645c3.82,8.619,9.428,16.264,16.355,22.469
		c11.668,10.451,27.063,16.813,43.922,16.813c12.256,0,23.703-3.418,33.537-9.268c-1.881-2.232-3.424-4.764-4.553-7.5
		C100.134,128.807,100.04,128.869,99.944,128.932z M36.007,124.471c-7.301-5.738-13.156-13.219-16.963-21.813
		c-3.121-7.057-4.875-14.852-4.875-23.064c0-8.275,1.775-16.131,4.941-23.225l14.084,38.576l9.453,25.9l3.689,10.111
		C42.653,129.17,39.196,126.982,36.007,124.471z M71.247,136.676c-5.605,0-11.012-0.818-16.125-2.33l9.797-28.463l7.324-21.295
		l4.219,11.551l13.328,36.506c0.113,0.287,0.258,0.545,0.406,0.795C84.267,135.52,77.894,136.676,71.247,136.676z"/>
	<g>
		<path fill="#33CCCC" d="M146.522,98.207l-1.975,1.975l-1.994,1.988c4.021,4.094,6.516,9.699,6.516,15.875
			c0,12.5-10.172,22.676-22.672,22.676c-4.301,0-8.303-1.227-11.734-3.307l-2.848,1.506l-2.463,1.301l-0.268,0.143
			c4.791,3.719,10.787,5.963,17.313,5.963c15.59,0,28.283-12.682,28.283-28.281C154.681,110.32,151.556,103.32,146.522,98.207z"/>
		<path fill="#33CCCC" d="M109.544,133.158c-1.969-2.201-3.512-4.77-4.51-7.602c-0.83-2.355-1.307-4.875-1.307-7.512
			c0-0.025,0-0.043,0-0.074c0.023-5.195,1.807-9.969,4.773-13.789c4.086-5.268,10.434-8.693,17.586-8.793
			c0.107,0,0.203-0.012,0.311-0.012c2.959,0,5.775,0.586,8.365,1.625c1.182,0.461,2.303,1.037,3.375,1.693l2.854-1.514l2.725-1.443
			c-2.303-1.793-4.885-3.23-7.672-4.244c-2.725-0.992-5.631-1.574-8.662-1.68c-0.328-0.008-0.65-0.045-0.984-0.045
			c-5.207,0-10.068,1.432-14.264,3.895c-3.371,1.98-6.283,4.637-8.58,7.775c-2.193,3.006-3.801,6.455-4.676,10.188
			c-0.479,2.068-0.76,4.205-0.76,6.418c0,3.668,0.723,7.168,1.994,10.381c0.047,0.107,0.078,0.219,0.119,0.326
			c1.129,2.736,2.672,5.268,4.553,7.5c0.482,0.568,0.973,1.111,1.498,1.637l1.969-1.969l1.996-1.994
			C110.003,133.676,109.772,133.414,109.544,133.158z"/>
	</g>
	<path fill="#FFCC00" d="M148.243,95.158c-0.195-0.5-0.768-0.875-1.318-0.875c-0.338,0-0.65,0.1-1.078,0.324l-2.131,1.131
		l-2.725,1.443l-2.854,1.514l-4.66,2.455l-12.652,6.695l-10.906,5.762c-0.715,0.375-1.15,1.031-1.168,1.744
		c-0.008,0.725,0.398,1.375,1.109,1.781l2.84,1.631l6.51,3.75c0.369,0.213,0.625,0.582,0.678,1.012
		c0.025,0.156-0.016,0.313-0.047,0.463c-0.053,0.256-0.16,0.5-0.34,0.682l-9.254,9.256l-1.996,1.994l-1.969,1.969l-1.148,1.15
		c-0.656,0.643-0.846,1.268-0.584,1.893c0.203,0.5,0.775,0.883,1.326,0.883c0.328,0,0.648-0.102,1.074-0.32l2.135-1.131l0.268-0.143
		l2.463-1.301l2.848-1.506l28.225-14.932c0.715-0.381,1.141-1.02,1.156-1.75c0.02-0.707-0.387-1.369-1.09-1.775l-9.344-5.406
		c-0.363-0.213-0.613-0.588-0.672-1.012c-0.051-0.412,0.094-0.838,0.387-1.145l9.229-9.225l1.994-1.988l1.975-1.975l1.143-1.143
		C148.321,96.4,148.513,95.775,148.243,95.158z"/>
</g>
</svg>