<?xml version="1.0" encoding="utf-8"?>
<!DOCTYPE svg PUBLIC "-//W3C//DTD SVG 1.1//EN" "http://www.w3.org/Graphics/SVG/1.1/DTD/svg11.dtd">
<svg version="1.1" id="Layer_1" xmlns="http://www.w3.org/2000/svg" xmlns:xlink="http://www.w3.org/1999/xlink" x="0px" y="0px"
	 width="150px" height="150px" viewBox="0 0 150 150" enable-background="new 0 0 150 150" xml:space="preserve">
<path fill="#FFFFFF" d="M142.4,92.045l-1.139,1.135l-1.971,1.967l-1.975,1.98l-9.186,9.182c-1.767,1.823,2.948,3.682,3.988,4.283
	c1.864,1.079,3.729,2.157,5.594,3.236c1.452,0.833,1.313,2.784-0.118,3.541c-0.415,0.22-0.829,0.438-1.243,0.657
	c-2.065,1.093-4.131,2.185-6.197,3.277c-5.479,2.897-10.957,5.795-16.437,8.692c-1.386,0.732-2.772,1.466-4.159,2.199l-2.836,1.497
	l-2.453,1.298l-0.26,0.143l-2.123,1.121c-1.117,0.571-2.785-0.048-2.379-1.522c0.227-0.82,1.13-1.48,1.711-2.062l1.957-1.961
	l1.994-1.984l9.197-9.211c1.617-1.617-1.601-2.909-2.596-3.481c-1.393-0.801-2.784-1.601-4.176-2.401l-2.82-1.621
	c-1.7-0.956-1.107-2.884,0.35-3.652c1.167-0.616,2.334-1.232,3.5-1.849c2.355-1.243,4.71-2.487,7.064-3.73l12.59-6.661l4.639-2.45
	l2.846-1.501l2.711-1.443l2.115-1.121C142.424,88.581,143.874,90.556,142.4,92.045z M143.334,95.553l-3.986,3.982
	c6.074,8.186,5.752,19.974-0.774,27.806c-6.327,7.594-17.361,10.225-26.408,6.215c-0.896-0.397-1.768-0.853-2.606-1.36
	c-0.185,0.003-0.526,0.278-0.686,0.361c-0.717,0.379-1.434,0.757-2.15,1.136l-2.453,1.298l-0.26,0.143
	c8.37,6.492,20.16,7.747,29.665,3.031c8.994-4.461,15.158-13.715,15.655-23.759C149.663,107.658,147.508,100.865,143.334,95.553z
	 M130.838,86.504c-9.341-3.396-20.106-1.427-27.711,4.951c-7.762,6.511-11.369,17.021-9.447,26.945
	c1.039,5.364,3.676,10.398,7.539,14.27c0.652-0.653,1.305-1.308,1.957-1.961l1.994-1.984c-6.837-7.079-8.412-18.209-3.581-26.825
	c4.776-8.519,14.967-13.064,24.502-10.979c0.759,0.166,1.51,0.372,2.247,0.617c0.296,0.099,0.924,0.499,1.21,0.349
	c0.634-0.336,1.267-0.672,1.9-1.008c1.356-0.718,2.712-1.437,4.067-2.154c-1.745-1.017-3.638-1.996-5.589-2.554
	c0.413,0.118,0.915,0.26,1.291,0.466C131.106,86.576,130.957,86.546,130.838,86.504C119.821,82.498,132.475,87.085,130.838,86.504z
	 M96.309,133.07c-3.65-4.614-5.903-9.995-6.618-15.851c-0.352-2.887-0.308-5.82,0.133-8.694c0.212-1.383,0.516-2.752,0.908-4.095
	c0.197-0.675,0.417-1.342,0.659-2.001c0.107-0.291,0.739-1.383,0.651-1.646c-1.521-4.521-3.04-9.041-4.561-13.563
	c-1.017-3.022-2.033-6.046-3.05-9.069L74.353,48.161l1.279-0.087c1.547-0.106,3.092-0.246,4.636-0.401
	c1.079-0.109,2.123-0.526,2.509-1.623c0.574-1.634-0.702-3.472-2.457-3.366l-2.637,0.188c-4.7,0.31-9.411,0.475-14.121,0.446
	c-2.353-0.015-4.705-0.077-7.054-0.193c-2.147-0.105-4.307-0.399-6.453-0.446c-1.989,0-3.028,2.314-1.969,3.921
	c0.522,0.792,1.334,0.966,2.213,1.07c1.592,0.188,3.19,0.335,4.79,0.444l0.642,0.043l8.811,24.123l-11.139,33.384l-1.164,3.5
	L31.728,48.161l1.28-0.087c1.496-0.103,2.988-0.245,4.48-0.381c1.16-0.106,2.311-0.511,2.695-1.719
	c0.514-1.614-0.75-3.375-2.461-3.292c-6.207,0.586-12.412,0.79-18.643,0.671l1.088-1.528c11.795-16.572,32.468-25.76,52.673-23.474
	c11.407,1.291,22.934,6.085,31.309,14.031l-2.021,0.413c-4.756,0.973-7.93,5.59-7.817,10.325c0.115,4.876,3.153,9.107,5.614,13.107
	l0.596,1.057c2.629,4.77,4.299,10.118,4.019,15.608c-0.288,5.655-2.344,11.027-4.022,16.375c2.458-2.119,5.245-3.853,8.227-5.134
	c0.144-0.172,0.198-0.573,0.27-0.781c0.226-0.65,0.45-1.301,0.675-1.952c0.899-2.603,1.799-5.205,2.698-7.808
	c2.943-7.338,4.314-13.802,4.314-20.344c-0.005-0.757,0.015-1.52-0.074-2.272c-0.061-0.51-0.299-1.458,0.063-1.905
	c-0.059,0.074,0.729,1.343,0.79,1.458c0.372,0.702,0.761,1.4,1.096,2.12c1.33,2.854,2.23,6.002,2.945,9.061
	c1.519,6.498,1.882,13.26,1.057,19.882c3.023,0.135,6.026,0.694,8.891,1.671c2.824-20.515-4.81-41.767-19.713-56.079
	c-15.366-14.757-37.76-21.138-58.62-16.906c-20.101,4.078-37.63,17.994-46.323,36.552c-9.458,20.192-7.796,44.718,4.332,63.433
	c10.75,16.588,29.021,27.837,48.706,29.806C72.367,141.319,85.134,138.84,96.309,133.07
	C94.477,130.754,87.027,137.862,96.309,133.07C94.47,130.746,87.027,137.862,96.309,133.07z M67.355,80l4.068,11.166l13.532,37.041
	l-0.975,0.318c-10.917,3.569-22.487,3.563-33.517,0.539l9.717-28.209L67.355,80z M14.434,51.795l26.945,73.816l-2.315-1.278
	c-9.275-5.121-17.051-12.878-22.218-22.125c-5.724-10.241-8.11-22.239-6.813-33.895C10.672,62.563,12.353,57.164,14.434,51.795z"/>
</svg>